<svg width="180" height="40" viewBox="0 0 180 40" fill="none" xmlns="http://www.w3.org/2000/svg">
<g clip-path="url(#clip0_6_453)">
<path d="M160 0H20C8.9543 0 0 8.9543 0 20C0 31.0457 8.9543 40 20 40H160C171.046 40 180 31.0457 180 20C180 8.9543 171.046 0 160 0Z" fill="white"/>
<mask id="mask0_6_453" style="mask-type:luminance" maskUnits="userSpaceOnUse" x="44" y="5" width="92" height="30">
<path d="M136 5H44V35H136V5Z" fill="white"/>
</mask>
<g mask="url(#mask0_6_453)">
<path fill-rule="evenodd" clip-rule="evenodd" d="M59.1471 35C58.0907 35 57.3741 34.5788 56.8509 34.2725C56.5033 34.0688 56.2986 33.9538 56.1078 33.9538C55.8424 33.9538 55.6478 34.0113 55.3786 34.0913C53.6422 34.6988 52.4341 33.9113 51.4269 32.825C51.1464 32.5413 50.8292 32.22 50.632 32.155C49.0397 31.6862 47.3678 30.63 47.4133 28.7212V25.2025L45.1904 23.7462C44.69 23.4255 44.3154 22.9453 44.1288 22.385C43.7813 21.3763 44.1566 20.1587 45.016 19.5075C45.7527 18.9262 46.5085 18.9363 47.4133 18.9538C47.383 16.62 47.3248 14.1913 48.3358 12.03C50.0949 7.84 54.5205 5 59.1471 5C63.7585 5 68.2005 7.84 69.9597 12.03C70.9707 14.19 70.9125 16.6238 70.8822 18.9538C71.7971 18.9375 72.568 18.9175 73.3136 19.5075C74.173 20.1575 74.5483 21.3763 74.2008 22.385C74.0144 22.9456 73.6398 23.4264 73.1392 23.7475L70.8822 25.2275V28.7212C70.8708 30.63 69.4731 31.7337 67.5838 32.1775C67.436 32.2187 67.0733 32.59 66.8559 32.8112C65.8323 33.9237 64.652 34.695 62.9004 34.0913C62.6351 34.015 62.4253 33.9538 62.1725 33.9538C61.983 33.9538 61.7808 34.0675 61.4396 34.27C60.9189 34.5788 60.2074 35 59.1471 35Z" fill="#3A3837"/>
<path fill-rule="evenodd" clip-rule="evenodd" d="M71.6594 19.9999H69.8143V16.5124C69.8143 10.7324 65.0399 6.04614 59.1484 6.04614C53.2569 6.04614 48.4812 10.7324 48.4812 16.5112V19.9999H46.6703C45.0881 19.9999 44.4663 22.0137 45.7831 22.8749L48.4812 24.6437V28.7212C48.4812 30.1162 49.6211 30.7212 50.9708 31.1624C52.0361 31.5124 52.7476 33.2562 54.1705 33.2562C54.8808 33.2562 55.2902 32.9062 56.1078 32.9062C57.1744 32.9062 57.7254 33.9537 59.1484 33.9537C60.5701 33.9537 61.1047 32.9074 62.1725 32.9074C62.9662 32.9074 63.4148 33.2562 64.1263 33.2562C65.548 33.2562 66.291 31.4162 67.326 31.1624C68.749 30.8137 69.8156 30.1162 69.8156 28.7212V24.6687L72.5465 22.8762C73.8646 22.0137 73.2416 19.9999 71.6594 19.9999Z" fill="white"/>
<path fill-rule="evenodd" clip-rule="evenodd" d="M58.2764 12.8413C58.2764 14.2863 57.4803 15.4576 56.4984 15.4576C55.5164 15.4576 54.7203 14.2863 54.7203 12.8413C54.7203 11.3963 55.5164 10.2251 56.4984 10.2251C57.4803 10.2251 58.2764 11.3963 58.2764 12.8413ZM63.6094 12.8413C63.6094 14.2863 62.8132 15.4576 61.8326 15.4576C60.8507 15.4576 60.0545 14.2863 60.0545 12.8413C60.0545 11.3963 60.8507 10.2251 61.8313 10.2251C62.8132 10.2251 63.6094 11.3963 63.6094 12.8413Z" fill="#3A3837"/>
<path d="M78.4942 16.9951H77.2074H76.1727V23.2251H77.2074V21.0001H78.4942C79.6369 21.0001 80.5366 20.1012 80.5366 18.9976C80.5366 17.8851 79.6369 16.9951 78.4942 16.9951ZM78.4942 20.0388H77.2074V17.9563H78.4942C79.061 17.9563 79.5019 18.4102 79.5019 18.9976C79.5019 19.5761 79.061 20.0388 78.4942 20.0388ZM83.6226 18.6593C83.0646 18.6593 82.6328 18.8463 82.3448 19.2823V16.9951H81.3731V23.2251H82.3448V20.6708C82.3448 19.852 82.8038 19.5583 83.3076 19.5583C83.7844 19.5583 84.1354 19.8431 84.1354 20.4127V23.2251H85.1072V20.3593C85.1072 19.2913 84.4593 18.6593 83.6226 18.6593ZM87.8634 18.6593C86.8647 18.6593 86.0728 19.2557 86.0728 20.2436H87.0265C87.0265 19.7986 87.3865 19.5583 87.8634 19.5583C88.3402 19.5583 88.7001 19.7986 88.7001 20.4216V20.9733C88.4212 20.6975 87.9984 20.5195 87.4225 20.5195C86.6127 20.5195 85.8749 20.9823 85.8749 21.9257C85.8749 22.8691 86.6127 23.3408 87.4225 23.3408C87.9984 23.3408 88.4212 23.1538 88.7001 22.8068V23.2251H89.654V20.3771C89.654 19.2557 88.8621 18.6593 87.8634 18.6593ZM87.7374 22.5932C87.1255 22.5932 86.8466 22.3083 86.8466 21.9257C86.8466 21.543 87.1255 21.2671 87.7374 21.2671C88.3133 21.2671 88.7001 21.5163 88.7001 21.9257C88.7001 22.3083 88.3133 22.5932 87.7374 22.5932ZM92.9191 18.6593C92.3612 18.6593 91.9293 18.8463 91.6413 19.2823V18.7751H90.6696V23.2251H91.6413V20.6708C91.6413 19.852 92.1003 19.5583 92.6042 19.5583C93.081 19.5583 93.4319 19.8431 93.4319 20.4127V23.2251H94.4037V20.3593C94.4037 19.2913 93.7558 18.6593 92.9191 18.6593ZM97.6459 18.7751H96.818V17.3511H95.8463V18.7751H95.0184V19.7007H95.8463V23.2251H96.818V19.7007H97.6459V18.7751ZM100.367 23.3408C101.69 23.3408 102.743 22.3173 102.743 21.0001C102.743 19.674 101.69 18.6593 100.367 18.6593C99.0538 18.6593 97.992 19.674 97.992 21.0001C97.992 22.3173 99.0538 23.3408 100.367 23.3408ZM100.367 22.4063C99.5756 22.4063 98.9638 21.81 98.9638 21.0001C98.9638 20.1902 99.5756 19.5938 100.367 19.5938C101.159 19.5938 101.771 20.1902 101.771 21.0001C101.771 21.81 101.159 22.4063 100.367 22.4063ZM108.103 18.6593C107.59 18.6593 107.158 18.8552 106.834 19.3002C106.6 18.8818 106.186 18.6593 105.709 18.6593C105.268 18.6593 104.863 18.8285 104.593 19.2378V18.7751H103.622V23.2251H104.593V20.4928C104.593 19.763 105.043 19.5583 105.403 19.5583C105.763 19.5583 106.078 19.7541 106.078 20.2792V23.2251H107.05V20.4928C107.05 19.763 107.5 19.5583 107.859 19.5583C108.228 19.5583 108.543 19.7541 108.543 20.2792V23.2251H109.515V20.2258C109.515 19.2023 108.921 18.6593 108.103 18.6593ZM114.73 19.3892C114.874 19.1578 114.955 18.8997 114.955 18.6238C114.955 17.6982 114.226 16.9951 113.173 16.9951H111.626H110.591V23.2251H110.816H113.866C115.009 23.2251 115.855 22.344 115.855 21.2226C115.855 20.4038 115.414 19.7185 114.73 19.3892ZM113.173 17.9563C113.641 17.9563 113.92 18.2588 113.92 18.6683C113.92 18.8552 113.848 19.0421 113.722 19.1756H111.626V17.9563H113.173ZM113.731 22.2638H111.626V20.0923H113.74C114.442 20.0923 114.82 20.5728 114.82 21.1781C114.82 21.7743 114.433 22.2638 113.731 22.2638ZM119.342 18.7751V21.3293C119.342 22.1393 118.883 22.4418 118.37 22.4418C117.902 22.4418 117.551 22.1571 117.551 21.5786V18.7751H116.58V21.6408C116.58 22.7088 117.228 23.3408 118.064 23.3408C118.613 23.3408 119.054 23.1538 119.342 22.7178V23.2251H120.314V18.7751H119.342ZM122.278 20.0211C122.278 19.6828 122.602 19.5227 123.007 19.5227C123.385 19.5227 123.727 19.7096 123.727 20.1457H124.681C124.681 19.1667 123.907 18.6593 123.007 18.6593C122.08 18.6593 121.306 19.1578 121.306 20.0211C121.306 21.721 123.799 21.0891 123.799 21.9702C123.799 22.3083 123.475 22.4775 123.007 22.4775C122.53 22.4775 122.188 22.2906 122.188 21.8456H121.234C121.234 22.8246 122.008 23.3408 123.007 23.3408C123.997 23.3408 124.771 22.8513 124.771 21.9702C124.771 20.2703 122.278 20.92 122.278 20.0211ZM127.829 18.7751H127.001V17.3511H126.029V18.7751H125.201V19.7007H126.029V23.2251H127.001V19.7007H127.829V18.7751ZM129.183 21.4095H132.728C132.746 21.2848 132.764 21.1425 132.764 21.009C132.764 19.7273 131.882 18.6593 130.532 18.6593C129.129 18.6593 128.175 19.6828 128.175 21.0001C128.175 22.3351 129.12 23.3408 130.551 23.3408C131.558 23.3408 132.341 22.8157 132.62 21.9613L131.63 21.9702C131.468 22.2817 131.063 22.5131 130.568 22.5131C129.876 22.5131 129.327 22.1393 129.183 21.4095ZM129.174 20.6173C129.309 19.9588 129.804 19.5316 130.532 19.5316C131.108 19.5316 131.657 19.8608 131.783 20.6173H129.174ZM134.566 19.4426V18.7751H133.594V23.2251H134.566V20.9378C134.566 19.9855 135.222 19.6918 135.861 19.7363V18.695C135.312 18.695 134.835 18.8997 134.566 19.4426Z" fill="#3A3837"/>
</g>
</g>
<defs>
<clipPath id="clip0_6_453">
<rect width="180" height="40" fill="white"/>
</clipPath>
</defs>
</svg>
