<svg width="180" height="40" viewBox="0 0 180 40" fill="none" xmlns="http://www.w3.org/2000/svg">
<g clip-path="url(#clip0_6_477)">
<path d="M160 0H20C8.9543 0 0 8.9543 0 20C0 31.0457 8.9543 40 20 40H160C171.046 40 180 31.0457 180 20C180 8.9543 171.046 0 160 0Z" fill="white"/>
<mask id="mask0_6_477" style="mask-type:luminance" maskUnits="userSpaceOnUse" x="53" y="10" width="74" height="20">
<path d="M127 10H53V30H127V10Z" fill="white"/>
</mask>
<g mask="url(#mask0_6_477)">
<path fill-rule="evenodd" clip-rule="evenodd" d="M56.2642 10.5557H68.0668C69.8696 10.5557 71.331 12.0616 71.331 13.9191V26.0806C71.331 27.9382 69.8696 29.4441 68.0668 29.4441H56.2642C54.4614 29.4441 53 27.9382 53 26.0806V13.9191C53 12.0616 54.4614 10.5557 56.2642 10.5557ZM65.9397 15.6151H61.6647C61.3989 15.6151 61.1836 15.8371 61.1836 16.1109V16.8058C61.1836 17.0796 61.3989 17.3016 61.6647 17.3016H65.9397C66.2054 17.3016 66.4209 17.0796 66.4209 16.8058V16.1109C66.4209 15.8371 66.2054 15.6151 65.9397 15.6151ZM61.6647 19.1571H65.176C65.4418 19.1571 65.6572 19.379 65.6572 19.6528V20.3478C65.6572 20.6216 65.4418 20.8435 65.176 20.8435H61.6647C61.3989 20.8435 61.1836 20.6216 61.1836 20.3478V19.6528C61.1836 19.379 61.3989 19.1571 61.6647 19.1571ZM66.4209 23.8889V23.1939C66.4209 22.9203 66.2053 22.6982 65.9397 22.6982H60.7978C60.1065 22.6982 59.5468 22.1214 59.5468 21.4091V16.1109C59.5468 15.8373 59.3312 15.6151 59.0657 15.6151H58.3913C58.1257 15.6151 57.9101 15.8373 57.9101 16.1109V22.4427C57.9748 23.4851 58.7831 24.318 59.7947 24.3846H65.9397C66.2053 24.3846 66.4209 24.1625 66.4209 23.8889Z" fill="#316BFF"/>
<path d="M61.6647 15.6152H65.9397C66.2054 15.6152 66.4209 15.8371 66.4209 16.111V16.8058C66.4209 17.0797 66.2054 17.3017 65.9397 17.3017H61.6647C61.3989 17.3017 61.1836 17.0797 61.1836 16.8058V16.111C61.1836 15.8371 61.3989 15.6152 61.6647 15.6152Z" fill="white"/>
<path d="M61.6647 19.157H65.176C65.4418 19.157 65.6572 19.379 65.6572 19.6528V20.3477C65.6572 20.6215 65.4418 20.8435 65.176 20.8435H61.6647C61.3989 20.8435 61.1836 20.6215 61.1836 20.3477V19.6528C61.1836 19.379 61.3989 19.157 61.6647 19.157Z" fill="white"/>
<path d="M66.4209 23.194V23.8889C66.4209 24.1625 66.2053 24.3847 65.9397 24.3847H59.7947C58.7831 24.318 57.9748 23.4851 57.9101 22.4428V16.111C57.9101 15.8373 58.1257 15.6152 58.3913 15.6152H59.0657C59.3312 15.6152 59.5468 15.8373 59.5468 16.111V21.4092C59.5468 22.1215 60.1065 22.6982 60.7978 22.6982H65.9397C66.2053 22.6982 66.4209 22.9203 66.4209 23.194Z" fill="white"/>
<path d="M110.318 13.7993H109.426C109.16 13.7993 108.945 14.0213 108.945 14.2951V15.2145C108.945 15.4883 109.16 15.7103 109.426 15.7103H110.318C110.584 15.7103 110.799 15.4883 110.799 15.2145V14.2951C110.799 14.0213 110.584 13.7993 110.318 13.7993Z" fill="#213856"/>
<path d="M78.0179 14.1801V25.5538C78.0179 25.8275 77.8024 26.0496 77.5368 26.0496H76.7308C76.4652 26.0496 76.2496 25.8275 76.2496 25.5538V14.1801C76.2496 13.9064 76.4652 13.6843 76.7308 13.6843H77.5368C77.8024 13.6843 78.0179 13.9064 78.0179 14.1801Z" fill="#213856"/>
<path d="M81.4685 22.3706C81.6232 23.6977 82.6871 24.5639 84.2322 24.5639C84.9482 24.5639 85.8189 24.3299 86.387 23.9039C86.5772 23.7612 86.8382 23.7778 87.0075 23.9468L87.4764 24.4156C87.6819 24.6211 87.6712 24.9669 87.4494 25.1526C86.5672 25.8919 85.3247 26.2623 84.1976 26.2623C81.4161 26.2623 79.6308 24.4402 79.6308 21.6456C79.6308 18.8509 81.4338 17.0994 84.0775 17.0994C86.7212 17.0994 88.4903 18.6621 88.3664 21.8954C88.3564 22.1612 88.1431 22.3714 87.8852 22.3714H81.4677L81.4685 22.3706ZM86.6357 20.8317C86.5326 19.4522 85.5541 18.7264 84.1291 18.7264C82.8411 18.7264 81.7771 19.4514 81.5023 20.8317H86.6357Z" fill="#213856"/>
<path d="M95.5799 25.5538V20.9696C95.5798 19.8201 94.6769 18.8627 93.5613 18.8857C92.3334 18.9103 91.562 19.9796 91.562 21.2559V25.5538C91.562 25.8275 91.3464 26.0496 91.0808 26.0496H90.2748C90.0092 26.0496 89.7937 25.8275 89.7937 25.5538V17.8068C89.7937 17.5332 90.0092 17.3111 90.2748 17.3111H91.0093C91.2556 17.3111 91.4619 17.5023 91.4881 17.7545L91.5628 18.4788C92.0432 17.5236 93.0393 17.1699 93.9317 17.1699C95.0133 17.1699 96.1119 17.6299 96.593 18.9214C97.2797 17.6299 98.3444 17.1881 99.4946 17.1881C101.83 17.1881 103.083 18.7096 103.083 21.2218V25.5554C103.083 25.8291 102.867 26.0512 102.602 26.0512H101.779C101.513 26.0512 101.298 25.8291 101.298 25.5554V20.8728C101.298 19.8027 100.469 18.9063 99.4307 18.9047C98.1751 18.9023 97.3659 19.9645 97.3659 21.2575V25.5554C97.3659 25.8291 97.1504 26.0512 96.8848 26.0512H96.0618C95.7962 26.0512 95.5806 25.8291 95.5806 25.5554L95.5799 25.5538Z" fill="#213856"/>
<path d="M106.859 14.1801V25.5538C106.859 25.8275 106.643 26.0496 106.378 26.0496H105.572C105.306 26.0496 105.091 25.8275 105.091 25.5538V14.1801C105.091 13.9064 105.306 13.6843 105.572 13.6843H106.378C106.643 13.6843 106.859 13.9064 106.859 14.1801Z" fill="#213856"/>
<path d="M108.988 17.7888V25.554C108.988 25.8277 109.203 26.0498 109.469 26.0498H110.275C110.54 26.0498 110.756 25.8277 110.756 25.554V17.7888C110.756 17.5151 110.54 17.293 110.275 17.293H109.469C109.203 17.293 108.988 17.5151 108.988 17.7888Z" fill="#213856"/>
<path d="M118.523 19.1079C118.363 19.3014 118.088 19.3324 117.885 19.1873C117.311 18.7779 116.693 18.6549 115.993 18.6549C114.911 18.6375 114.19 19.0088 114.19 19.6989C114.206 20.4239 114.945 20.7071 116.026 20.8134C117.589 20.9546 119.632 21.3084 119.615 23.5558C119.598 25.1835 118.207 26.3155 116.009 26.3155C114.755 26.3155 113.501 26.0498 112.443 25.0201C112.267 24.8488 112.246 24.5679 112.39 24.3673L112.751 23.8635C112.912 23.6383 113.226 23.5922 113.437 23.7699C114.2 24.4156 115.191 24.6901 116.044 24.7052C116.886 24.7052 117.829 24.3871 117.847 23.5732C117.864 22.795 117.143 22.4943 115.89 22.3698C114.293 22.2104 112.457 21.6797 112.44 19.7521C112.44 17.8236 114.38 17.0986 115.959 17.0986C117.078 17.0986 117.982 17.3191 118.811 17.9283C119.042 18.0973 119.083 18.4336 118.899 18.6549L118.525 19.1079H118.523Z" fill="#213856"/>
<path d="M123.769 15.3675V17.3458H125.76C126.025 17.3458 126.241 17.568 126.241 17.8417V18.4247C126.241 18.6983 126.025 18.9205 125.76 18.9205H123.751V23.078C123.751 23.9982 124.146 24.5106 124.97 24.5106C125.176 24.5106 125.4 24.4662 125.621 24.3924C125.868 24.3099 126.132 24.4543 126.216 24.7073L126.417 25.3173C126.503 25.5767 126.369 25.8607 126.116 25.9472C125.705 26.0884 125.308 26.1558 124.866 26.1558C123.029 26.209 121.982 25.1302 121.982 23.078V18.9205H120.832C120.566 18.9205 120.351 18.6983 120.351 18.4247V17.8417C120.351 17.568 120.566 17.3458 120.832 17.3458H121.982V15.4571C121.982 15.2033 122.168 14.9907 122.413 14.9637L123.235 14.8741C123.52 14.8431 123.767 15.0724 123.767 15.3675H123.769Z" fill="#213856"/>
</g>
</g>
<defs>
<clipPath id="clip0_6_477">
<rect width="180" height="40" fill="white"/>
</clipPath>
</defs>
</svg>
