<svg width="180" height="40" viewBox="0 0 180 40" fill="none" xmlns="http://www.w3.org/2000/svg">
<g clip-path="url(#clip0_6_164)">
<path d="M160 0H20C8.9543 0 0 8.9543 0 20C0 31.0457 8.9543 40 20 40H160C171.046 40 180 31.0457 180 20C180 8.9543 171.046 0 160 0Z" fill="white"/>
<mask id="mask0_6_164" style="mask-type:luminance" maskUnits="userSpaceOnUse" x="34" y="3" width="112" height="34">
<path d="M146 3.5H34V36.5H146V3.5Z" fill="white"/>
</mask>
<g mask="url(#mask0_6_164)">
<path d="M76.4279 24.2482C76.2271 24.2482 76.0565 24.1788 75.9159 24.04C75.7954 23.9011 75.7352 23.7425 75.7352 23.564V13.3312C75.7352 12.9346 75.8557 12.6272 76.0966 12.4091C76.3376 12.1711 76.5986 12.0521 76.8797 12.0521C77.0403 12.0521 77.2009 12.0918 77.3616 12.1711C77.5423 12.2504 77.6928 12.3793 77.8133 12.5578L83.5656 21.5413C83.6664 21.6999 83.7666 21.7792 83.8668 21.7792C84.0278 21.7792 84.1078 21.6503 84.1078 21.3925L84.0776 12.7363C84.0776 12.5578 84.1482 12.3992 84.2885 12.2603C84.4494 12.1215 84.6301 12.0521 84.8306 12.0521C85.0315 12.0521 85.192 12.1215 85.3125 12.2603C85.4532 12.3992 85.5233 12.5578 85.5233 12.7363V22.9691C85.5233 23.3657 85.4028 23.683 85.1619 23.921C84.9209 24.1391 84.6602 24.2482 84.3788 24.2482C84.2184 24.2482 84.0475 24.2085 83.8668 24.1292C83.7064 24.0499 83.5656 23.921 83.4452 23.7425L77.6627 14.7591C77.5624 14.6004 77.4619 14.5211 77.3616 14.5211C77.2009 14.5211 77.1206 14.65 77.1206 14.9078L77.1808 23.564C77.1808 23.7425 77.1106 23.9011 76.97 24.04C76.8295 24.1788 76.6488 24.2482 76.4279 24.2482ZM91.9628 24.2482C90.5572 24.2482 89.4329 23.8416 88.5896 23.0286C87.7464 22.1957 87.3247 21.0554 87.3247 19.6077C87.3247 18.8145 87.5054 18.1006 87.8668 17.466C88.2282 16.8116 88.7299 16.296 89.3727 15.9192C90.0353 15.5226 90.808 15.3242 91.6918 15.3242C92.6151 15.3242 93.3784 15.5226 93.9807 15.9192C94.5831 16.296 95.0245 16.7719 95.3059 17.347C95.6071 17.9023 95.7576 18.4575 95.7576 19.0128C95.7576 19.3499 95.6772 19.6276 95.5167 19.8457C95.376 20.0638 95.1652 20.1729 94.8842 20.1729H89.1016C88.9812 20.1729 88.8908 20.1828 88.8306 20.2027C88.7901 20.2225 88.7704 20.2919 88.7704 20.4109C88.7704 20.748 88.8805 21.1149 89.1016 21.5115C89.3224 21.9081 89.6334 22.2552 90.0353 22.5526C90.4569 22.8302 90.9388 22.9889 91.4809 23.0286C92.0631 23.0682 92.6353 23.0087 93.1976 22.8501C93.7595 22.6915 94.2616 22.4435 94.7035 22.1064C94.8038 22.0271 94.9144 21.9874 95.0348 21.9874C95.1751 21.9874 95.3059 22.0469 95.4264 22.1659C95.5666 22.2849 95.6372 22.4336 95.6372 22.6121C95.6372 22.7906 95.5468 22.9691 95.3661 23.1476C94.8842 23.5244 94.3421 23.802 93.7398 23.9805C93.1374 24.1589 92.5449 24.2482 91.9628 24.2482ZM93.8602 19.1318C94.0207 19.1318 94.1412 19.0723 94.2216 18.9533C94.3016 18.8145 94.3219 18.6459 94.2819 18.4476C94.2216 17.932 93.9506 17.4759 93.4687 17.0793C92.9868 16.6628 92.3944 16.4546 91.6918 16.4546C91.1694 16.4546 90.6875 16.5835 90.2461 16.8413C89.8245 17.0793 89.4828 17.3866 89.2221 17.7634C88.9609 18.1403 88.8306 18.5369 88.8306 18.9533C88.8306 19.0524 88.9209 19.102 89.1016 19.102L93.8602 19.1318ZM101.679 24.2482C100.836 24.2482 100.083 24.0499 99.4202 23.6533C98.7576 23.2566 98.2254 22.7212 97.824 22.0469C97.4424 21.3529 97.2518 20.5795 97.2518 19.7267C97.2518 18.874 97.4424 18.1204 97.824 17.466C98.2254 16.8116 98.7576 16.296 99.4202 15.9192C100.083 15.5226 100.836 15.3242 101.679 15.3242C102.522 15.3242 103.275 15.5226 103.938 15.9192C104.62 16.296 105.152 16.8116 105.534 17.466C105.936 18.1204 106.136 18.874 106.136 19.7267C106.136 20.5795 105.936 21.3529 105.534 22.0469C105.152 22.7212 104.62 23.2566 103.938 23.6533C103.275 24.0499 102.522 24.2482 101.679 24.2482ZM101.679 23.0286C102.623 23.0286 103.376 22.7113 103.938 22.0767C104.5 21.4421 104.781 20.6588 104.781 19.7267C104.781 18.8343 104.5 18.0808 103.938 17.466C103.376 16.8512 102.623 16.5438 101.679 16.5438C100.755 16.5438 100.012 16.8512 99.4504 17.466C98.9082 18.0808 98.6372 18.8343 98.6372 19.7267C98.6372 20.6588 98.9082 21.4421 99.4504 22.0767C100.012 22.7113 100.755 23.0286 101.679 23.0286ZM109.433 23.9507C109.032 23.9507 108.68 23.8416 108.379 23.6235C108.098 23.4054 107.958 23.0583 107.958 22.5824V13.48C107.958 13.0437 108.088 12.7264 108.349 12.5281C108.61 12.3099 108.911 12.2009 109.253 12.2009H111.933C113.078 12.2009 114.112 12.419 115.035 12.8553C115.959 13.2717 116.692 13.9163 117.234 14.7888C117.776 15.6415 118.047 16.7223 118.047 18.0312C118.047 19.0425 117.826 20.0043 117.384 20.9166C116.943 21.809 116.32 22.5427 115.517 23.1178C114.734 23.6731 113.79 23.9507 112.686 23.9507H109.433ZM110.457 22.7311H112.054C113.017 22.7311 113.84 22.5229 114.523 22.1064C115.206 21.6701 115.728 21.0951 116.089 20.3811C116.471 19.6672 116.651 18.874 116.632 18.0014C116.611 16.5736 116.18 15.4631 115.336 14.6698C114.513 13.8766 113.409 13.48 112.024 13.48H110.457C109.754 13.48 109.403 13.827 109.403 14.5211V21.69C109.403 22.3841 109.754 22.7311 110.457 22.7311ZM123.744 24.2482C122.338 24.2482 121.214 23.8416 120.371 23.0286C119.528 22.1957 119.106 21.0554 119.106 19.6077C119.106 18.8145 119.287 18.1006 119.648 17.466C120.009 16.8116 120.511 16.296 121.154 15.9192C121.816 15.5226 122.589 15.3242 123.473 15.3242C124.396 15.3242 125.16 15.5226 125.762 15.9192C126.364 16.296 126.806 16.7719 127.087 17.347C127.388 17.9023 127.539 18.4575 127.539 19.0128C127.539 19.3499 127.458 19.6276 127.298 19.8457C127.157 20.0638 126.946 20.1729 126.665 20.1729H120.883C120.762 20.1729 120.672 20.1828 120.612 20.2027C120.571 20.2225 120.552 20.2919 120.552 20.4109C120.552 20.748 120.662 21.1149 120.883 21.5115C121.104 21.9081 121.415 22.2552 121.816 22.5526C122.238 22.8302 122.72 22.9889 123.262 23.0286C123.844 23.0682 124.416 23.0087 124.979 22.8501C125.541 22.6915 126.043 22.4435 126.485 22.1064C126.585 22.0271 126.696 21.9874 126.816 21.9874C126.956 21.9874 127.087 22.0469 127.208 22.1659C127.348 22.2849 127.418 22.4336 127.418 22.6121C127.418 22.7906 127.328 22.9691 127.147 23.1476C126.665 23.5244 126.123 23.802 125.521 23.9805C124.919 24.1589 124.326 24.2482 123.744 24.2482ZM125.641 19.1318C125.802 19.1318 125.922 19.0723 126.003 18.9533C126.083 18.8145 126.103 18.6459 126.063 18.4476C126.003 17.932 125.732 17.4759 125.25 17.0793C124.768 16.6628 124.176 16.4546 123.473 16.4546C122.951 16.4546 122.469 16.5835 122.027 16.8413C121.606 17.0793 121.264 17.3866 121.003 17.7634C120.742 18.1403 120.612 18.5369 120.612 18.9533C120.612 19.0524 120.702 19.102 120.883 19.102L125.641 19.1318ZM133.31 24.2482C132.064 24.2482 131.04 23.8317 130.238 22.9988C129.434 22.1461 129.033 21.0554 129.033 19.7267C129.033 18.4377 129.434 17.3866 130.238 16.5736C131.04 15.7407 132.064 15.3242 133.31 15.3242C134.594 15.3242 135.629 15.7704 136.412 16.6628V16.1274C136.412 15.9093 136.482 15.7506 136.623 15.6514C136.763 15.5325 136.913 15.473 137.074 15.473C137.255 15.473 137.416 15.5325 137.556 15.6514C137.696 15.7506 137.767 15.9093 137.767 16.1274V23.564C137.767 23.7623 137.696 23.921 137.556 24.04C137.436 24.1788 137.275 24.2482 137.074 24.2482C136.873 24.2482 136.713 24.1788 136.592 24.04C136.472 23.921 136.412 23.7623 136.412 23.564V22.8501C136.05 23.2864 135.599 23.6334 135.056 23.8912C134.534 24.1292 133.952 24.2482 133.31 24.2482ZM133.31 23.0286C134.253 23.0286 135.006 22.751 135.568 22.1957C136.13 21.6404 136.412 20.8174 136.412 19.7267C136.412 18.6757 136.13 17.8824 135.568 17.347C135.006 16.8116 134.253 16.5438 133.31 16.5438C132.446 16.5438 131.744 16.8512 131.201 17.466C130.679 18.0808 130.418 18.8343 130.418 19.7267C130.418 20.6588 130.679 21.4421 131.201 22.0767C131.744 22.7113 132.446 23.0286 133.31 23.0286ZM140.428 24.2482C140.227 24.2482 140.056 24.1788 139.916 24.04C139.795 23.921 139.735 23.7623 139.735 23.564V11.8142C139.735 11.596 139.806 11.4373 139.946 11.3382C140.087 11.2192 140.247 11.1597 140.428 11.1597C140.589 11.1597 140.739 11.2192 140.88 11.3382C141.02 11.4373 141.09 11.596 141.09 11.8142V23.564C141.09 23.7623 141.03 23.921 140.91 24.04C140.789 24.1788 140.629 24.2482 140.428 24.2482Z" fill="#202C36"/>
<path d="M37.6248 27.3477C37.6266 27.1823 37.7979 27.0717 37.952 27.1364L43.2262 29.3475C43.3806 29.4122 43.4188 29.6112 43.2991 29.7272L37.9894 34.8763C37.8427 35.0186 37.5947 34.9196 37.5894 34.7166L37.5565 33.4675L37.6248 27.3477Z" fill="#E2F3E6"/>
<path d="M57.0764 22.4654C57.0764 27.3673 52.4272 31.3411 45.871 31.3411C39.3148 31.3411 34 27.3673 34 22.4654C34 17.5635 38.982 13.8088 45.5382 13.8088C52.0944 13.8088 57.0764 17.5635 57.0764 22.4654Z" fill="#E2F3E6"/>
<path d="M68.0587 16.0415C66.7274 23.1639 57.3109 25.7938 51.3061 25.7938C45.3014 25.7938 41.0992 21.9722 41.0992 16.0415C41.5431 8.48058 47.3121 4.53582 54.3016 3.98797C61.2911 3.44012 69.0572 8.37103 68.0587 16.0415Z" fill="#0F9580"/>
<path d="M60.6215 17.1558C61.7183 17.3094 57.7368 21.553 54.5195 21.7581C51.3022 21.9631 48.2085 19.5304 48.9849 19.0819C49.3179 18.4346 50.5461 20.7723 53.9774 20.7723C57.4087 20.7723 60.387 16.5423 60.6215 17.1558Z" fill="white"/>
<path d="M57.9926 24.0782C57.8735 23.962 57.9119 23.7635 58.066 23.6989L63.3401 21.4877C63.4945 21.423 63.666 21.5341 63.6673 21.6997L63.7291 29.0489C63.7309 29.2521 63.4864 29.3594 63.3349 29.2222L62.4023 28.3779L57.9926 24.0782Z" fill="#0F9580"/>
</g>
</g>
<defs>
<clipPath id="clip0_6_164">
<rect width="180" height="40" fill="white"/>
</clipPath>
</defs>
</svg>
