<svg width="180" height="40" viewBox="0 0 180 40" fill="none" xmlns="http://www.w3.org/2000/svg">
<g clip-path="url(#clip0_6_442)">
<path d="M160 0H20C8.9543 0 0 8.9543 0 20C0 31.0457 8.9543 40 20 40H160C171.046 40 180 31.0457 180 20C180 8.9543 171.046 0 160 0Z" fill="white"/>
<mask id="mask0_6_442" style="mask-type:luminance" maskUnits="userSpaceOnUse" x="23" y="8" width="134" height="24">
<path d="M157 8.5H23V31.5H157V8.5Z" fill="white"/>
</mask>
<g mask="url(#mask0_6_442)">
<path d="M38.3703 25.5697V30.5383H24.0628V16.5139H38.3703V21.5627" stroke="#06456E" stroke-width="2.2501" stroke-miterlimit="10"/>
<path d="M31.1757 14.5103V9.54175H45.4832V23.5661H31.1757V18.5173" stroke="#4284B0" stroke-width="2.2501" stroke-miterlimit="10"/>
<path d="M63.1428 23.8866V25.1689H56.1934V13.7891H57.665V23.8866H63.1428ZM65.9225 25.1689H64.5326V17.0748H65.9225V25.1689ZM64.3691 14.7508C64.3691 14.5103 64.4509 14.2699 64.6144 14.1096C64.7779 13.9494 65.0232 13.8692 65.2685 13.8692C65.5137 13.8692 65.759 13.9494 65.9225 14.1096C66.086 14.2699 66.1678 14.5103 66.1678 14.7508C66.1678 14.9912 66.086 15.2316 65.9225 15.3919C65.759 15.5522 65.5137 15.6323 65.2685 15.6323C65.0232 15.6323 64.7779 15.5522 64.6144 15.3919C64.4509 15.1515 64.3691 14.9912 64.3691 14.7508ZM72.0543 16.9145C72.4631 16.9145 72.8719 16.9947 73.2807 17.1549C73.6894 17.3152 74.0165 17.5556 74.2617 17.8762C74.5888 18.1967 74.7523 18.5173 74.9976 18.9981C75.1611 19.3988 75.2428 19.8797 75.2428 20.4407V25.0887H73.853V20.4407C73.853 20.1201 73.7712 19.7995 73.6894 19.5591C73.6077 19.3187 73.4442 19.0783 73.2807 18.8379C73.1171 18.6776 72.8719 18.5173 72.6266 18.357C72.3813 18.2769 72.1361 18.1968 71.809 18.1968C71.155 18.1968 70.6644 18.4372 70.2556 18.8379C69.8469 19.2386 69.6833 19.7995 69.6833 20.4407V25.0887H68.2935V17.0748H69.2746L69.6833 17.9563C69.8469 17.7961 70.0921 17.6358 70.2556 17.4755C70.5009 17.3152 70.7462 17.2351 70.9915 17.1549C71.3185 16.9947 71.6455 16.9145 72.0543 16.9145ZM79.0037 25.1689H77.6138V13.7891H79.0037V25.1689ZM82.5192 25.1689L79.0037 20.9215L82.1104 17.0748H83.6638L80.557 20.8413L84.1544 25.1689H82.5192ZM92.0031 23.0051C91.8395 23.3257 91.676 23.5661 91.5125 23.8866C91.2672 24.1271 91.022 24.3675 90.7767 24.6079C90.5314 24.8483 90.2044 25.0086 89.7956 25.0887C89.4686 25.249 89.0598 25.249 88.5692 25.249C88.0787 25.249 87.5064 25.1689 87.0976 24.9285C86.6071 24.688 86.1983 24.4476 85.8713 24.0469C85.5442 23.6462 85.2172 23.2455 85.0537 22.7647C84.8902 22.2839 84.7267 21.7229 84.7267 21.0818C84.7267 20.4407 84.8084 19.8797 85.0537 19.3988C85.2172 18.918 85.5442 18.4372 85.8713 18.1166C86.1983 17.7159 86.6071 17.4755 87.0976 17.2351C87.5882 16.9947 88.0787 16.9145 88.5692 16.9145C89.0598 16.9145 89.5503 16.9947 89.9591 17.2351C90.3679 17.3954 90.7767 17.7159 91.1037 18.0365C91.4308 18.357 91.676 18.8379 91.9213 19.3187C92.0848 19.7995 92.2483 20.3605 92.2483 21.0016C92.2483 21.0818 92.2483 21.242 92.2483 21.3222C92.2483 21.4023 92.2483 21.4825 92.2483 21.5626C92.2483 21.6427 92.2483 21.7229 92.2483 21.803H86.3618C86.3618 22.1236 86.4436 22.364 86.6071 22.6846C86.7706 22.925 86.9341 23.1654 87.0976 23.4058C87.3429 23.6462 87.5882 23.8065 87.8334 23.8866C88.0787 24.0469 88.4057 24.0469 88.7328 24.0469C88.978 24.0469 89.2233 24.0469 89.3868 23.9668C89.5503 23.8866 89.7956 23.8065 89.9591 23.7264C90.1226 23.6462 90.2862 23.5661 90.3679 23.4058C90.4497 23.3257 90.5314 23.1654 90.6132 23.0853L92.0031 23.0051ZM88.4875 18.1968C88.2422 18.1968 87.9152 18.2769 87.6699 18.357C87.4246 18.4372 87.1794 18.5974 87.0159 18.8379C86.7706 19.0783 86.6071 19.3187 86.5253 19.5591C86.3618 19.8797 86.28 20.2002 86.28 20.5208H90.7767C90.6949 19.7995 90.4497 19.2386 90.0409 18.8379C89.5503 18.4372 89.0598 18.1968 88.4875 18.1968ZM100.015 21.0818C100.015 20.6811 99.9335 20.2804 99.77 19.8797C99.6065 19.5591 99.4429 19.2386 99.1977 18.9981C98.9524 18.7577 98.7071 18.5173 98.3801 18.4372C98.0531 18.2769 97.7261 18.1968 97.399 18.1968C97.072 18.1968 96.745 18.2769 96.4179 18.4372C96.0909 18.5974 95.8456 18.7577 95.6004 18.9981C95.3551 19.2386 95.1916 19.5591 95.0281 19.8797C94.8645 20.2002 94.7828 20.6009 94.7828 21.0818C94.7828 21.4825 94.8645 21.8832 95.0281 22.2839C95.1916 22.6044 95.3551 22.925 95.6004 23.1654C95.8456 23.4058 96.0909 23.6462 96.4179 23.7264C96.745 23.8866 97.072 23.9668 97.399 23.9668C97.7261 23.9668 98.0531 23.8866 98.3801 23.7264C98.7071 23.5661 98.9524 23.4058 99.1977 23.1654C99.4429 22.925 99.6065 22.6044 99.77 22.2839C99.9335 21.9633 100.015 21.5626 100.015 21.0818ZM99.8517 24.2873C99.6882 24.4476 99.4429 24.688 99.1977 24.7682C98.9524 24.9285 98.7071 25.0086 98.3801 25.0887C98.0531 25.1689 97.7261 25.249 97.3173 25.249C96.8267 25.249 96.2544 25.1689 95.8456 24.9285C95.3551 24.688 94.9463 24.4476 94.6193 24.0469C94.2922 23.6462 93.9652 23.2455 93.8017 22.7647C93.6382 22.2839 93.4747 21.7229 93.4747 21.0818C93.4747 20.4407 93.5564 19.8797 93.8017 19.3988C93.9652 18.918 94.2922 18.4372 94.6193 18.1166C94.9463 17.7159 95.3551 17.4755 95.8456 17.2351C96.3362 16.9947 96.8267 16.9145 97.3173 16.9145C97.7261 16.9145 98.1348 16.9947 98.3801 17.0748C98.7071 17.1549 98.9524 17.3152 99.1159 17.4755C99.3612 17.6358 99.5247 17.7961 99.77 18.0365V13.7891H101.16V25.1689H100.179L99.8517 24.2873Z" fill="#06456E"/>
<path d="M110.725 13.7891V25.1689H109.254V20.04H103.613V25.1689H102.141V13.7891H103.613V18.7577H109.254V13.7891H110.725ZM120.046 23.0051C119.882 23.3257 119.719 23.5661 119.555 23.8866C119.31 24.1271 119.065 24.3675 118.819 24.6079C118.574 24.8483 118.247 25.0086 117.838 25.0887C117.511 25.249 117.102 25.249 116.612 25.249C116.121 25.249 115.549 25.1689 115.14 24.9285C114.65 24.688 114.241 24.4476 113.914 24.0469C113.587 23.6462 113.26 23.2455 113.096 22.7647C112.933 22.2839 112.769 21.7229 112.769 21.0818C112.769 20.4407 112.851 19.8797 113.096 19.3988C113.26 18.918 113.587 18.4372 113.914 18.1166C114.241 17.7159 114.65 17.4755 115.14 17.2351C115.631 16.9947 116.121 16.9145 116.612 16.9145C117.102 16.9145 117.593 16.9947 118.002 17.2351C118.411 17.3954 118.819 17.7159 119.146 18.0365C119.473 18.357 119.719 18.8379 119.964 19.3187C120.128 19.7995 120.291 20.3605 120.291 21.0016C120.291 21.0818 120.291 21.242 120.291 21.3222C120.291 21.4023 120.291 21.4825 120.291 21.5626C120.291 21.6427 120.291 21.7229 120.291 21.803H114.405C114.405 22.1236 114.486 22.364 114.65 22.6846C114.813 22.925 114.977 23.1654 115.14 23.4058C115.386 23.6462 115.631 23.8065 115.876 23.8866C116.121 24.0469 116.448 24.0469 116.775 24.0469C117.021 24.0469 117.266 24.0469 117.43 23.9668C117.593 23.8866 117.838 23.8065 118.002 23.7264C118.165 23.6462 118.329 23.5661 118.411 23.4058C118.492 23.3257 118.574 23.1654 118.656 23.0853L120.046 23.0051ZM116.612 18.1968C116.367 18.1968 116.04 18.2769 115.794 18.357C115.549 18.4372 115.304 18.5974 115.14 18.8379C114.895 19.0783 114.732 19.3187 114.65 19.5591C114.486 19.8797 114.405 20.2002 114.405 20.5208H118.901C118.819 19.7995 118.574 19.2386 118.165 18.8379C117.593 18.4372 117.102 18.1968 116.612 18.1968ZM123.561 25.1689H122.171V13.7891H123.561V25.1689ZM127.24 21.0818C127.24 21.4825 127.322 21.8832 127.486 22.2839C127.649 22.6044 127.813 22.925 128.058 23.1654C128.303 23.4058 128.548 23.6462 128.876 23.7264C129.203 23.8866 129.53 23.9668 129.857 23.9668C130.184 23.9668 130.511 23.8866 130.838 23.7264C131.165 23.5661 131.41 23.4058 131.655 23.1654C131.901 22.925 132.064 22.6044 132.228 22.2839C132.391 21.9633 132.473 21.5626 132.473 21.0818C132.473 20.6811 132.391 20.2804 132.228 19.8797C132.064 19.5591 131.901 19.2386 131.655 18.9981C131.41 18.7577 131.165 18.5173 130.838 18.4372C130.511 18.2769 130.184 18.1968 129.857 18.1968C129.53 18.1968 129.203 18.2769 128.876 18.4372C128.548 18.5974 128.303 18.7577 128.058 18.9981C127.813 19.2386 127.649 19.5591 127.486 19.8797C127.322 20.2804 127.24 20.6811 127.24 21.0818ZM127.404 17.9563C127.567 17.7961 127.813 17.6358 128.058 17.4755C128.303 17.3152 128.548 17.2351 128.876 17.1549C129.203 17.0748 129.53 16.9947 129.938 16.9947C130.429 16.9947 131.001 17.0748 131.41 17.3152C131.901 17.5556 132.309 17.7961 132.636 18.1968C132.963 18.5974 133.29 18.9981 133.454 19.479C133.617 19.9598 133.781 20.5208 133.781 21.1619C133.781 21.803 133.699 22.364 133.454 22.8448C133.29 23.3257 132.963 23.8065 132.636 24.1271C132.309 24.5278 131.901 24.7682 131.41 25.0086C130.919 25.249 130.429 25.3292 129.938 25.3292C129.53 25.3292 129.121 25.249 128.876 25.1689C128.548 25.0887 128.303 24.9285 128.14 24.7682C127.894 24.6079 127.649 24.4476 127.486 24.2072V28.0539H126.014V17.0748H126.995L127.404 17.9563ZM142.284 23.0051C142.12 23.3257 141.957 23.5661 141.793 23.8866C141.548 24.1271 141.303 24.3675 141.057 24.6079C140.812 24.8483 140.485 25.0086 140.076 25.0887C139.749 25.249 139.34 25.249 138.85 25.249C138.359 25.249 137.787 25.1689 137.378 24.9285C136.888 24.688 136.479 24.4476 136.152 24.0469C135.825 23.6462 135.498 23.2455 135.334 22.7647C135.171 22.2839 135.007 21.7229 135.007 21.0818C135.007 20.4407 135.089 19.8797 135.334 19.3988C135.498 18.918 135.825 18.4372 136.152 18.1166C136.479 17.7159 136.888 17.4755 137.378 17.2351C137.869 16.9947 138.359 16.9145 138.85 16.9145C139.34 16.9145 139.831 16.9947 140.24 17.2351C140.649 17.3954 141.057 17.7159 141.384 18.0365C141.711 18.357 141.957 18.8379 142.202 19.3187C142.365 19.7995 142.529 20.3605 142.529 21.0016C142.529 21.0818 142.529 21.242 142.529 21.3222C142.529 21.4023 142.529 21.4825 142.529 21.5626C142.529 21.6427 142.529 21.7229 142.529 21.803H136.642C136.642 22.1236 136.724 22.364 136.888 22.6846C137.051 22.925 137.215 23.1654 137.378 23.4058C137.624 23.6462 137.869 23.8065 138.114 23.8866C138.359 24.0469 138.686 24.0469 139.013 24.0469C139.259 24.0469 139.504 24.0469 139.667 23.9668C139.831 23.8866 140.076 23.8065 140.24 23.7264C140.403 23.6462 140.567 23.5661 140.649 23.4058C140.73 23.3257 140.812 23.1654 140.894 23.0853L142.284 23.0051ZM138.85 18.1968C138.605 18.1968 138.278 18.2769 138.032 18.357C137.787 18.4372 137.542 18.5974 137.378 18.8379C137.133 19.0783 136.969 19.3187 136.888 19.5591C136.806 19.7995 136.642 20.2002 136.642 20.5208H141.139C141.057 19.7995 140.812 19.2386 140.403 18.8379C139.831 18.4372 139.34 18.1968 138.85 18.1968ZM148.252 18.2769H147.843C147.189 18.2769 146.699 18.5173 146.29 18.918C145.881 19.3187 145.718 19.8797 145.718 20.5208V25.0887H144.328V17.0748H145.309L145.718 17.9563C145.881 17.7961 146.126 17.6358 146.29 17.4755C146.535 17.3152 146.78 17.2351 147.026 17.1549C147.353 17.0748 147.68 16.9947 148.088 16.9947H148.252V18.2769Z" fill="#4284B0"/>
<path d="M157 17.7159V19.7194H151.359V18.357L153.975 15.6323C154.057 15.5522 154.22 15.3919 154.302 15.3117C154.384 15.2316 154.466 15.0713 154.547 14.9912C154.629 14.8309 154.629 14.7508 154.629 14.5905C154.629 14.4302 154.547 14.2699 154.466 14.1898C154.384 14.1096 154.22 14.0295 154.057 14.0295C153.811 14.0295 153.648 14.1096 153.566 14.2699C153.403 14.4302 153.321 14.5905 153.321 14.8309L151.195 14.6706C151.195 14.2699 151.277 13.9494 151.441 13.6288C151.604 13.3083 151.768 13.0678 152.013 12.8274C152.258 12.587 152.585 12.4267 152.912 12.2664C153.239 12.1062 153.648 12.1062 154.057 12.1062C154.466 12.1062 154.874 12.1863 155.283 12.2664C155.61 12.3466 155.937 12.587 156.182 12.7473C156.428 12.9877 156.591 13.2281 156.755 13.4685C156.918 13.7891 156.918 14.0295 156.918 14.3501C156.918 14.6706 156.836 14.911 156.755 15.2316C156.591 15.472 156.509 15.7124 156.346 15.9529C156.182 16.1933 155.937 16.4337 155.692 16.6741L154.711 17.7159H157Z" fill="#FBA02F"/>
</g>
</g>
<defs>
<clipPath id="clip0_6_442">
<rect width="180" height="40" fill="white"/>
</clipPath>
</defs>
</svg>
