<svg width="180" height="40" viewBox="0 0 180 40" fill="none" xmlns="http://www.w3.org/2000/svg">
<g clip-path="url(#clip0_6_522)">
<path d="M160 0H20C8.9543 0 0 8.9543 0 20C0 31.0457 8.9543 40 20 40H160C171.046 40 180 31.0457 180 20C180 8.9543 171.046 0 160 0Z" fill="white"/>
<mask id="mask0_6_522" style="mask-type:luminance" maskUnits="userSpaceOnUse" x="29" y="7" width="122" height="26">
<path d="M150.5 7H29.5V33H150.5V7Z" fill="white"/>
</mask>
<g mask="url(#mask0_6_522)">
<path d="M90 7.00854C110.022 7.00854 130.043 7.00569 150.065 7C150.42 7 150.5 7.07971 150.499 7.43365C150.488 15.8264 150.488 24.2195 150.499 32.6128C150.499 32.9364 150.435 33 150.111 33C110.036 32.9905 69.9606 32.9905 29.8857 33C29.5624 33 29.4981 32.9364 29.4991 32.6128C29.5104 24.2043 29.5104 15.7957 29.4991 7.38715C29.4991 7.06357 29.5624 7 29.8857 7C49.9244 7.00949 69.9625 7.01233 90 7.00854Z" fill="#FEFEFE"/>
<path d="M35.2673 18.0499C35.0877 18.2776 34.9078 18.5048 34.7276 18.7312C34.5848 18.8128 34.5858 18.9779 34.513 19.1004C34.3305 19.367 34.1736 19.645 34.1471 19.9771C33.9401 20.8631 33.9401 21.7851 34.1471 22.6711C34.1972 22.8381 34.1869 23.026 34.322 23.1626C34.4459 23.7927 34.9837 24.1552 35.2938 24.6638C35.2938 24.7729 35.0688 24.845 35.2201 24.9646C35.3373 25.0595 35.3657 24.8431 35.4706 24.8403C36.5766 25.7731 37.8339 26.2399 39.2944 26.1023C39.802 26.0539 40.2728 25.886 40.7492 25.7332C40.9232 25.8755 40.9732 25.7436 41.0233 25.6098C41.2549 25.5985 41.4015 25.8803 41.6539 25.7996C41.8146 25.9372 41.8136 26.1308 41.8259 26.3168C41.8401 26.5303 41.9573 26.6261 42.1606 26.6195C42.3638 26.6128 42.5661 26.6698 42.6795 26.4164C43.1966 25.2549 43.6948 25.1828 44.5314 26.127C44.6051 26.2712 44.4964 26.3595 44.4284 26.4601L44.4217 26.4658C44.3177 26.5437 44.2245 26.6353 44.1448 26.7381C43.403 27.5342 42.4731 28.1295 41.4412 28.4689C41.2857 28.5038 41.1276 28.5257 40.9685 28.5344C40.9269 28.5201 40.8806 28.5106 40.8617 28.4603C40.8428 28.4841 40.8759 28.4993 40.8702 28.523C40.8106 28.7346 40.5866 28.6406 40.4675 28.7479C39.2249 29.0785 37.9137 29.0426 36.691 28.6444C36.38 28.4822 36.0661 28.3285 35.7126 28.2801C35.6654 28.2824 35.6184 28.2734 35.5753 28.254C35.5323 28.2345 35.4944 28.2051 35.4649 28.1681C35.3817 27.8692 35.3817 27.8692 34.9677 27.8986C33.8573 27.2996 32.9426 26.392 32.3331 25.2844C32.2783 25.1591 32.3444 25.0452 32.3567 24.9247C32.3879 24.6306 32.2385 24.6505 32.0552 24.79C31.8628 24.5086 31.7314 24.1899 31.6695 23.8544C31.6982 23.6759 31.6576 23.4932 31.5561 23.3439C31.5361 23.3002 31.5333 23.2505 31.5484 23.2049C31.5635 23.1593 31.5953 23.1211 31.6373 23.0981C31.6855 23.0601 31.6241 23.1199 31.6714 23.0782C31.6546 23.0793 31.638 23.0829 31.6222 23.0886C31.2989 22.9187 31.5579 22.5193 31.3103 22.3152C31.0267 20.2979 31.5636 18.4959 32.7443 16.8666C32.9551 16.5763 33.1659 16.2802 33.4703 16.0743C33.7255 16.3039 33.5138 16.5487 33.5024 16.7888C33.6265 16.707 33.7642 16.6482 33.9089 16.6152C34.0913 16.5745 34.2621 16.4929 34.4085 16.3763C34.5549 16.2598 34.6731 16.1114 34.754 15.9424C35.0764 15.3104 35.6587 14.8891 36.1209 14.371C36.1522 14.3348 36.1921 14.3072 36.2369 14.2906C36.2817 14.274 36.3299 14.269 36.3771 14.2761C36.6995 14.334 37.0133 14.427 37.3319 14.501C37.4243 14.5246 37.5059 14.5793 37.563 14.656C37.6201 14.7326 37.6493 14.8267 37.6457 14.9223C37.6558 15.0164 37.634 15.1112 37.5839 15.1913C37.5339 15.2715 37.4584 15.3325 37.3697 15.3645C37.2412 15.4205 37.1183 15.485 36.9831 15.5287C36.5104 15.6824 36.4471 15.9006 36.7269 16.321C36.8413 16.4928 37.1211 16.5563 37.0682 16.8372L36.69 17.0109C36.4754 16.9976 36.2684 17.0649 36.0567 17.0754C36.0321 17.119 35.912 16.9805 35.9555 17.1152C36.0103 17.2813 36.0094 17.4047 35.8459 17.4948L35.7343 17.5897C35.5569 17.7191 35.3995 17.8742 35.2673 18.0499Z" fill="#1FABE2"/>
<path d="M61.0413 22.4813C61.2351 21.4081 61.1736 20.3614 60.7142 19.3585C60.0638 17.9351 58.9266 17.0963 57.4633 16.6484C57.3782 16.5801 57.572 16.4425 57.4 16.3941C57.3517 16.4055 57.4 16.4444 57.3792 16.4652C57.2752 16.6199 57.1372 16.6237 56.9831 16.5601V16.5649C56.8791 16.4102 56.7278 16.4501 56.5756 16.4491C56.4461 16.4491 56.2504 16.5279 56.2344 16.2802L57.7072 15.021C57.9029 15.0694 58.125 15.189 58.1798 14.8474C58.1193 14.6025 58.3112 14.4545 58.401 14.2666C58.938 14.3217 59.456 14.4365 59.9135 14.7477C59.9759 14.7904 60.0421 14.8274 60.1026 14.8663C60.2104 14.9707 59.922 14.9394 60.043 15.0239C60.1376 15.0893 60.251 15.3161 60.3777 15.0457C61.5858 15.7175 62.4489 16.7082 63.0529 17.9398C63.0104 18.1998 63.1597 18.3706 63.3261 18.5329C64.3905 20.9555 64.0408 24.2045 61.9081 26.5037C61.4355 27.0123 60.9231 27.4725 60.3011 27.798C60.2404 27.7833 60.1764 27.7927 60.1223 27.8241C60.0683 27.8556 60.0284 27.9067 60.0109 27.9669C58.2155 28.9829 56.3248 29.2103 54.339 28.6492C54.3012 28.486 54.2918 28.3417 54.15 28.1899C53.839 27.8587 54.218 27.2951 54.7172 27.0085C55.7646 26.4031 56.8829 26.6906 57.9728 26.6233C58.4918 26.592 58.5485 26.554 58.5911 26.0274C58.4965 25.8917 58.2829 25.9495 58.194 25.7987C59.4135 25.2103 60.3115 24.3108 60.8551 23.0649C61.2256 22.969 60.9657 22.672 61.0413 22.4813Z" fill="#1FABE2"/>
<path d="M53.3134 21.3826C53.3132 21.3978 53.3099 21.4128 53.3035 21.4265C53.2971 21.4403 53.2879 21.4525 53.2765 21.4624C52.8832 21.7983 52.8832 21.7983 52.7311 21.3732C52.5637 20.7763 52.3661 20.1861 52.2385 19.5807C52.144 19.1508 52.0145 19.0597 51.6893 19.3795C51.488 19.3529 51.2696 19.2448 51.1637 19.5494C51.1278 19.6537 51.0077 19.6224 50.917 19.5864C50.5502 19.3016 50.2118 18.982 49.9064 18.6318C49.8526 18.5369 49.7675 18.4553 49.777 18.3471C49.7996 18.0757 49.6824 17.9191 49.4253 17.8461C49.406 17.8441 49.3876 17.8375 49.3715 17.8268C49.3554 17.8162 49.3421 17.8017 49.3328 17.7847C49.3235 17.7677 49.3184 17.7487 49.3181 17.7293C49.3177 17.7099 49.3221 17.6907 49.3307 17.6734L49.8176 16.9626L48.3996 16.6286C48.5887 16.2823 48.9725 16.5091 49.2381 16.344C49.2315 16.176 49.0698 16.1134 48.963 16.0109C48.79 15.8515 48.4062 16.0109 48.3713 15.7205C48.3316 15.3789 48.7031 15.414 48.9139 15.3125C49.0944 15.2252 49.1152 15.0857 49.0623 14.9187C49.0094 14.7517 48.9129 14.5686 48.9753 14.3702C49.0024 14.296 49.0541 14.2333 49.1218 14.1928C49.1894 14.1522 49.2688 14.1361 49.3468 14.1472C49.8582 14.1662 50.3715 14.1036 50.882 14.1814C51.0058 14.1682 51.1307 14.1682 51.2545 14.1814C51.7697 14.2829 52.162 14.1615 52.3529 13.6282C52.4976 13.4898 52.6682 13.3816 52.8548 13.3097C53.0413 13.2379 53.2403 13.2039 53.44 13.2097C53.7482 13.2173 54.0072 13.2391 54.1282 13.5959C54.3078 13.4489 54.2001 13.2249 54.3447 13.1215C54.8173 12.9611 55.29 13.0266 55.7627 13.0987C56.0462 13.1414 56.3138 13.1509 56.5785 13.0332C56.625 13.0249 56.6729 13.0293 56.7172 13.046C56.7614 13.0627 56.8004 13.0911 56.8299 13.1281C56.9944 13.6975 56.9188 14.2583 56.811 14.8361C57.0766 14.7745 57.2345 14.4518 57.5474 14.5761C56.828 15.3969 55.9612 16.0346 55.0253 16.5793C54.7786 16.7235 54.7171 16.8744 54.7521 17.1429C54.8353 17.7787 54.8599 18.424 54.9658 19.055C55.0489 19.5513 54.9658 19.9413 54.547 20.2421C54.4007 20.3599 54.2618 20.4866 54.131 20.6216C53.855 20.8588 53.5922 21.1302 53.3134 21.3826Z" fill="#176E95"/>
<path d="M74.2142 20.038C74.4033 20.1224 74.5763 20.2173 74.6529 20.4261C74.7134 20.781 74.7824 21.1359 74.5583 21.4642C74.4335 21.5183 74.3797 21.6976 74.2048 21.6616C72.9976 21.746 71.7886 21.6834 70.5795 21.6967C69.5983 21.7081 69.5983 21.6967 69.5983 22.6778C69.5983 23.5594 69.5983 23.5546 70.4878 23.548C71.8557 23.5366 73.2236 23.548 74.5914 23.548C74.9563 23.548 75.2881 23.5983 75.4063 24.0224C75.4148 24.179 75.4308 24.3356 75.429 24.4921C75.4233 25.0159 75.2522 25.2143 74.7285 25.2171C72.4976 25.2253 70.2669 25.2253 68.0366 25.2171C67.6197 25.2171 67.3437 25.0416 67.3456 24.5719C67.3544 22.1528 67.3613 19.7334 67.3664 17.3137C67.8598 17.0983 68.1359 17.2017 68.5395 17.7492C68.6218 17.8612 68.6492 18.0225 68.7985 18.0719C69.0897 18.1667 69.2863 18.0576 69.3865 17.7729C69.5359 17.3497 69.8261 17.1799 70.2808 17.1647C70.8102 17.1486 71.2431 17.271 71.5352 17.734C71.7158 18.0187 71.6071 18.2085 71.262 18.2085C70.8073 18.218 70.3526 18.2085 69.8979 18.2085C69.7807 18.2085 69.6002 18.1705 69.6096 18.3546C69.638 18.9183 69.4858 19.4933 69.6956 20.0456C70.3294 19.9981 70.9658 19.9981 71.5995 20.0456C72.4699 19.9833 73.3435 19.9807 74.2142 20.038Z" fill="#1FABE2"/>
<path d="M93.9127 17.3069C95.0414 18.1818 95.0726 19.4144 94.91 20.6489C94.6963 22.2716 93.6206 23.1673 91.8793 23.2451C90.8744 23.2907 89.8658 23.2784 88.859 23.2603C88.5036 23.2537 88.3722 23.3552 88.4119 23.712C88.4286 23.9476 88.4302 24.1841 88.4166 24.4199C88.4072 24.9978 88.2276 25.2008 87.6604 25.2113C86.1119 25.2378 86.0855 25.2435 86.0997 23.7092C86.1186 21.632 86.0997 19.553 86.0997 17.4749C86.0997 16.6635 86.2263 16.5316 87.0157 16.5259C88.4336 16.5259 89.8516 16.5203 91.2696 16.5259C91.6278 16.5259 91.9937 16.4851 92.3406 16.6275C92.1695 16.8173 91.9389 16.7765 91.7252 16.7765C90.4878 16.7812 89.2504 16.7765 88.013 16.7831C87.8655 16.7831 87.6443 16.6825 87.6093 16.9615C87.5602 17.3648 87.7445 17.5214 88.1406 17.5527C88.6369 17.5925 88.7304 17.7776 88.5385 18.2454C88.431 18.507 88.3779 18.7879 88.3826 19.0709C88.3901 19.6991 88.3703 20.3282 88.3911 20.9564C88.4062 21.4213 88.5055 21.5257 88.9517 21.5115C89.6871 21.4906 90.4254 21.5922 91.1561 21.4489C91.2567 21.4044 91.3607 21.3682 91.4671 21.3407C92.2394 21.1215 92.5486 20.7192 92.5646 19.9173C92.5694 19.7276 92.5599 19.5378 92.5646 19.3527C92.5098 18.8441 92.696 18.3725 92.7981 17.8905C92.8832 17.4739 93.3455 17.2576 93.9127 17.3069Z" fill="#1FABE2"/>
<path d="M97.6731 17.4873C97.7994 17.3158 97.9759 17.1881 98.1779 17.122C98.4228 17.0271 98.4766 17.2074 98.5059 17.3716C98.5352 17.5357 98.54 17.6562 98.7508 17.5946C98.988 17.5215 99.3104 17.6676 99.4427 17.3327C99.5042 17.177 99.4125 17.1097 99.2745 17.0622C99.1365 17.0148 98.9115 17.0736 98.9134 16.8146C99.282 16.6077 99.698 16.5764 100.098 16.5659C101.416 16.5327 102.734 16.5403 104.053 16.5337C104.176 16.5337 104.307 16.528 104.392 16.6494C104.17 16.9929 103.809 16.8392 103.527 16.8392C102.364 16.8506 101.199 16.8307 100.035 16.8392C100.275 16.8259 100.515 16.8392 100.754 16.8297C101.883 16.806 103.01 16.881 104.139 16.8297C104.294 16.8221 104.456 16.7937 104.582 16.9246C104.588 16.9797 104.593 17.0356 104.598 17.0907C104.688 17.4702 104.635 17.8128 104.365 18.0984C104.198 18.2759 104.169 18.4837 104.168 18.7076C104.168 19.3054 104.168 19.9032 104.168 20.501C104.168 21.505 103.971 21.6748 102.953 21.5686C102.684 21.4964 102.644 21.2924 102.66 21.0552C102.685 20.7263 102.604 20.3978 102.427 20.1196C102.11 19.5977 102.271 18.5833 102.696 18.2028C102.77 18.1354 102.847 18.0832 102.768 17.976C102.704 17.8868 102.597 17.8451 102.53 17.9314C102.14 18.4324 101.585 18.2417 101.092 18.2806C100.814 18.3015 100.525 18.2265 100.259 18.3489C99.6072 18.5899 99.2452 19.0549 99.0599 19.7267C98.9549 20.1063 99.0192 20.5893 98.5872 20.8408C98.4693 20.8434 98.3513 20.84 98.2337 20.8303C98.0314 20.8351 97.8272 20.8085 97.6277 20.8569C97.5152 20.8854 97.4131 20.9518 97.433 21.0799C97.4529 21.208 97.5701 21.1748 97.6589 21.1928C98.1448 21.2995 98.641 21.351 99.1383 21.3465C99.6706 21.356 100.35 22.1825 100.238 22.638C99.6705 22.7518 99.1166 22.8448 98.5815 22.4615C98.0871 22.1066 97.4651 22.2764 97.1494 22.8069C97.0193 23.0425 96.803 23.218 96.5463 23.2965C96.4716 23.3193 96.3903 23.3629 96.4026 23.455C96.4149 23.547 96.5038 23.5622 96.5813 23.5783C96.6586 23.5894 96.7366 23.5948 96.8148 23.5945C97.6419 23.6315 97.7223 23.733 97.6117 24.6013C97.6102 24.721 97.5691 24.8368 97.4948 24.9304C97.4205 25.024 97.3173 25.0902 97.2014 25.1184C96.6682 25.2807 96.1152 25.2399 95.5736 25.1621C95.341 25.1289 95.2361 24.9182 95.2947 24.6943C95.619 23.4559 95.9564 22.2214 96.2892 20.985C96.3553 20.8483 96.361 20.6643 96.5066 20.5893C96.7155 20.483 96.7155 20.3046 96.7259 20.1148C96.7458 19.7296 96.8072 19.3472 96.8346 18.9629C96.9012 18.416 97.1713 17.9147 97.5909 17.5594C97.658 17.5832 97.7147 17.587 97.6731 17.4873Z" fill="#1EACE2"/>
<path d="M139.655 23.6285C138.821 22.2706 138.837 20.8046 139.14 19.3167C139.414 17.9711 140.259 17.1133 141.547 16.6768C141.622 16.6571 141.698 16.6431 141.776 16.6351C142.041 16.6046 142.303 16.5461 142.557 16.4605L142.718 16.4463C143.488 16.3851 144.261 16.3851 145.03 16.4463C145.042 16.4396 145.056 16.4367 145.07 16.4379C145.083 16.4391 145.096 16.4443 145.107 16.4529C145.114 16.4629 145.12 16.4743 145.123 16.4864C145.126 16.4985 145.126 16.5111 145.125 16.5235C145.123 16.5358 145.118 16.5476 145.112 16.5583C145.106 16.569 145.097 16.5783 145.087 16.5857C144.635 16.767 144.162 16.6341 143.701 16.6806C143.537 16.6987 143.313 16.5857 143.229 16.8457C143.082 17.2253 142.969 17.2851 142.669 17.0782C142.454 16.9292 142.196 16.7414 141.993 16.9226C141.77 17.1181 141.97 17.4094 142.031 17.6618C142.104 17.9588 142.379 17.9958 142.569 18.1429C142.576 18.1901 142.567 18.2383 142.545 18.2803C142.522 18.3224 142.487 18.356 142.444 18.3763C141.404 19.0975 141.334 20.1707 141.404 21.2828C141.44 21.8692 141.572 22.4367 141.971 22.9017C142.649 23.6892 143.552 23.6323 144.456 23.5611C144.674 23.5431 144.884 23.4539 145.107 23.4757C145.149 23.4878 145.185 23.5152 145.208 23.5526C145.221 23.5213 145.177 23.5137 145.181 23.4824C145.22 23.3875 145.289 23.3082 145.377 23.2567C145.466 23.2052 145.569 23.1845 145.67 23.1977C145.954 23.3524 146.161 23.6029 146.447 23.7671C146.778 23.9616 147.014 23.9568 147.284 23.7225C147.523 23.5146 147.732 23.5156 147.878 23.8325C147.721 24.1135 147.484 24.3408 147.197 24.4854C147.164 24.5088 147.124 24.5217 147.084 24.5224C146.94 24.5328 146.778 24.437 146.66 24.5964C146.635 24.6902 146.588 24.7765 146.522 24.8479C145.813 25.2768 145.016 25.328 144.221 25.3669C143.133 25.4201 142.063 25.3223 141.061 24.8498C140.564 24.6154 140.107 24.3165 139.81 23.8287C139.73 23.7908 139.896 23.5574 139.655 23.6285Z" fill="#1FABE2"/>
<path d="M124.716 17.2881C125.514 17.7256 125.945 18.4391 126.157 19.2893C126.417 20.2991 126.423 21.3576 126.176 22.3704C125.793 23.9637 124.511 24.9837 122.842 25.0625C122.107 25.128 121.368 25.1251 120.632 25.165C120.453 24.682 120.672 24.142 121.178 24.0348C121.556 23.9551 121.778 23.7312 122.029 23.5015C122.182 23.4233 122.359 23.406 122.524 23.4531C122.647 23.4987 122.732 23.6553 122.896 23.5793C123.11 23.5215 122.959 23.3649 122.982 23.2558C123.034 23.1368 123.129 23.0422 123.249 22.991C123.404 22.9379 123.47 22.8079 123.526 22.6684C124.039 21.6948 124.02 20.6757 123.776 19.6442C123.656 19.1385 123.284 18.8196 122.861 18.5549C122.661 18.3404 122.388 18.385 122.137 18.3547C122.087 18.3494 122.038 18.3402 121.99 18.3272C121.252 18.274 120.516 18.2323 119.782 18.348C119.746 18.3831 119.714 18.4223 119.688 18.4647C119.593 19.1556 119.654 19.8464 119.651 20.5362C119.646 21.3684 119.618 22.2015 119.671 23.0328C119.693 23.1267 119.711 23.2217 119.723 23.3174C119.734 23.3787 119.757 23.4373 119.79 23.4902C119.884 23.6183 120.029 23.6239 120.168 23.6458C120.406 23.679 120.708 23.6277 120.728 23.9874C120.747 24.3157 120.482 24.441 120.237 24.5339C119.88 24.6706 119.455 24.4391 119.415 24.0652C119.368 23.623 118.983 23.9627 118.84 23.7805C118.615 23.5983 118.703 23.3801 118.767 23.1647C118.884 22.9493 119.05 22.7576 119.069 22.4947C119.119 21.9159 118.975 21.6844 118.375 21.3912C118.637 21.0429 118.659 20.6453 118.608 20.2335C118.986 19.8796 119.144 19.4744 119.033 18.9383C118.968 18.6223 118.824 18.5255 118.545 18.4923C118.356 18.4695 118.139 18.6109 117.977 18.4021C118.008 18.2361 118.137 18.1829 118.276 18.1393C118.366 18.1118 118.488 18.1023 118.526 18.0207C118.849 17.3242 119.45 17.512 119.956 17.6297C120.725 17.8072 121.487 17.7483 122.251 17.7123C122.731 17.6885 122.818 17.4836 122.758 17.0015C122.703 16.584 123.009 16.7169 123.231 16.7349C123.585 16.7587 123.93 16.8636 124.238 17.0414C124.418 17.2407 123.985 17.4314 124.186 17.551C124.388 17.6705 124.498 17.3071 124.716 17.2881Z" fill="#1FACE2"/>
<path d="M110.014 17.6752C110.545 18.4112 111.036 19.1756 111.485 19.9649C111.58 20.1366 111.476 20.1755 111.336 20.1907C110.95 19.982 110.784 20.3074 110.637 20.5314C110.599 20.5823 110.572 20.6403 110.557 20.702C110.542 20.7638 110.539 20.8279 110.549 20.8907C110.559 20.9534 110.582 21.0135 110.615 21.0673C110.649 21.1212 110.693 21.1677 110.745 21.2041C110.829 21.2706 110.934 21.318 110.94 21.449C110.621 21.6236 110.621 21.6236 110.45 22.1132L108.779 19.6071C108.611 19.721 108.684 19.8747 108.684 19.999C108.677 21.4604 108.684 22.9207 108.679 24.382C108.679 25.0529 108.524 25.2019 107.841 25.2095C107.606 25.2095 107.368 25.218 107.135 25.2095C106.901 25.2009 106.662 25.1459 106.568 24.8764C106.494 24.7445 106.528 24.6003 106.528 24.4617C106.528 22.1559 106.528 19.8504 106.528 17.5452C106.528 16.9198 106.609 16.8506 107.229 16.8306C107.541 16.8212 107.852 16.9179 108.136 16.842C107.765 16.8838 107.369 16.8183 106.971 16.8249C106.862 16.8249 106.748 16.7936 106.755 16.6399C107.467 16.545 108.181 16.6171 108.894 16.6048C109.052 16.6048 109.257 16.6722 109.285 16.8107C109.373 17.2463 109.762 17.3971 110.014 17.6752Z" fill="#1FABE2"/>
<path d="M82.2021 21.2781C82.9158 22.0864 83.5863 22.9321 84.2109 23.8116L84.1816 23.8629C84.1546 23.8907 84.134 23.9242 84.1212 23.9609C84.1085 23.9977 84.1039 24.0368 84.1079 24.0754C84.1911 24.2481 84.3801 24.1001 84.486 24.2016L84.6647 24.4104C85.0059 24.9978 84.8972 25.197 84.2251 25.1933C83.898 25.1933 83.569 25.2236 83.2429 25.161L83.1531 25.1487C82.861 25.0538 82.6578 24.8241 82.3969 24.6742C82.2364 24.5471 82.1071 24.3848 82.0187 24.1997C81.9072 24.0318 81.8599 23.8468 81.9951 23.6826C82.118 23.5346 82.2409 23.75 82.4252 23.7139C82.0348 23.303 81.5338 23.1692 81.063 22.9823C80.9438 22.8661 80.8356 22.739 80.7397 22.6027C80.5563 22.2887 80.3881 22.357 80.2075 22.5933C79.7717 22.2213 79.2036 22.3703 78.7101 22.2241C78.6156 22.1976 78.54 22.1909 78.488 22.1074C78.4663 21.9176 78.3538 21.7279 78.5173 21.5457C79.0987 20.7154 79.0987 20.7154 78.4663 19.9135C77.7661 19.0279 77.0662 18.1423 76.3667 17.2566C76.2325 17.0858 76.0529 16.9093 76.1776 16.6711C76.2864 16.4662 76.5132 16.562 76.691 16.5335C77.8953 16.3438 78.7896 16.766 79.4059 17.8316C79.6233 18.2112 79.9617 18.512 80.2066 18.8754C80.4023 19.1658 80.5582 19.1601 80.7539 18.902C80.788 18.8816 80.8278 18.8731 80.8672 18.8779C80.9065 18.8827 80.9432 18.9006 80.9713 18.9286C81.2691 19.3081 81.6917 19.3565 82.1303 19.4144C82.6389 19.4818 82.6521 19.5444 82.4006 19.9838C82.2116 20.2286 82.0225 20.474 81.8335 20.7201C81.8041 21.0019 81.8883 21.2126 82.2021 21.2781Z" fill="#1FACE1"/>
<path d="M135.317 20.8987C135.317 19.7183 135.317 18.5379 135.317 17.3574C135.317 16.6932 135.488 16.5319 136.168 16.53C136.42 16.53 136.672 16.5252 136.924 16.53C137.417 16.5433 137.617 16.7198 137.619 17.2179C137.628 19.6576 137.619 22.0963 137.619 24.5359C137.619 24.9544 137.394 25.1707 136.985 25.2068H136.938C135.277 25.2362 135.298 25.2438 135.315 23.7265C135.325 22.7871 135.317 21.8429 135.317 20.8987Z" fill="#1FACE2"/>
<path d="M127.713 20.8579C127.713 19.6613 127.713 18.4657 127.713 17.2701C127.713 16.7008 127.877 16.5413 128.44 16.5309C128.677 16.5262 128.913 16.5309 129.148 16.5309C129.833 16.5356 129.988 16.6846 129.989 17.3574C129.989 18.7263 129.989 20.0953 129.989 21.4643C129.989 22.4397 129.989 23.4152 129.989 24.3916C129.989 25.0255 129.816 25.1963 129.175 25.2134C128.923 25.22 128.671 25.2229 128.418 25.2134C127.886 25.1916 127.715 25.0236 127.713 24.4941C127.71 23.2805 127.713 22.0687 127.713 20.8579Z" fill="#1FABE3"/>
<path d="M114.986 25.1658C114.284 25.2607 113.581 25.2142 112.878 25.1905C112.79 25.1928 112.704 25.1761 112.624 25.1415C112.544 25.1069 112.472 25.0553 112.414 24.9903C112.376 24.828 112.225 24.7768 112.114 24.6885C111.543 23.8953 111.013 23.0737 110.525 22.2271C110.687 21.9832 110.957 22.0373 111.167 22.0572C111.64 22.098 112.008 22.0468 112.129 21.5021C112.143 21.4482 112.17 21.3984 112.207 21.3566C112.244 21.3148 112.29 21.2821 112.342 21.2611C112.66 21.6702 112.945 22.105 113.192 22.5611C113.462 22.5468 113.316 22.3381 113.318 22.2385C113.342 20.9385 113.318 19.6375 113.327 18.3375C113.387 18.106 113.387 17.863 113.327 17.6315C113.338 17.4209 113.29 17.2064 113.361 16.9986C113.398 16.7898 113.455 16.6001 113.731 16.639C114.123 16.578 114.522 16.5764 114.915 16.6342L115.071 16.6532C115.1 16.6848 115.118 16.7245 115.125 16.7671C115.2 17.0517 115.1 17.3763 115.339 17.6211C115.365 17.6543 115.38 17.6954 115.38 17.7378C115.285 17.8982 115.055 17.9949 115.132 18.2417C115.138 18.3047 115.14 18.3681 115.139 18.4314C115.125 18.8528 115.125 18.8528 115.492 18.8822C115.506 19.2798 115.464 19.6774 115.492 20.074C114.938 20.2638 115.191 20.7287 115.142 21.0912C115.151 21.1541 115.153 21.2176 115.15 21.281C115.144 21.5894 115.087 21.894 115.091 22.2033C115.099 22.7727 115.091 22.7727 115.494 22.9776C115.494 23.3392 115.473 23.7007 115.494 24.0594C115.535 24.531 115.421 24.921 114.986 25.1658Z" fill="#1FACE2"/>
<path d="M54.9147 10.4304C56.3866 9.02406 58.1619 8.26684 60.1574 7.97552C60.441 7.93472 60.5176 8.02297 60.4958 8.29815C60.3295 10.3858 59.6016 12.2324 58.2205 13.8151C58.1165 13.5172 58.0551 13.186 57.6391 13.1566C57.5446 13.1499 57.45 13.1129 57.3678 13.1623C56.9519 13.4005 56.9197 13.1471 56.9358 12.8283C56.9389 12.7837 56.9497 12.74 56.9679 12.6992C56.9952 12.6636 57.0316 12.6359 57.0732 12.6192C57.1147 12.6026 57.16 12.5974 57.2043 12.6043C57.2837 12.5996 57.4293 12.6632 57.4018 12.5094C57.3602 12.2741 57.4075 12.016 57.2487 11.8063C56.6711 11.2778 56.2987 11.3736 56.0586 12.1147C56.0438 12.192 56.0027 12.2618 55.9423 12.3121C55.7196 12.0607 55.4393 11.8675 55.1255 11.7494C54.9081 11.6697 54.7984 11.4647 54.6803 11.2815C54.6283 11.1126 54.4912 10.9684 54.5309 10.771C54.5602 10.7416 54.5886 10.7113 54.617 10.6761C54.7368 10.6232 54.8398 10.5381 54.9147 10.4304Z" fill="#176E96"/>
<path d="M51.6978 30.2349C51.366 30.5556 51.0163 30.8479 50.5786 31.014C50.3772 30.7094 50.3772 30.7094 50.8244 30.5983C50.5408 30.6031 50.5322 30.5983 50.3942 30.7796C50.2645 30.9372 50.1123 31.0747 49.9424 31.1876C49.5529 31.478 49.1691 31.2891 49.1247 30.8081C49.12 30.7606 49.1247 30.7132 49.119 30.6667C49.1058 30.5452 49.1294 30.3943 48.9706 30.3554C48.8468 30.3251 48.7815 30.4408 48.7021 30.5148C48.2871 30.9086 47.874 30.9286 47.4496 30.586C47.2152 30.3962 47.2322 30.1116 47.1452 29.8648C49.5085 28.878 51.3178 27.1965 52.8984 25.2351C53.043 25.0937 53.182 24.9353 53.3881 25.1535L54.1575 25.6394C53.9231 26.0749 54.1103 26.4763 54.2417 26.891C54.3286 27.1671 54.219 27.4233 53.9326 27.4755C53.2585 27.5979 53.0818 28.0543 53.0562 28.6426C53.0385 28.751 52.9972 28.854 52.9352 28.9444C52.7286 29.3181 52.4372 29.6377 52.0845 29.8772C51.8765 29.9085 51.7035 29.9825 51.6978 30.2349Z" fill="#1FABE2"/>
<path d="M44.5258 26.1887C44.314 26.078 44.1223 25.9323 43.9586 25.7579C43.7241 25.5387 43.4141 25.6033 43.1929 25.8234C42.9717 26.0436 42.7911 26.2552 42.7987 26.6101C42.8034 26.8169 42.5576 26.7476 42.4139 26.7524C41.7522 26.7742 41.7522 26.7704 41.6917 26.1204C41.6701 26.0142 41.6385 25.9103 41.5972 25.8101C41.4847 25.6782 41.5688 25.5539 41.6104 25.4306C41.6492 25.3247 41.709 25.2278 41.7862 25.1459C41.8978 25.0083 41.9753 24.8375 42.154 24.7663C42.3515 24.6563 42.395 24.8033 42.464 24.9485C42.2863 24.5974 42.5935 24.4295 42.7259 24.196C42.7372 24.151 42.7601 24.1098 42.7923 24.0765C42.8245 24.0432 42.8648 24.019 42.9093 24.0063C43.3243 23.955 43.2033 24.2226 43.1153 24.401C43.0274 24.5794 42.9074 24.7436 43.0265 25.0567C43.0766 24.6686 43.2099 24.3925 43.2042 24.086C43.2042 24.0233 43.1957 23.9209 43.2354 23.9104C43.501 23.8459 43.3564 23.5736 43.485 23.4445C43.797 23.0673 44.1411 22.718 44.5135 22.4007C44.7403 22.2897 44.7148 22.4719 44.7649 22.599C44.8727 22.878 45.11 22.9226 45.2915 22.6873C45.433 22.4817 45.5594 22.2661 45.6696 22.042C45.8586 21.7128 46.1063 21.4195 46.5298 21.4233C46.7454 21.4233 46.7869 21.2943 46.8503 21.152C46.9136 21.0096 46.8767 20.8322 47.0393 20.742C47.3229 20.7344 47.5905 20.7487 47.6557 21.1064C47.5999 21.3797 47.7861 21.2696 47.9053 21.2639C48.0215 21.2098 48.1888 21.2525 48.1397 21.3541C47.9601 21.7128 48.2219 21.6843 48.4233 21.7963C48.7286 21.9652 48.5518 22.2555 48.4951 22.5022C48.3373 22.722 48.1425 22.9125 47.9194 23.0649C47.74 23.1915 47.5787 23.3422 47.4401 23.5128C47.3618 23.6097 47.2634 23.6884 47.1517 23.7433C47.0401 23.7982 46.9179 23.828 46.7936 23.8307C46.3767 23.9778 46.3786 24.4447 46.1205 24.7122C45.9796 24.7957 45.8501 24.699 45.6857 24.6695C45.6582 24.8707 45.8284 25.0747 45.6658 25.2493C45.3777 25.5909 45.0573 25.9036 44.7091 26.183C44.6986 26.1972 44.685 26.2089 44.6694 26.217C44.6537 26.2252 44.6364 26.2297 44.6188 26.2303C44.6012 26.2308 44.5837 26.2274 44.5676 26.2202C44.5514 26.213 44.5372 26.2022 44.5258 26.1887Z" fill="#1EACE1"/>
<path d="M41.1169 17.14C40.5476 16.8712 39.9476 16.6733 39.3303 16.5507C39.2745 16.4397 39.3785 16.3847 39.4248 16.2974C39.1299 16.285 38.8397 16.2974 38.5495 16.2926C38.3415 16.286 38.1836 16.3467 38.1184 16.5621V16.5564C37.8008 16.6608 37.6363 16.5707 37.5588 16.2186C37.383 15.4187 37.5352 15.1843 38.2801 14.8797C38.678 14.7174 39.0363 14.4783 39.4882 14.485C39.6347 14.485 39.6612 14.3218 39.6942 14.2003C39.7576 13.9707 39.8937 13.8957 40.1159 13.9877C40.5042 13.9904 40.8871 14.0796 41.237 14.2487C41.5943 14.4072 41.8118 14.3588 41.9715 14.0039C42.0218 13.9273 42.0829 13.8586 42.153 13.7999C42.2373 13.7591 42.3313 13.7427 42.4243 13.7524C42.9537 13.7467 43.0681 13.5769 42.897 13.0635C42.8837 13.0182 42.8888 12.9694 42.9111 12.9278L42.9858 12.85C43.0567 12.8314 43.1219 12.7957 43.1759 12.7461C43.2299 12.6965 43.2711 12.6345 43.2959 12.5653L43.3904 12.4847C43.9576 12.2731 43.917 12.3015 44.1212 12.8595C44.3811 13.5731 44.2355 14.1168 43.6551 14.5675C43.2155 14.912 43.3394 15.3836 43.3715 15.8315C43.381 15.9823 43.5057 16.1247 43.4093 16.285C43.0473 16.712 42.672 17.1296 42.3279 17.5708C42.1521 17.7957 42.014 17.8242 41.8042 17.6268C41.6395 17.4851 41.4675 17.352 41.289 17.2282C41.2956 17.0774 41.2124 17.0992 41.1169 17.14Z" fill="#1EACE2"/>
<path d="M44.4388 11.7634C44.9739 11.4181 45.5702 11.1794 46.1951 11.0603C46.6309 11.0318 47.0686 11.0138 47.5054 11.0261C47.7001 11.0318 47.926 10.9939 48.0385 11.2311C47.8665 11.455 47.616 11.3848 47.391 11.3981C46.9278 11.4256 46.4551 11.3355 46.0061 11.5205C45.9446 11.5471 45.8709 11.5205 45.8104 11.5594C45.856 11.5491 45.9026 11.5437 45.9494 11.5433C46.7907 11.4588 47.632 11.5357 48.4923 11.4977C48.4403 11.4028 48.2209 11.4028 48.3164 11.2254C48.8382 11.0631 49.379 11.0992 49.9131 11.0679C50.1626 11.4863 50.6362 11.2671 50.9718 11.4417C51.5229 11.6106 51.9814 11.9428 52.4418 12.2701C52.5363 12.3375 52.6772 12.4011 52.5807 12.5681C52.5004 12.7047 52.3766 12.6905 52.2489 12.6715C51.8604 12.6127 51.4738 12.5301 51.0834 12.4998C49.6427 12.3897 48.3089 12.7569 47.0592 13.4591C46.6905 13.666 46.3341 13.8937 45.9721 14.112C45.8501 14.1376 45.7121 14.1357 45.6611 14.2866L44.8103 14.9508C44.5484 14.965 44.538 14.7733 44.5654 14.6063C44.6552 14.055 44.452 13.4677 44.867 12.9477C45.0844 12.6744 44.6571 12.5292 44.5172 12.3299C44.4624 12.142 44.4832 11.9485 44.4388 11.7634Z" fill="#1FABE2"/>
<path d="M69.6957 20.0417C69.4026 19.7893 69.569 19.4553 69.5624 19.165C69.5378 18.1582 69.5529 18.1582 70.5653 18.1572C70.8168 18.1572 71.0673 18.1572 71.3216 18.1572C71.5182 18.1572 71.6052 17.9579 71.5107 17.883C71.2592 17.6932 71.1628 17.2814 70.7487 17.3136C70.64 17.3212 70.5294 17.3136 70.4198 17.3136C69.6862 17.3136 69.6692 17.3089 69.4744 18.0348C69.4054 18.2863 69.2513 18.273 69.0897 18.2531C68.8959 18.2284 68.6435 18.385 68.5225 18.0794C68.2852 17.4512 68.0716 17.3146 67.3702 17.3136C67.3343 17.029 67.3201 16.7443 67.6632 16.619C67.7578 16.6665 67.6093 16.8288 67.7029 16.8031C68.1359 16.6855 68.566 16.8828 68.9819 16.7965C68.7494 16.6864 68.3968 16.9341 68.2352 16.5593L74.8826 16.5403C75.2191 16.5403 75.4157 16.7234 75.4573 17.0461C75.4923 17.3231 75.5367 17.6088 75.4034 17.8792C75.1737 17.8422 75.1132 17.9674 75.1293 18.1639C74.9658 18.3024 74.7692 18.2455 74.5867 18.2464C73.0799 18.2512 71.573 18.2606 70.0672 18.2407C69.7079 18.236 69.5945 18.3442 69.6285 18.6924C69.672 19.1327 69.5567 19.5958 69.6957 20.0417Z" fill="#1FABE4"/>
<path d="M123.228 16.7301C123.087 16.7396 122.944 16.7434 122.817 16.8582C122.917 16.9241 122.989 17.0252 123.019 17.1417C123.049 17.2582 123.035 17.3818 122.979 17.4883C122.869 17.7407 122.567 17.8678 122.325 17.8574C121.508 17.8185 120.679 18.0329 119.867 17.7141C119.608 17.6126 119.277 17.6885 118.98 17.6913C118.923 17.6913 118.815 17.7312 118.815 17.7502C118.834 18.2815 118.396 18.2246 118.084 18.3299C118.048 18.3423 118.029 18.403 118.002 18.441C118.083 18.9057 118.085 19.3808 118.009 19.8463C117.983 20.0152 117.938 20.1756 118 20.3426C118.032 20.6453 118.085 20.9461 118.061 21.2526C118.04 21.3285 117.981 21.4015 117.988 21.4746C118.042 22.1059 118.047 22.7405 118.001 23.3724C118.057 23.7207 118.031 24.0756 118.07 24.4257C118.067 24.4863 118.045 24.5444 118.008 24.5927C117.972 24.6409 117.921 24.6769 117.864 24.6961C117.784 24.6858 117.703 24.6958 117.628 24.7251C117.553 24.7544 117.486 24.8022 117.434 24.8641C117.304 24.7332 117.355 24.5661 117.354 24.4153C117.354 22.0538 117.354 19.6923 117.354 17.3307C117.354 17.1609 117.322 16.9806 117.448 16.8354C117.629 16.7643 117.817 16.7965 118.002 16.7927C119.274 16.7766 120.545 16.7927 121.817 16.7823C120.771 16.7823 119.725 16.7823 118.68 16.7823C118.491 16.7823 118.302 16.7956 118.129 16.6931C118.117 16.6861 118.106 16.6767 118.098 16.6655C118.09 16.6543 118.084 16.6415 118.08 16.628C118.077 16.6144 118.077 16.6003 118.079 16.5866C118.081 16.5728 118.086 16.5597 118.094 16.5479C119.701 16.5403 121.308 16.434 122.915 16.6428C123.021 16.6644 123.126 16.6936 123.228 16.7301Z" fill="#21ABE4"/>
<path d="M91.2658 21.5411C91.1873 21.6787 91.0531 21.6522 90.9302 21.6531C90.1909 21.6531 89.4517 21.6531 88.7125 21.6531C88.5017 21.6531 88.34 21.6284 88.3258 21.3684C88.2701 20.2696 88.0423 19.1632 88.4884 18.0871C88.583 17.8632 88.5584 17.6762 88.2436 17.6829H88.1491C87.4363 17.6582 87.3928 17.6098 87.493 16.9238C87.6707 16.7454 87.8995 16.7852 88.115 16.7852C89.3846 16.7852 90.6541 16.7852 91.9237 16.7852C92.1232 16.7852 92.3368 16.8308 92.4985 16.6543C93.0297 16.7378 93.5383 16.8792 93.907 17.3052C93.681 17.347 93.5062 17.513 93.2547 17.5244C93.1602 17.5362 93.0727 17.5805 93.0071 17.6496C92.9414 17.7188 92.9017 17.8087 92.8945 17.904C92.8841 18.4183 92.592 18.887 92.6733 19.4108C92.6263 19.4033 92.5822 19.3833 92.5455 19.353C92.5088 19.3226 92.4808 19.283 92.4644 19.2381C92.1969 18.609 91.6448 18.4449 91.0464 18.4041C90.3734 18.3585 89.6965 18.3955 89.0216 18.3889C88.6983 18.3889 88.5764 18.5369 88.5782 18.8491C88.5839 19.556 88.5858 20.263 88.5782 20.9699C88.5782 21.2954 88.72 21.4178 89.0329 21.414C89.5831 21.4083 90.1327 21.4083 90.6816 21.414C90.8876 21.4225 91.0975 21.3922 91.2658 21.5411Z" fill="#21ABE4"/>
<path d="M102.893 21.4643C104.079 21.4766 104.038 21.5326 104.028 20.3521C104.022 19.7249 104.028 19.0967 104.028 18.4695C104.028 18.2797 104.047 18.1459 104.252 18.0159C104.564 17.8195 104.615 17.4532 104.603 17.0955C104.681 17.2255 104.653 17.3707 104.653 17.5092C104.653 19.767 104.653 22.0244 104.653 24.2816C104.653 25.0606 104.498 25.2115 103.713 25.2143C103.461 25.2143 103.21 25.2286 102.956 25.2067C102.703 25.1849 102.451 25.1299 102.408 24.8054C102.378 24.6232 102.284 24.4742 102.635 24.4571C102.908 24.4438 103.169 24.1895 103.436 24.0462C103.593 23.9608 103.524 23.698 103.519 23.5129C103.519 23.2994 103.568 23.0783 103.449 22.8335C103.292 22.9692 103.146 23.1362 102.921 23.0356C102.614 23.0356 102.385 22.8962 102.191 22.6675C101.997 22.4388 102.033 22.2386 102.307 22.175C102.515 22.1275 102.608 22.0535 102.61 21.8524C102.653 21.6921 102.754 21.5537 102.893 21.4643Z" fill="#1FACE1"/>
<path d="M142.577 18.1657C142.074 18.123 141.821 17.9057 141.821 17.3913C141.821 17.1854 141.546 16.8827 141.846 16.7774C142.129 16.6825 142.477 16.6446 142.734 16.9738C142.923 17.2167 143.106 17.1959 143.126 16.8353C143.515 16.7587 143.915 16.743 144.309 16.7888C144.683 16.8201 145.014 16.7603 145.306 16.5212C145.531 16.5326 145.743 16.6104 145.968 16.6446C146.5 16.7518 146.993 17.0028 147.393 17.3705C147.475 17.5074 147.594 17.618 147.737 17.6893L147.863 17.8573C147.863 18.0821 147.752 18.0708 147.603 17.9787C147.662 18.0859 147.783 18.1514 147.811 18.2814C147.864 18.5376 147.716 18.6003 147.501 18.6297C146.94 18.7084 146.903 18.7625 146.915 19.3423C146.915 19.5084 146.961 19.6924 146.757 19.7845C146.594 19.719 146.604 19.5292 146.498 19.4258C146.404 19.2218 146.285 19.5074 146.183 19.4154C145.994 19.2863 145.945 19.0538 145.805 18.8878C145.16 18.1448 144.32 18.0338 143.412 18.1286C143.128 18.1552 142.858 18.289 142.577 18.1657Z" fill="#1DACE2"/>
<path d="M47.1452 29.8628C47.2662 29.8808 47.3673 29.934 47.3522 30.0697C47.2955 30.5631 47.7048 30.6115 48.0035 30.7083C48.3023 30.8051 48.5537 30.62 48.6653 30.3287C48.7484 30.1209 48.8997 30.1541 49.0509 30.1636C49.2551 30.1769 49.24 30.3344 49.24 30.4758C49.24 30.601 49.24 30.7272 49.24 30.8553C49.2551 31.1656 49.6039 31.363 49.8072 31.14C49.9499 30.9882 50.1853 30.9388 50.2581 30.768C50.4472 30.3391 50.7223 30.3961 51.0267 30.5669C51.0456 30.8971 50.3507 30.4587 50.5682 31.0129C50.4396 31.0755 50.2723 31.0622 50.19 31.2083C48.9114 31.8749 47.4499 32.101 46.0307 31.8517C45.9484 31.7634 45.9985 31.6837 46.0486 31.605C46.0772 31.5732 46.0966 31.5343 46.1047 31.4923C46.1129 31.4504 46.1095 31.407 46.0949 31.3668C45.8671 31.4218 45.8 31.7388 45.5401 31.7094C45.3945 31.6894 45.438 31.5376 45.3727 31.4626C45.2678 31.4997 45.3898 31.7473 45.1695 31.6752C44.6398 31.5727 44.1326 31.3757 43.6721 31.0935C43.6608 30.954 43.7666 30.714 43.4462 30.8515C43.4045 30.8691 43.359 30.8756 43.3141 30.8702C43.2692 30.8649 43.2265 30.848 43.19 30.8212C43.0822 30.7804 42.9697 30.7491 42.9064 30.6437C43.1408 30.2642 43.5426 30.342 43.8876 30.3069C44.4435 30.2499 45.0069 30.3619 45.5627 30.248C45.7403 30.1741 45.9323 30.1416 46.1242 30.1532C46.1611 30.1209 46.2188 30.0905 46.25 30.1133C46.6376 30.4283 46.8266 30.0592 47.0705 29.8808C47.0793 29.87 47.0913 29.8624 47.1048 29.8591C47.1183 29.8559 47.1325 29.8572 47.1452 29.8628Z" fill="#1EACE2"/>
<path d="M78.5239 22.0315C78.6846 22.1083 78.6846 22.1083 78.8208 21.8313C78.9333 22.3162 79.2934 22.2374 79.6035 22.2108C79.9135 22.1843 80.1319 22.263 80.2094 22.5904C79.6649 23.2916 79.1072 23.9843 78.5816 24.6998C78.3519 25.0101 78.0097 25.0338 77.7024 25.1562C77.4727 25.2312 77.2364 25.1885 77.0029 25.1904C76.327 25.197 76.2835 25.1505 76.2401 24.4521L76.8072 23.7224C77.0048 23.618 77.0956 23.4254 77.2005 23.248C77.5071 22.7804 77.8531 22.3401 78.2346 21.9318C78.3604 21.874 78.4455 21.9432 78.5239 22.0315Z" fill="#20ABE3"/>
<path d="M82.4054 19.9762L82.515 19.5871C81.8646 19.5236 81.1916 19.5055 80.7586 18.8982C81.2077 18.2131 81.754 17.603 82.2626 16.9644C82.3827 16.7946 82.5642 16.6788 82.7684 16.6417C82.9641 16.526 83.1162 16.6806 83.2864 16.7243C83.3672 16.7716 83.4559 16.8038 83.5483 16.8192C84.1863 16.9017 84.1863 16.9027 84.2894 17.5973C83.6957 18.4184 83.0677 19.2114 82.4054 19.9762Z" fill="#20ABE2"/>
<path d="M52.9352 28.9424C52.9409 28.7725 52.9589 28.6028 52.9494 28.4339C52.9097 27.7696 53.3124 27.4755 53.8834 27.3512C54.201 27.2819 54.2464 27.0295 54.1178 26.8701C53.9354 26.6442 54.0138 26.3662 53.8475 26.1394C53.6111 25.8158 54.1679 25.8823 54.1575 25.6375C55.3136 26.1694 56.6207 26.2703 57.8442 25.9221C58.1278 25.8984 58.4114 25.9364 58.695 25.9088C58.8945 26.2637 58.6733 26.7515 58.2971 26.7562C57.434 26.7657 56.5709 26.7562 55.7079 26.7562C55.5188 26.7562 55.3392 26.7344 55.2569 26.9811C55.1955 27.1652 55.0026 27.1214 54.8486 27.1357C54.5149 27.1679 54.1292 27.6311 54.1613 27.948C54.1708 28.0429 54.1689 28.172 54.2558 28.1966C54.6169 28.2915 54.3343 28.4984 54.3437 28.6521C54.0423 28.6233 53.7514 28.5259 53.493 28.3675C53.3531 28.227 53.286 28.2726 53.2737 28.4538C53.2045 28.6431 53.0879 28.8113 52.9352 28.9424Z" fill="#1FADE0"/>
<path d="M147.88 23.8412C147.68 23.7017 147.536 23.5992 147.301 23.8706C147.067 24.142 146.762 24.1875 146.401 23.8858C146.148 23.6741 145.812 23.5631 145.663 23.2282C145.735 22.8486 145.998 22.5829 146.194 22.2793C146.228 22.2517 146.267 22.2128 146.307 22.2147C146.613 22.228 146.382 22.079 146.374 21.9974C146.347 21.8143 146.442 21.6833 146.556 21.559C146.805 21.2677 147.005 20.8863 147.501 21.0476C147.619 21.1242 147.741 21.1942 147.866 21.2573C148.288 21.4252 148.434 21.745 148.314 22.1587C148.219 22.4747 148.463 22.7708 148.321 23.0754C148.25 23.368 148.097 23.6339 147.88 23.8412Z" fill="#1DACE3"/>
<path d="M40.1102 13.9926C39.9391 13.9926 39.7774 14.0277 39.8067 14.2497C39.8587 14.6482 39.63 14.6767 39.3218 14.6672C39.0477 14.6596 38.7045 14.5439 38.6053 14.9775C38.5977 15.0088 38.4852 15.0487 38.4398 15.0326C37.9823 14.8703 37.9057 15.4055 37.5834 15.507C37.4945 15.5345 37.5115 15.7442 37.5834 15.8543C37.6815 15.994 37.7264 16.1644 37.71 16.3345C37.6826 16.6457 37.9606 16.5176 38.1165 16.5612L37.0672 16.8364C36.932 16.5593 36.5795 16.4977 36.4726 16.1627C36.3507 15.7831 36.4414 15.4918 36.8347 15.4302C36.9982 15.4045 37.1183 15.3039 37.2582 15.2698C37.5323 15.2034 37.5976 15.0345 37.5238 14.8238C37.4501 14.6131 37.1636 14.4442 37.0171 14.5287C36.6834 14.7318 36.605 14.5685 36.5067 14.3161C36.4963 14.2896 36.4216 14.2886 36.3762 14.2753C37.5919 13.8189 38.835 13.6889 40.1102 13.9926Z" fill="#1FACE0"/>
<path d="M133.599 23.4417C133.999 23.8735 133.917 24.3802 133.753 24.8527C133.601 25.294 133.171 25.2636 132.788 25.256C132.725 25.2527 132.662 25.2527 132.599 25.256C131.435 25.3642 131.379 24.7151 131.535 23.714C131.58 23.4294 131.832 23.2719 132.127 23.2595C132.422 23.2472 132.723 23.2643 133.021 23.269C133.18 23.4398 133.384 23.4578 133.599 23.4417Z" fill="#20ACE2"/>
<path d="M97.6107 24.6059C97.6107 24.5271 97.6022 24.4483 97.5975 24.3696C97.5701 23.8904 97.3791 23.6105 96.8412 23.7281C96.7154 23.7382 96.5889 23.7382 96.4631 23.7281C96.2618 23.7367 96.1795 23.6418 96.1842 23.4434C96.1842 23.2812 96.2239 23.1588 96.4149 23.1588C96.7732 23.1721 96.9282 22.9624 97.0634 22.6587C97.3366 22.0476 98.3112 21.9432 98.7763 22.4613C98.8888 22.5866 99.0192 22.5875 99.1601 22.5885H100.246C100.377 22.3987 100.413 22.114 100.725 22.114C101.175 22.2535 101.256 22.5306 101.002 23.0696C100.202 23.0772 99.4002 23.1085 98.6014 23.081C98.2176 23.0677 97.9766 23.1588 97.8905 23.545L97.8631 23.5251L97.8924 23.5412C97.8506 23.9079 97.7557 24.2666 97.6107 24.6059Z" fill="#1FACE1"/>
<path d="M44.5248 12.2058C44.6884 12.319 44.842 12.446 44.9842 12.5853C45.1392 12.7609 45.195 13.001 44.9511 13.1319C44.7441 13.2439 44.7195 13.3881 44.711 13.5836C44.695 13.9537 44.7715 14.3285 44.6571 14.6938C44.6155 14.8257 44.7082 14.8921 44.8103 14.9453L43.4008 16.2861C43.0936 15.8543 43.2004 15.3599 43.2117 14.8893C43.2212 14.6046 43.5398 14.4831 43.7175 14.2981C44.1675 13.8237 44.2677 13.576 44.0181 13.1433C43.976 13.0776 43.9558 13.0002 43.9605 12.9222C44.0351 12.4174 43.7591 12.388 43.3829 12.4828C43.5473 12.3339 43.7043 12.1735 43.9198 12.0938C44.1476 11.9999 44.3197 12.1953 44.5248 12.2058Z" fill="#21ABE2"/>
<path d="M147.468 21.0865C147.022 21.0315 146.876 21.4253 146.618 21.6558C146.535 21.5866 146.423 21.5496 146.385 21.4338C146.376 21.3892 146.374 21.3434 146.378 21.2981C146.406 20.9983 146.429 20.6984 146.335 20.4042C146.299 20.0655 146.077 19.7448 146.24 19.388C146.385 19.3282 146.268 19.1118 146.435 19.0596C146.574 19.1431 146.5 19.2788 146.522 19.3889C146.65 19.4838 146.581 19.6736 146.711 19.7685C146.867 19.6271 146.812 19.4468 146.786 19.2826C146.701 18.7503 146.928 18.4827 147.448 18.5235C147.542 18.5311 147.657 18.5634 147.708 18.4723C147.824 18.2673 147.555 18.1876 147.534 18.0234C147.628 17.9361 147.795 18.0064 147.855 17.8621C148.139 18.1512 148.333 18.5168 148.414 18.9145C148.525 19.3149 148.313 19.5597 147.975 19.6736C147.674 19.7732 147.604 19.9526 147.597 20.2334C147.589 20.5143 147.685 20.8265 147.468 21.0865Z" fill="#1EADDF"/>
<path d="M147.468 21.0865C147.468 20.7069 147.468 20.3321 147.468 19.9544C147.468 19.7371 147.531 19.5882 147.78 19.5749C148.2 19.555 148.365 19.2855 148.416 18.9106C148.856 20.3084 148.864 21.6976 148.321 23.0725C148.184 22.6816 148.098 22.2925 148.218 21.8722C148.273 21.6824 148.181 21.5391 147.964 21.4452C147.784 21.3674 147.529 21.3446 147.468 21.0865Z" fill="#22AAE3"/>
<path d="M54.5309 10.7822C54.6044 10.8367 54.661 10.9107 54.6945 10.996C54.7279 11.0812 54.7368 11.1742 54.72 11.2643C54.5196 11.4731 54.322 11.6439 54.3664 12.0149C54.4033 12.3214 54.0923 12.3261 53.821 12.2265C54.045 12.5168 54.0101 12.9363 54.3428 13.1536C54.3474 13.2773 54.3623 13.4005 54.3872 13.5217C54.4468 13.7267 54.2814 13.7115 54.1793 13.7533C54.0394 13.8159 53.9694 13.7533 53.9685 13.6147C53.9685 13.2836 53.7681 13.2949 53.5213 13.3301C53.2896 13.3554 53.0568 13.3684 52.8237 13.369C52.8691 13.832 52.4815 13.4866 52.351 13.6214C52.8936 12.5459 53.6331 11.5828 54.5309 10.7822Z" fill="#196E99"/>
<path d="M47.6538 21.1093C47.5694 21.0136 47.4658 20.9368 47.3498 20.884C47.2338 20.8312 47.1081 20.8035 46.9807 20.8028C46.8919 20.8578 46.8229 20.8028 46.7501 20.7639C46.664 20.6396 46.2906 20.8872 46.4069 20.501C47.0113 19.9089 47.616 19.3174 48.221 18.7266C48.3779 18.6231 48.4819 18.4514 48.6473 18.3669C48.7919 18.2929 48.8572 18.3527 48.7711 18.5112C48.6492 18.6545 48.6208 18.8357 48.5745 19.0084C48.4981 19.1284 48.4402 19.2592 48.4025 19.3965C48.1971 19.9859 47.9468 20.5585 47.6538 21.1093Z" fill="#20ADDF"/>
<path d="M56.9944 12.7749C57.07 12.9476 56.9405 13.4316 57.399 12.9913C57.572 12.8262 57.8414 13.1308 58.0862 13.1811C58.4464 13.2532 58.1193 13.6071 58.2205 13.8149C58.048 14.106 57.821 14.3609 57.5522 14.5655C57.3206 14.724 56.9538 14.7003 56.9074 15.1054C56.674 14.9157 56.6711 14.779 56.7458 14.5019C56.8602 14.0778 56.7931 13.6033 56.8025 13.1497C56.6825 12.9305 56.7496 12.8091 56.9944 12.7749Z" fill="#156E96"/>
<path d="M36.1163 14.3711C35.8969 14.7032 35.7315 15.0628 35.3713 15.3029C35.152 15.4491 34.98 15.7157 34.8675 15.9672C34.7815 16.1845 34.6364 16.3732 34.4487 16.5116C34.261 16.65 34.0382 16.7327 33.8059 16.75C33.6244 16.7718 33.511 17.009 33.2529 16.8876C33.5365 16.6684 33.4041 16.3534 33.4656 16.0772C33.4821 16.0341 33.5075 15.9949 33.54 15.9622C33.5726 15.9295 33.6117 15.904 33.6547 15.8874C33.7246 15.8485 33.7652 15.8922 33.8049 15.9387C33.994 16.0772 34.0139 15.9083 34.0385 15.8001C34.063 15.692 34.0536 15.58 34.1245 15.487C34.7143 14.9784 35.36 14.578 36.1163 14.3711Z" fill="#1FADE0"/>
<path d="M101.002 23.0755C100.994 22.9077 100.994 22.7395 101.002 22.5717C101.032 22.2747 100.884 22.1921 100.624 22.2206C100.442 21.972 100.45 21.7347 100.663 21.5089C101.041 21.3675 101.362 21.4026 101.594 21.7689C101.703 22.0014 101.819 22.1485 102.067 21.8875C102.104 21.8413 102.151 21.8033 102.204 21.7758C102.256 21.7484 102.314 21.732 102.374 21.7278C102.433 21.7237 102.492 21.7317 102.548 21.7515C102.604 21.7713 102.656 21.8024 102.699 21.8429C102.682 22.009 102.74 22.1836 102.652 22.342C102.518 22.3952 102.476 22.2206 102.36 22.2339C102.313 22.2361 102.268 22.2533 102.231 22.283C102.195 22.3127 102.169 22.3533 102.157 22.399C102.135 22.4796 102.157 22.5641 102.251 22.5793C102.32 22.5831 102.386 22.6114 102.436 22.6592C102.487 22.7069 102.519 22.7711 102.526 22.8402C102.558 22.9854 102.614 22.9142 102.703 22.8402C102.885 22.6827 102.857 22.8858 102.886 22.9787C103.007 23.1685 103.005 23.3412 102.771 23.4304C102.447 23.5538 102.393 23.2786 102.299 23.0803L102.314 23.0945C102.129 22.974 101.94 22.9996 101.746 23.0784L101.002 23.0755Z" fill="#1EACE2"/>
<path d="M102.304 23.0774C102.444 23.1656 102.466 23.4228 102.724 23.3507C102.948 23.288 102.87 23.1163 102.891 22.9758C103.059 22.9711 103.25 23.0119 103.279 22.7548C103.291 22.6437 103.373 22.601 103.483 22.6134C103.629 22.6304 103.645 22.7396 103.645 22.8544C103.645 23.2289 103.645 23.6043 103.645 23.9807C103.645 24.162 103.565 24.2872 103.372 24.292C103.127 24.2986 102.867 24.2426 102.92 24.6545C102.932 24.7493 102.757 24.8034 102.627 24.6829C102.496 24.5624 102.474 24.5672 102.409 24.8053C102.231 24.2379 102.42 23.6486 102.304 23.0774Z" fill="#22ABE2"/>
<path d="M49.0585 14.4735C49.0731 14.5626 49.0976 14.6498 49.1313 14.7335C49.3705 15.1833 49.3034 15.3474 48.825 15.485C48.687 15.5249 48.4422 15.4803 48.4554 15.6748C48.4705 15.8902 48.705 15.7697 48.842 15.7915C48.9791 15.8133 49.0453 15.8522 49.0585 15.9813C49.0135 16.0351 48.9514 16.0716 48.8827 16.0847C48.5877 16.1341 48.2947 16.0743 48.0102 16.0705C48.0744 16.0876 48.152 16.0705 48.2266 16.0942C48.3439 16.1473 48.445 16.2233 48.4015 16.3656C48.358 16.5079 48.2654 16.5952 48.1 16.5554C47.7768 16.5432 47.4576 16.4792 47.1547 16.3656C47.4865 16.3495 47.1547 16.1379 47.2492 16.0496L47.3182 15.9718C47.477 15.8392 47.6172 15.6857 47.7351 15.5154L48.5754 14.5665C48.7333 14.5086 48.8666 14.3349 49.0585 14.4735Z" fill="#166E99"/>
<path d="M46.7917 20.7087L46.9807 20.8036C47.0885 21.0769 46.9155 21.2837 46.8125 21.5058C46.7945 21.5466 46.7444 21.614 46.7274 21.6083C45.8483 21.3378 45.8189 22.1719 45.507 22.5894C45.3444 22.8058 45.2536 23.0088 44.9483 22.969C44.6288 22.9282 44.6042 22.7118 44.6326 22.4566C44.6326 22.4433 44.5551 22.4215 44.5135 22.4034C44.8615 21.9932 45.2463 21.6158 45.663 21.2761C45.7553 21.2054 45.8693 21.1695 45.9853 21.1746C46.4173 21.3027 46.6716 21.1253 46.7917 20.7087Z" fill="#20ACE4"/>
<path d="M75.4063 24.0147C75.2257 23.7196 74.9771 23.6171 74.6207 23.6295C73.2084 23.676 71.7933 23.5868 70.3801 23.675C70.1834 23.6873 69.9934 23.5735 69.7798 23.6181C69.6597 23.6427 69.5907 23.5308 69.5633 23.4131C69.5519 23.3505 69.5488 23.2867 69.5539 23.2233C69.5803 22.7242 69.3487 22.0951 69.6437 21.7601C69.9386 21.4251 70.5644 21.6652 71.0446 21.6567C72.0977 21.6415 73.1517 21.6567 74.2048 21.6567C73.82 21.7715 73.4249 21.7032 73.0354 21.7079C72.075 21.7203 71.1136 21.7373 70.1551 21.7003C69.7013 21.6833 69.5784 21.8446 69.6229 22.2602C69.6503 22.5268 69.6503 22.7954 69.6229 23.062C69.5898 23.4046 69.7344 23.4795 70.053 23.4767C71.5797 23.4615 73.1063 23.4662 74.633 23.4767C75.0064 23.4786 75.3845 23.4976 75.4063 24.0147Z" fill="#20ADE2"/>
<path d="M110.919 21.4641C110.492 21.3066 110.352 20.9897 110.453 20.5684C110.521 20.2837 110.808 20.1594 110.999 19.9706C111.078 19.8928 111.277 19.9412 111.297 20.1414C111.346 20.4412 111.462 20.6158 111.782 20.3957C111.967 20.6026 112.12 20.8365 112.236 21.0893C112.229 21.2071 112.177 21.3178 112.092 21.3988C112.006 21.4797 111.893 21.5248 111.775 21.5249C111.495 21.542 111.198 21.5752 110.919 21.4641Z" fill="#22AAE5"/>
<path d="M48.4923 22.5051C48.4705 22.433 48.41 22.3457 48.4317 22.2907C48.5745 21.9225 48.427 21.8162 48.0744 21.839C47.9601 21.8475 47.8012 21.8845 47.7625 21.7213C47.7237 21.5581 47.891 21.5828 47.9714 21.5239C48.1538 21.3892 48.1047 21.3057 47.9033 21.2668C48.3243 21.0207 48.773 20.8261 49.24 20.687C49.3156 20.9508 49.5236 21.1662 49.5236 21.4604C49.2217 21.8479 48.8756 22.1986 48.4923 22.5051Z" fill="#22ACE1"/>
<path d="M92.5023 16.656C92.5193 16.9882 92.2763 16.9284 92.0825 16.9284C90.5536 16.9284 89.0251 16.9284 87.4968 16.9284C87.2387 16.6665 87.4089 16.6437 87.65 16.6437C88.8694 16.6437 90.0889 16.6437 91.3083 16.6437C91.6515 16.6437 91.9956 16.6361 92.3397 16.6323L92.5023 16.656Z" fill="#1EADE4"/>
<path d="M110.919 21.4642C111.154 21.4139 111.374 21.3389 111.634 21.4272C111.91 21.5221 112.052 21.2374 112.236 21.0894C112.271 21.1463 112.306 21.2042 112.342 21.2611C112.276 21.48 112.194 21.6941 112.099 21.9016C112.022 22.0449 111.952 22.1796 111.689 22.174C111.306 22.1664 110.907 22.1161 110.525 22.2271C110.5 22.1891 110.475 22.1512 110.45 22.1123C110.45 21.9054 110.463 21.6957 110.285 21.5088L110.919 21.4642Z" fill="#1DAEDF"/>
<path d="M117.813 24.6763L118.002 24.4865C118.196 24.3119 118.419 24.348 118.644 24.3973C119.127 24.7835 119.636 25.0967 120.296 25.0236C120.359 25.0174 120.422 25.0242 120.482 25.0434C120.542 25.0627 120.598 25.0941 120.645 25.1356C120.708 25.1356 120.779 25.1622 120.829 25.1356C121.067 25.0284 121.247 24.7494 121.574 25.0777C121.66 25.165 122.099 25.0616 122.377 25.0511C122.531 25.0464 122.687 25.0511 122.842 25.0578C122.39 25.2181 121.915 25.1849 121.452 25.1973C120.359 25.2257 119.264 25.2105 118.169 25.2068C117.97 25.2068 117.758 25.2248 117.602 25.0597C117.718 24.9627 117.793 24.826 117.813 24.6763Z" fill="#21ABE4"/>
<path d="M106.756 16.6399C107.183 16.8201 107.633 16.7471 108.073 16.7537C108.343 16.7537 108.612 16.7205 108.875 16.7699C108.875 16.823 108.875 16.8761 108.875 16.9293H107.37C106.599 16.9293 106.576 16.952 106.575 17.7216C106.575 20.1059 106.575 22.4908 106.575 24.8763C106.436 24.7331 106.481 24.5509 106.481 24.3848C106.481 22.0322 106.481 19.6798 106.481 17.3278C106.48 17.0631 106.449 16.7822 106.756 16.6399Z" fill="#23ABDB"/>
<path d="M48.0196 11.2568C47.7181 11.067 47.3853 11.1818 47.0677 11.1685C46.7718 11.1562 46.4788 11.1543 46.1952 11.0565C47.4065 10.6804 48.7032 10.683 49.9131 11.0641C49.3988 11.3156 48.8468 11.2539 48.3061 11.2539C48.2878 11.2736 48.2657 11.2893 48.2412 11.3002C48.2167 11.311 48.1902 11.3168 48.1634 11.317C48.1367 11.3173 48.1101 11.3121 48.0853 11.3017C48.0606 11.2914 48.0383 11.2761 48.0196 11.2568Z" fill="#26ABE3"/>
<path d="M114.986 25.1657C114.986 25.1505 114.981 25.1268 114.986 25.1202C115.723 24.4939 115.379 23.6494 115.436 22.8865C115.178 22.412 115.355 21.9024 115.305 21.4109C115.319 21.2379 115.319 21.064 115.305 20.8909C115.319 20.6347 115.25 20.3643 115.433 20.1365V18.8242C115.306 18.6961 115.322 18.531 115.312 18.3725C115.294 18.1419 115.36 17.9161 115.35 17.6855C115.135 17.4065 115.293 17.0156 115.067 16.7366V16.6493C115.274 16.6085 115.401 16.7015 115.454 16.896C115.484 17.0015 115.502 17.1106 115.505 17.2205C115.508 19.6384 115.508 22.0559 115.505 24.473C115.511 24.826 115.441 25.1505 114.986 25.1657Z" fill="#22ACE2"/>
<path d="M98.9133 16.8145C98.9805 16.9274 99.092 16.9208 99.2026 16.9312C99.3992 16.9493 99.6932 16.9312 99.6394 17.2093C99.5978 17.4266 99.5079 17.7131 99.126 17.696C98.6364 17.6723 98.5674 17.6666 98.3698 17.2406C98.3527 17.2048 98.3259 17.1747 98.2924 17.1537C98.2589 17.1327 98.2202 17.1217 98.1807 17.122C98.3926 16.9547 98.6459 16.8484 98.9133 16.8145Z" fill="#22AAE5"/>
<path d="M104.582 16.9294H99.9333C100.1 16.6837 100.318 16.7396 100.51 16.7396C101.623 16.7349 102.734 16.7396 103.846 16.7396C104.035 16.7396 104.224 16.7558 104.392 16.6448C104.452 16.6626 104.504 16.7007 104.539 16.7527C104.573 16.8047 104.589 16.8672 104.582 16.9294Z" fill="#1FAED8"/>
<path d="M84.2894 17.5973C84.2402 17.4369 83.985 17.3952 84.1098 17.102C84.1721 16.9568 83.8035 16.9122 83.6078 16.9369C83.4272 16.9558 83.2552 17.0147 83.2467 16.7404C83.189 16.6323 83.2911 16.6038 83.3412 16.5507C83.7193 16.544 84.0927 16.5222 84.468 16.5364C84.8433 16.5507 84.9407 16.7395 84.7327 17.0583C84.5957 17.2467 84.4477 17.4267 84.2894 17.5973Z" fill="#1FB0DE"/>
<path d="M81.0649 22.9815C81.2748 22.8723 81.4232 22.8344 81.6094 23.0906C81.7493 23.2804 82.1227 23.194 82.3089 23.4123C82.4139 23.5356 82.6663 23.6504 82.5443 23.8137C82.4328 23.9617 82.2201 23.8345 82.0206 23.641V24.1989C81.6659 23.823 81.3461 23.4155 81.0649 22.9815Z" fill="#22ACE5"/>
<path d="M43.485 23.4482C43.5398 23.5165 43.2902 23.7889 43.6343 23.6665C43.7288 23.6323 43.8461 23.5934 43.9066 23.7386C43.8385 23.8705 43.7175 23.8278 43.6164 23.823C43.3668 23.8088 43.2978 23.9236 43.2912 24.158C43.2836 24.4512 43.2297 24.7435 43.1966 25.0367C43.1834 25.1657 43.1267 25.2407 42.9887 25.2265C42.965 25.2269 42.9416 25.2221 42.9201 25.2122C42.8986 25.2024 42.8795 25.1878 42.8644 25.1696C42.8492 25.1514 42.8383 25.13 42.8325 25.107C42.8267 25.084 42.8261 25.0599 42.8308 25.0367C42.8658 24.8118 42.6975 24.5518 42.9981 24.3648C43.1872 24.2462 43.1475 24.0745 42.9036 24.0081C43.0689 23.7937 43.2648 23.6051 43.485 23.4482Z" fill="#1FABE2"/>
<path d="M45.5647 30.2482C45.1998 30.4522 44.7999 30.3611 44.4303 30.3336C43.882 30.2928 43.4084 30.4996 42.9112 30.6438C42.692 30.5336 42.4964 30.3815 42.3355 30.196C42.326 29.9882 42.4546 30.0138 42.5869 30.0479C43.2638 30.3222 43.9794 30.2377 44.6817 30.2662C44.9729 30.2776 45.2688 30.2548 45.5647 30.2482Z" fill="#30ABE8"/>
<path d="M38.1137 16.5639C37.9605 16.3039 37.9946 16.1625 38.3358 16.171C38.8085 16.1815 39.2812 16.171 39.8228 16.171C39.6545 16.4187 39.3785 16.3267 39.3303 16.5506L38.1137 16.5639Z" fill="#1DB0DC"/>
<path d="M48.8694 15.9844H49.0585C49.2948 16.0641 49.4896 16.269 49.4641 16.4664C49.4385 16.6638 49.1805 16.4133 49.0217 16.5129C48.8383 16.6268 48.5887 16.4702 48.4025 16.6277C48.3501 16.6397 48.2957 16.6396 48.2434 16.6276C48.191 16.6157 48.142 16.592 48.1 16.5584C48.2096 16.4503 48.5376 16.4047 48.2087 16.1732C48.185 16.029 48.2919 16.0451 48.3788 16.0337C48.5377 16.0119 48.7144 16.083 48.8694 15.9844Z" fill="#196D90"/>
<path d="M110.014 17.6753C109.793 17.5586 109.574 17.4409 109.352 17.3251C109.258 17.2739 109.109 17.2113 109.163 17.0955C109.388 16.5812 108.95 16.6685 108.736 16.6571C108.074 16.6248 107.418 16.6429 106.758 16.641C107.535 16.4246 108.331 16.4588 109.095 16.6135C109.585 16.7131 109.775 17.2568 110.014 17.6753Z" fill="#23AEDE"/>
<path d="M113.364 16.9985C113.373 17.23 113.381 17.4612 113.389 17.6921C113.437 17.8731 113.437 18.0635 113.389 18.2444C113.4 19.3375 113.341 20.4269 113.42 21.5248C113.443 21.8389 113.394 22.1757 113.372 22.5021C113.363 22.634 113.319 22.7384 113.194 22.561C113.383 22.4405 113.301 22.2469 113.302 22.0865C113.31 20.5588 113.302 19.032 113.31 17.5052C113.31 17.3373 113.269 17.1598 113.364 16.9985Z" fill="#30B5DD"/>
<path d="M42.9064 12.9326C42.9556 13.1489 43.3441 13.241 43.1201 13.5626C42.8601 13.9346 42.5321 13.9669 42.1473 13.8046C42.3463 13.4707 42.6034 13.1753 42.9064 12.9326Z" fill="#21ABE2"/>
<path d="M96.8337 18.9714C97.0029 19.4639 96.7968 19.9592 96.8441 20.4536C96.8545 20.5665 96.8289 20.7231 96.69 20.686C96.3988 20.6101 96.4366 20.9119 96.2882 20.9897C96.4217 20.3047 96.6039 19.6302 96.8337 18.9714Z" fill="#25ADDF"/>
<path d="M68.2313 16.5525C68.4989 16.7423 68.8051 16.599 69.0897 16.6474C69.1984 16.6673 69.325 16.6854 69.3061 16.8296C69.2901 16.9549 69.1634 16.915 69.0774 16.9245C68.6189 16.9871 68.167 16.8476 67.6972 16.9046C67.3522 16.9463 67.7284 16.7062 67.6594 16.6085C67.8381 16.4814 68.0357 16.5307 68.2313 16.5525Z" fill="#1DAEDE"/>
<path d="M49.5208 21.4604C49.3931 21.2146 49.0708 21.04 49.2372 20.687C49.2665 20.6073 49.3317 20.5988 49.4045 20.6016C49.6456 20.5153 49.8611 20.5295 50.0189 20.7629C50.0393 20.7958 50.048 20.8346 50.0436 20.873C50.0391 20.9115 50.0217 20.9473 49.9944 20.9745C49.8691 21.1655 49.7083 21.3305 49.5208 21.4604Z" fill="#20B1E0"/>
<path d="M46.7917 20.7087C46.7917 21.3331 46.7142 21.3891 46.0354 21.2781C46.0128 21.2576 45.996 21.2313 45.9869 21.2021C45.9778 21.173 45.9766 21.1418 45.9834 21.112C46.0422 21.011 46.0889 20.9033 46.1224 20.7913L46.406 20.5066C46.4239 20.5892 46.423 20.7068 46.5582 20.6129C46.6934 20.5189 46.7747 20.536 46.7917 20.7087Z" fill="#21ABE6"/>
<path d="M49.3345 17.6724C49.932 17.7492 49.9348 18.181 49.9064 18.6317C49.6975 18.4419 49.4924 18.2521 49.2778 18.0747C49.0632 17.8973 49.1748 17.7862 49.3345 17.6724Z" fill="#1D6F93"/>
<path d="M124.716 17.288C124.54 17.4882 124.395 17.8896 124.094 17.7169C123.663 17.4693 124.256 17.2861 124.235 17.0366C124.417 17.0691 124.585 17.1569 124.716 17.288Z" fill="#1FB0D9"/>
<path d="M76.24 24.4541C76.258 24.4797 76.2864 24.5034 76.2911 24.5319C76.4225 25.3394 77.0473 25.1259 77.5616 25.1496L77.7024 25.1582C77.1931 25.2526 76.6709 25.2526 76.1616 25.1582C75.9829 25.0234 75.9952 24.8498 76.067 24.6657L76.24 24.4541Z" fill="#28ACDF"/>
<path d="M49.9972 20.9744L50.0029 20.8017C49.9423 20.7377 49.9085 20.6528 49.9085 20.5645C49.9085 20.4762 49.9423 20.3913 50.0029 20.3273C50.2326 20.2125 50.5654 19.9221 50.692 20.0958C50.8603 20.3263 50.4339 20.4753 50.2988 20.6831C50.2102 20.792 50.109 20.8898 49.9972 20.9744Z" fill="#2DB2E0"/>
<path d="M46.1299 24.6763C46.2169 24.2673 46.301 23.8574 46.7917 23.7322C46.9193 23.865 46.8512 24.0045 46.8058 24.143C46.6483 24.3521 46.4595 24.5355 46.2462 24.6868C46.2382 24.6943 46.2286 24.7 46.2182 24.7036C46.2078 24.7072 46.1967 24.7085 46.1857 24.7076C46.1748 24.7066 46.1642 24.7033 46.1545 24.6979C46.1449 24.6925 46.1365 24.6852 46.1299 24.6763Z" fill="#23ADDD"/>
<path d="M83.242 25.161C83.5331 25.161 83.8243 25.1496 84.1154 25.1487C84.7961 25.1487 84.8499 25.0747 84.6637 24.4104C84.8575 24.567 85.09 24.7368 84.9794 25.0149C84.8688 25.2929 84.5824 25.2189 84.3565 25.2113C83.9869 25.198 83.6088 25.2787 83.242 25.161Z" fill="#24ACE3"/>
<path d="M45.5637 31.6687C45.6841 31.6019 45.7841 31.5035 45.853 31.384C45.9295 31.272 45.9872 31.0547 46.1876 31.2179C46.3766 31.3698 46.353 31.5349 46.1469 31.6639C46.1146 31.6842 46.0877 31.7121 46.0684 31.7452C46.0492 31.7782 46.0382 31.8154 46.0363 31.8537C45.8733 31.8778 45.7069 31.8464 45.5637 31.7645C45.5322 31.7436 45.5218 31.7227 45.5325 31.7019C45.5419 31.6791 45.5523 31.6687 45.5637 31.6687Z" fill="#1FB1DD"/>
<path d="M46.1299 24.6763L46.2462 24.6867C46.0843 24.9074 45.8873 25.0998 45.663 25.2561C45.6647 25.1635 45.6552 25.0711 45.6346 24.9809C45.5807 24.8357 45.3576 24.7076 45.5467 24.5425C45.7358 24.3774 45.8378 24.6374 45.991 24.6716C46.0371 24.6765 46.0836 24.6781 46.1299 24.6763Z" fill="#28AAE8"/>
<path d="M49.0585 14.4736L48.5773 14.5685C48.8118 14.1528 49.1597 14.0124 49.6314 14.0845C50.0445 14.1472 50.4727 14.0712 50.8849 14.1794C50.4226 14.1794 49.9594 14.188 49.4962 14.1889C49.2854 14.1889 49.0821 14.1899 49.0585 14.4736Z" fill="#286D9D"/>
<path d="M111.779 20.3956C111.752 20.5076 111.803 20.6803 111.623 20.6869C111.418 20.6869 111.305 20.4971 111.173 20.3795C111.058 20.2751 111.202 20.1982 111.294 20.1413C111.319 20.1446 111.343 20.1424 111.367 20.1348C111.39 20.1273 111.412 20.1147 111.43 20.0978C111.448 20.0809 111.462 20.0603 111.471 20.0373C111.481 20.0143 111.485 19.9895 111.483 19.9648C111.623 20.0746 111.727 20.225 111.779 20.3956Z" fill="#1FB2DB"/>
<path d="M50.917 19.5864C50.9627 19.5835 51.0067 19.568 51.0441 19.5415C51.0815 19.5151 51.1108 19.4787 51.1287 19.4364C51.3235 19.0009 51.3641 18.999 51.6893 19.3795C51.4398 19.4782 51.3414 20.1415 50.917 19.5864Z" fill="#1C748F"/>
<path d="M50.9699 11.4408C50.7431 11.5034 50.4217 11.2425 50.2855 11.6505C50.2638 11.716 50.1211 11.6382 50.1258 11.5651C50.1381 11.3554 49.9235 11.2567 49.9112 11.0669C50.2862 11.1162 50.6468 11.2435 50.9699 11.4408Z" fill="#26ABE3"/>
<path d="M32.0505 24.79C32.0597 24.6519 32.1217 24.5227 32.2235 24.4294C32.6205 24.6847 32.5165 24.9807 32.3284 25.2834C32.1899 25.1496 32.0934 24.9781 32.0505 24.79Z" fill="#1DB2DE"/>
<path d="M46.8058 24.143L46.7917 23.7321C47.1414 23.7758 47.3295 23.53 47.5384 23.3175C47.6453 23.2083 47.7389 23.0727 47.9166 23.0679C47.5852 23.4646 47.2129 23.825 46.8058 24.143Z" fill="#29AEE8"/>
<path d="M74.2142 20.0379H71.6033C72.4716 19.9551 73.3459 19.9551 74.2142 20.0379Z" fill="#20ADE2"/>
<path d="M44.5248 12.2056C44.2526 12.5728 44.1467 12.0016 43.9236 12.0974C44.0672 11.9475 44.2436 11.8332 44.4388 11.7634C44.522 11.9 44.8509 11.9892 44.5248 12.2056Z" fill="#20B0DD"/>
<path d="M56.2391 16.2776C56.2929 16.335 56.3646 16.3725 56.4423 16.3839C56.5201 16.3952 56.5994 16.3798 56.6673 16.3402C57.0455 16.0555 56.9254 16.4294 56.9878 16.5622H55.8856C55.9141 16.4876 55.9619 16.422 56.024 16.372C56.0861 16.3219 56.1604 16.2894 56.2391 16.2776Z" fill="#23ADDE"/>
<path d="M58.3131 14.8503C58.3746 15.1758 57.9974 15.1265 57.9095 15.3248C57.78 15.265 57.8802 15.0543 57.71 15.0221C57.7979 14.8864 57.8584 14.726 58.0276 14.6615C58.1968 14.597 58.211 14.7981 58.3131 14.8503Z" fill="#23AEDC"/>
<path d="M42.7259 24.1951C42.3742 24.457 42.7646 24.9732 42.3875 25.2816C42.2693 25.0861 42.4773 24.7977 42.154 24.7654L42.7259 24.1951Z" fill="#1FABE2"/>
<path d="M47.0724 29.8828C47.0074 30.0056 46.9328 30.123 46.8493 30.2339C46.7217 30.3781 46.5827 30.6334 46.4249 30.2405C46.3833 30.1342 46.2358 30.1599 46.1262 30.1551L47.0724 29.8828Z" fill="#1FB0DB"/>
<path d="M117.813 24.6762C118.157 25.0358 117.848 25.0339 117.598 25.0643C117.555 25.051 117.516 25.0254 117.487 24.9906C117.458 24.9557 117.439 24.9131 117.434 24.8679C117.44 24.7445 117.424 24.6088 117.555 24.5386C117.686 24.4684 117.719 24.6449 117.813 24.6762Z" fill="#1AB1DD"/>
<path d="M41.6917 25.4324C41.6605 25.5586 41.6284 25.6848 41.5972 25.8119C41.2739 26.127 41.2313 25.6221 41.0205 25.6136C41.1575 25.4855 41.3203 25.3884 41.4979 25.3289C41.5363 25.3281 41.5743 25.3372 41.6082 25.3553C41.6421 25.3734 41.6709 25.3999 41.6917 25.4324Z" fill="#25B1DC"/>
<path d="M145.03 16.45H142.718C143.481 16.2963 144.267 16.2963 145.03 16.45Z" fill="#2BADE3"/>
<path d="M31.6808 23.0706L31.5863 23.3553C31.5815 23.3624 31.5751 23.3681 31.5676 23.3721C31.5601 23.3761 31.5518 23.3782 31.5433 23.3782C31.5348 23.3782 31.5264 23.3761 31.5189 23.3721C31.5115 23.3681 31.505 23.3624 31.5003 23.3553C31.367 23.0238 31.3008 22.669 31.3055 22.3115C31.4511 22.4529 31.8245 22.4937 31.5126 22.8353C31.4521 22.9017 31.5797 23.0185 31.6808 23.0669V23.0706Z" fill="#22B1DE"/>
<path d="M35.4687 24.8424L35.3902 25.222C35.1775 25.1783 35.0811 24.9895 34.8722 24.8652L35.2919 24.6687L35.4687 24.8424Z" fill="#1FAEDB"/>
<path d="M34.963 27.8987C35.1416 27.8892 35.2125 27.4669 35.4999 27.8038C35.671 28.0012 35.5642 28.06 35.4602 28.172C35.2722 28.1294 35.1 28.0347 34.963 27.8987Z" fill="#24B0DB"/>
<path d="M43.1957 30.8213C43.4036 30.9627 43.4462 30.4512 43.7392 30.7112C43.9982 30.9428 43.8574 30.9959 43.6778 31.0908C43.4983 31.04 43.3332 30.9477 43.1957 30.8213Z" fill="#1FB1DD"/>
<path d="M34.1264 15.4851C34.1897 15.7442 34.2086 15.988 33.9486 16.1693C33.8787 16.2177 33.8257 16.2642 33.753 16.1959C33.6802 16.1275 33.7369 16.0545 33.7586 15.9842C33.8333 15.9121 33.8097 15.803 33.8531 15.7205C33.9562 15.6521 33.96 15.4747 34.1264 15.4851Z" fill="#1FABE2"/>
<path d="M82.2021 21.2782C82.1142 21.3522 82.0471 21.468 81.911 21.3152C81.7446 21.1254 81.6274 20.9413 81.842 20.7126C81.927 20.9233 82.1577 21.041 82.2021 21.2782Z" fill="#29AEEF"/>
<path d="M118.097 16.5508V16.6457C118.114 16.7937 118.002 16.8573 117.908 16.9304C117.75 16.9514 117.589 16.9198 117.451 16.8402C117.573 16.5347 117.821 16.51 118.097 16.5508Z" fill="#20AEED"/>
<path d="M61.0413 22.4814C61.0397 22.542 61.0477 22.6026 61.0649 22.6607C61.1141 22.7623 61.3703 22.5032 61.3126 22.7822C61.2672 23.0052 61.081 23.0877 60.856 23.0669C60.8784 22.8613 60.9414 22.6622 61.0413 22.4814Z" fill="#24AEF0"/>
<path d="M45.5637 31.6688C45.5637 31.7001 45.5637 31.7314 45.5637 31.7636C45.4266 31.7636 45.2905 31.7712 45.1761 31.6763C45.4162 31.6109 44.9247 31.3604 45.2914 31.2835C45.7603 31.1839 45.4002 31.5957 45.5637 31.6688Z" fill="#24AFEC"/>
<path d="M58.6922 25.9051C58.4143 26.1813 58.125 25.964 57.8414 25.9184L58.1912 25.8008C58.3594 25.8406 58.5579 25.7438 58.6922 25.9051Z" fill="#1CB1D9"/>
<path d="M146.524 24.8565V24.4883C146.706 24.4167 146.909 24.4167 147.091 24.4883L147.201 24.4959C147.025 24.6934 146.785 24.8213 146.524 24.8565Z" fill="#25B2DA"/>
<path d="M133.599 23.4417C133.258 23.8801 133.155 23.5223 133.021 23.2699C133.238 23.2434 133.45 23.2358 133.599 23.4417Z" fill="#20B3E9"/>
<path d="M35.7079 28.28C36.1153 28.1851 36.4197 28.3616 36.6862 28.6444C36.337 28.5981 36.0027 28.4735 35.7079 28.28Z" fill="#2BADEA"/>
<path d="M51.6978 30.2349C51.6515 30.1476 51.4681 30.1173 51.6194 29.9502C51.7706 29.7832 51.9077 29.7548 52.092 29.8743C52.0582 29.9607 52.0051 30.0381 51.9367 30.1007C51.8684 30.1632 51.7866 30.2091 51.6978 30.2349Z" fill="#2BACF0"/>
<path d="M53.3134 21.3827C53.492 21.023 53.7992 20.7991 54.1358 20.6074C53.8872 20.893 53.6622 21.2043 53.3134 21.3827Z" fill="#257392"/>
<path d="M84.485 24.2016C84.0757 24.3554 84.0237 24.3459 84.0029 24.1068C84.0975 24.0384 84.089 23.9018 84.1797 23.8297L84.2109 23.8088C84.3366 23.9179 84.4661 24.0214 84.485 24.2016Z" fill="#24ACE3"/>
<path d="M35.8374 17.4921C35.8703 17.4413 35.8897 17.3829 35.8939 17.3224C35.898 17.262 35.8867 17.2015 35.861 17.1467C35.7939 16.9778 35.8969 16.9702 36.0245 17.0243C36.1663 17.0394 36.3261 16.9825 36.432 17.1324C36.2486 17.2776 36.0756 17.4389 35.8374 17.4921Z" fill="#2AACE4"/>
<path d="M75.1255 18.1592C75.0868 18.0131 74.8192 17.9002 75.0074 17.7322C75.1577 17.5965 75.2664 17.8271 75.3996 17.8727C75.3897 17.9433 75.3579 18.0089 75.3087 18.0604C75.2595 18.1118 75.1954 18.1464 75.1255 18.1592Z" fill="#1BB3DC"/>
<path d="M50.0029 20.3301V20.8046C49.8044 20.7372 49.6455 20.555 49.4073 20.6043C49.5851 20.473 49.7878 20.3797 50.0029 20.3301Z" fill="#33ABE8"/>
<path d="M82.4006 24.6763C82.7684 24.6478 82.9054 24.9847 83.1569 25.1507C83.0012 25.1423 82.8501 25.0943 82.7179 25.0113C82.5856 24.9284 82.4765 24.8131 82.4006 24.6763Z" fill="#24ACE3"/>
<path d="M60.3777 15.0457C60.2756 15.115 60.3087 15.2355 60.2529 15.3399C60.3361 15.1311 59.629 15.2052 60.1026 14.8655C60.1614 14.8631 60.2195 14.8792 60.2688 14.9115C60.3181 14.9438 60.3561 14.9907 60.3777 15.0457Z" fill="#24B0DC"/>
<path d="M40.8419 28.4558L41.4383 28.4691C41.1393 28.6373 40.8052 28.7329 40.4628 28.748C40.5498 28.6 40.7947 28.6532 40.8419 28.4558Z" fill="#31ACE7"/>
<path d="M36.432 17.1324C36.2958 17.0983 36.1323 17.1675 36.0245 17.0242C36.2391 16.8686 36.4594 16.8905 36.6815 17.0072L36.432 17.1324Z" fill="#1CB3DC"/>
<path d="M52.7311 21.373C52.8606 21.7213 53.0752 21.5495 53.2765 21.4622C53.1555 21.5989 53.0345 21.7355 52.9107 21.8769C52.7386 21.7147 52.7358 21.5429 52.7311 21.373Z" fill="#2672A2"/>
<path d="M63.3261 18.533C63.0425 18.4258 62.8223 18.2863 63.0529 17.9399C63.1901 18.1127 63.2838 18.3162 63.3261 18.533Z" fill="#2CAAEB"/>
<path d="M48.7711 18.5113C48.7409 18.3348 48.6653 18.4164 48.5944 18.4809C48.4819 18.5815 48.3958 18.7219 48.2209 18.7267C48.3571 18.5843 48.4894 18.442 48.6293 18.3006C48.687 18.2446 48.7721 18.2057 48.8326 18.2835C48.8931 18.3613 48.8666 18.4553 48.7711 18.5113Z" fill="#3AB2E4"/>
<path d="M34.1462 19.979C34.0848 19.6099 34.2199 19.3234 34.512 19.1023L34.1462 19.979Z" fill="#25B1DD"/>
<path d="M114.918 16.6343L113.735 16.639C113.92 16.5511 114.122 16.505 114.326 16.5042C114.531 16.5034 114.733 16.5478 114.918 16.6343Z" fill="#22ACE2"/>
<path d="M74.5583 21.4641C74.685 21.1263 74.6529 20.7742 74.6529 20.426C74.7616 20.7847 74.8693 21.1434 74.5583 21.4641Z" fill="#20ADE2"/>
<path d="M139.655 23.6287L139.805 23.27C139.994 23.4816 139.894 23.66 139.812 23.8393C139.772 23.8187 139.736 23.789 139.709 23.7525C139.682 23.7159 139.664 23.6736 139.655 23.6287Z" fill="#20B4DB"/>
<path d="M41.1169 17.14C41.1462 16.9417 41.2852 16.8553 41.4242 16.9806C41.5631 17.1058 41.3693 17.1703 41.2805 17.2311L41.1169 17.14Z" fill="#1BB3D9"/>
<path d="M58.3131 14.8502C58.1666 14.8654 58.124 14.7183 58.0295 14.6604L58.4076 14.2666C58.4076 14.4668 58.193 14.6339 58.3131 14.8502Z" fill="#2FAEE7"/>
<path d="M56.9831 16.5573C57.1438 16.5573 57.2969 16.5402 57.3688 16.3627C57.7639 16.34 57.5049 16.5297 57.4633 16.6474C57.2979 16.6436 57.1296 16.6578 56.9831 16.5573Z" fill="#23ADDE"/>
<path d="M31.5003 23.3552H31.5863C31.851 23.4852 31.7678 23.6693 31.6648 23.8563C31.5643 23.708 31.5073 23.5344 31.5003 23.3552Z" fill="#27ADEB"/>
<path d="M145.962 16.6447C145.731 16.6817 145.515 16.602 145.295 16.5555C145.283 16.5682 145.268 16.5784 145.252 16.5853C145.236 16.5922 145.218 16.5958 145.201 16.5958C145.183 16.5958 145.165 16.5922 145.149 16.5853C145.133 16.5784 145.118 16.5682 145.106 16.5555C145.106 16.5242 145.106 16.4929 145.106 16.4606C145.402 16.4458 145.697 16.5093 145.962 16.6447Z" fill="#2BADE3"/>
<path d="M60.0137 27.9689C60.0308 27.8351 59.9476 27.6444 60.0752 27.5808C60.235 27.5011 60.1773 27.7706 60.304 27.8C60.2304 27.8893 60.1275 27.9492 60.0137 27.9689Z" fill="#22B5D6"/>
<path d="M53.2774 28.449C53.2122 28.4035 53.1366 28.3494 53.1905 28.2649C53.2231 28.2197 53.2706 28.1876 53.3245 28.174C53.3785 28.1605 53.4354 28.1665 53.4854 28.1909C53.5866 28.227 53.5724 28.3001 53.4968 28.3627L53.2774 28.449Z" fill="#1FABE2"/>
<path d="M42.5822 30.0451C42.5308 30.0446 42.4803 30.0582 42.436 30.0842C42.3918 30.1103 42.3554 30.1479 42.3307 30.1931L41.9526 29.8971C42.1733 29.8706 42.3962 29.923 42.5822 30.0451Z" fill="#36B4E0"/>
<path d="M78.5239 22.0317L78.2318 21.9311C78.2934 21.781 78.3908 21.6484 78.5154 21.5449C78.4237 21.7081 78.6052 21.8685 78.5239 22.0317Z" fill="#20B2E3"/>
<path d="M77.1976 23.2471C77.2146 23.5318 77.053 23.6618 76.8044 23.7216C76.9197 23.5517 77.0246 23.3714 77.1976 23.2471Z" fill="#28ACDF"/>
<path d="M41.0215 25.6118C41.1387 25.8149 40.9667 25.9117 40.8447 25.9439C40.7228 25.9762 40.7644 25.8168 40.7502 25.7352L41.0215 25.6118Z" fill="#17AFEA"/>
<path d="M45.6592 14.2857C45.6417 14.2646 45.629 14.2399 45.6219 14.2134C45.6148 14.1868 45.6136 14.159 45.6183 14.132C45.623 14.1049 45.6334 14.0792 45.649 14.0566C45.6645 14.034 45.6848 14.015 45.7083 14.001C45.8596 13.8919 45.869 14.1073 45.9702 14.1111C45.8908 14.2041 45.8029 14.299 45.6592 14.2857Z" fill="#2AB1DB"/>
<path d="M142.557 16.4605C142.324 16.6417 142.056 16.6645 141.776 16.636C142.016 16.5089 142.285 16.4483 142.557 16.4605Z" fill="#2BADE3"/>
<path d="M83.3412 16.5488C83.31 16.6124 83.2779 16.676 83.2467 16.7386C83.0576 16.8515 82.9508 16.5631 82.7684 16.6437C82.9414 16.4995 83.1418 16.5299 83.3412 16.5488Z" fill="#29ADEB"/>
<path d="M147.73 17.6894C147.387 17.8299 147.423 17.5613 147.386 17.3706C147.536 17.4312 147.658 17.5446 147.73 17.6894Z" fill="#39AEEC"/>
<path d="M35.2674 18.05C35.2894 17.9362 35.3448 17.8315 35.4265 17.7495C35.5082 17.6675 35.6124 17.6119 35.7258 17.5898C35.6218 17.7919 35.4375 17.9143 35.2674 18.05Z" fill="#2AACE4"/>
<path d="M46.0382 21.0856C46.0382 21.1491 46.0382 21.2118 46.0382 21.2754H45.6649C45.6951 21.1235 45.8208 21.0609 45.9343 20.9907C46.0288 20.9537 46.0534 20.9992 46.0382 21.0856Z" fill="#26B6CB"/>
<path d="M47.737 15.5154C47.7198 15.6242 47.6711 15.7254 47.597 15.8066C47.5228 15.8878 47.4266 15.9452 47.3201 15.9718C47.4238 15.7907 47.5662 15.6348 47.737 15.5154Z" fill="#2A74A2"/>
<path d="M112.114 24.6885C112.222 24.7834 112.612 24.5936 112.414 24.9903C112.344 24.9676 112.28 24.9284 112.228 24.8759C112.175 24.8234 112.136 24.7592 112.114 24.6885Z" fill="#2BB8D5"/>
<path d="M53.3881 25.1515C53.199 25.0434 53.0572 25.1781 52.8984 25.2331C53.0241 24.9798 53.1602 24.7919 53.3881 25.1515Z" fill="#36B1DB"/>
<path d="M47.2511 16.0498C47.269 16.1693 47.5923 16.3791 47.1565 16.3658C46.9505 16.1912 47.1641 16.139 47.2511 16.0498Z" fill="#176E95"/>
<path d="M41.6917 25.4326C41.6536 25.4353 41.6156 25.427 41.582 25.4087C41.5485 25.3904 41.521 25.3628 41.5026 25.3292C41.5773 25.2343 41.6558 25.146 41.7862 25.146C41.7834 25.2514 41.8032 25.3643 41.6917 25.4326Z" fill="#1FABE2"/>
<path d="M97.6731 17.4873C97.7601 17.5025 97.8622 17.474 97.9217 17.5642C97.9321 17.5803 97.8943 17.6534 97.866 17.6591C97.8165 17.6821 97.7601 17.685 97.7085 17.6674C97.6569 17.6497 97.6141 17.6127 97.589 17.5642L97.6731 17.4873Z" fill="#14B4D4"/>
<path d="M101.759 23.0753C101.948 22.932 102.137 22.9083 102.326 23.0915L101.759 23.0753Z" fill="#1FACE1"/>
<path d="M34.3202 23.1646C34.099 23.0584 34.1311 22.8629 34.1453 22.6731C34.2393 22.8218 34.2991 22.9898 34.3202 23.1646Z" fill="#31AEE1"/>
<path d="M33.8569 15.7166C33.926 15.8419 33.9836 15.9643 33.7624 15.9804L33.6603 15.8855C33.674 15.8417 33.6997 15.8026 33.7345 15.7727C33.7693 15.7429 33.8117 15.7234 33.8569 15.7166Z" fill="#23B8D6"/>
<path d="M76.0642 24.6638C76.0507 24.8335 76.0834 25.0037 76.1587 25.1563C75.8572 25.0452 75.9375 24.8593 76.0642 24.6638Z" fill="#2BB5E7"/>
<path d="M50.1957 31.2085C50.2184 30.938 50.4226 31.0244 50.5739 31.013C50.4745 31.1205 50.3407 31.1897 50.1957 31.2085Z" fill="#1FABE2"/>
<path d="M44.5257 26.1887H44.7063C44.6463 26.3103 44.546 26.4073 44.4227 26.4629C44.4586 26.3699 44.4917 26.2788 44.5257 26.1887Z" fill="#2FADE6"/>
<path d="M44.1419 26.7382C44.145 26.6659 44.1754 26.5976 44.2268 26.5471C44.2783 26.4965 44.3469 26.4674 44.4189 26.4658C44.3613 26.5864 44.2633 26.6829 44.1419 26.7382Z" fill="#2FADE6"/>
<path d="M43.2912 12.5671C43.2912 12.774 43.1862 12.8689 42.9811 12.8518L43.2912 12.5671Z" fill="#21ABE2"/>
<path d="M46.0383 21.0857L45.9324 20.9908L46.1214 20.7925C46.1952 20.9168 46.2027 21.0306 46.0383 21.0857Z" fill="#2CAEDC"/>
<path d="M34.513 19.1003C34.513 18.9324 34.529 18.7806 34.7276 18.7312C34.657 18.8546 34.5854 18.9776 34.513 19.1003Z" fill="#25B1DD"/>
<path d="M48.4025 19.3964C48.3836 19.2332 48.4081 19.089 48.5745 19.0083C48.5654 19.1542 48.5044 19.292 48.4025 19.3964Z" fill="#3AB2E4"/>
<path d="M54.9147 10.4304C54.915 10.468 54.9072 10.5052 54.8918 10.5394C54.8763 10.5736 54.8537 10.6041 54.8254 10.6286C54.797 10.6532 54.7637 10.6712 54.7277 10.6816C54.6917 10.6919 54.654 10.6943 54.617 10.6885C54.6461 10.6272 54.6876 10.5725 54.7389 10.5281C54.7902 10.4837 54.85 10.4504 54.9147 10.4304Z" fill="#1D74A0"/>
<path d="M31.8491 20.7154C31.7962 20.0512 31.9862 19.8339 32.49 19.9563C32.6214 19.9885 32.7925 20.1195 32.7566 20.1736C32.5505 20.4791 32.785 20.7059 32.8332 20.9716C32.8909 21.2923 32.6139 21.5466 32.3709 21.5779C32.2027 21.5998 31.7933 21.502 31.8652 21.0826C31.8736 20.96 31.8682 20.8368 31.8491 20.7154Z" fill="#1EADDE"/>
<path d="M40.8419 28.4557C40.7587 28.4443 40.6396 28.487 40.6122 28.376C40.5847 28.265 40.6954 28.2726 40.7644 28.2726C40.9241 28.2726 40.8636 28.3741 40.8419 28.4557Z" fill="#12B3DD"/>
<path d="M31.6808 23.0705C31.6931 22.9861 31.6525 22.8807 31.7631 22.838C31.781 22.8314 31.8434 22.8798 31.8481 22.9092C31.8689 23.0345 31.7753 23.0563 31.6808 23.0705Z" fill="#27ADEB"/>
<path d="M61.2493 19.552C61.3513 19.7769 61.3788 19.9316 61.2748 20.0834C61.2551 20.0898 61.2343 20.0917 61.2139 20.0889C61.1934 20.0861 61.1738 20.0787 61.1566 20.0673C61.0649 19.9003 61.1462 19.7617 61.2493 19.552Z" fill="#11B4DD"/>
<path d="M55.0603 28.4452C55.0508 28.5277 54.9913 28.54 54.9261 28.5344C54.8865 28.5341 54.8482 28.5199 54.818 28.4942C54.7878 28.4685 54.7675 28.4331 54.7606 28.3939C54.7493 28.2924 54.8296 28.2658 54.9156 28.2876C54.9542 28.2931 54.9896 28.3117 55.016 28.3404C55.0424 28.3692 55.058 28.4062 55.0603 28.4452Z" fill="#21ADD5"/>
<path d="M58.8747 14.6577C58.8094 14.6491 58.7329 14.6463 58.7423 14.5628C58.7518 14.4793 58.8208 14.4736 58.8822 14.4935C58.9229 14.5058 58.9768 14.5381 58.9862 14.5723C59.0155 14.6776 58.92 14.6415 58.8747 14.6577Z" fill="#12B5DD"/>
<path d="M57.3688 16.3629C57.2846 16.3505 57.1797 16.3913 57.1362 16.2803C57.1296 16.2623 57.1788 16.1997 57.2081 16.1949C57.3329 16.174 57.3555 16.267 57.3697 16.3619L57.3688 16.3629Z" fill="#1CA7F1"/>
<path d="M57.7223 28.3712C57.7629 28.3504 57.7989 28.3171 57.8367 28.3152C57.918 28.3152 57.9312 28.3779 57.9132 28.4358C57.9038 28.4661 57.8556 28.4832 57.8244 28.5069L57.7223 28.3712Z" fill="#19B1D4"/>
<path d="M54.3475 13.1547C54.1122 13.1756 53.9883 13.1224 53.9524 12.8359C53.9193 12.5768 53.751 12.3348 53.6423 12.0843C53.7416 11.9951 53.8134 12.0473 53.8834 12.1213C53.9246 12.1702 53.9829 12.2015 54.0463 12.2087C54.1098 12.216 54.1735 12.1986 54.2246 12.1602C54.3768 12.0653 54.2691 11.9638 54.236 11.8433C54.1226 11.4353 54.425 11.347 54.7247 11.2654C55.0272 11.5359 55.3089 11.8196 55.7561 11.8689C55.9451 11.8898 55.7797 12.202 55.9536 12.3045C55.9913 12.3292 56.0235 12.3615 56.0481 12.3994C56.0803 12.7552 56.4102 12.8567 56.6153 13.0636C56.4726 13.3578 56.1096 13.3435 55.9593 13.2856C55.4205 13.074 54.8807 13.1974 54.3475 13.1547Z" fill="#156E96"/>
<path d="M56.6135 13.0597C56.586 13.0474 56.5577 13.0237 56.5303 13.0237C56.0709 13.0313 55.9631 12.7456 55.9716 12.3594C56.2959 12.5266 56.6352 12.6629 56.985 12.7665L56.9944 12.7798C56.8857 12.8813 56.7657 12.9772 56.8054 13.1527L56.6135 13.0597Z" fill="#176E96"/>
<path d="M51.2989 14.5323C51.2649 14.6566 51.1854 14.6575 51.1098 14.6528C51.0342 14.6481 50.9709 14.6073 51.0021 14.5475C51.0457 14.4881 51.1109 14.4486 51.1836 14.4374C51.2166 14.4308 51.2649 14.5029 51.2989 14.5323Z" fill="#087497"/>
<path d="M53.2907 20.8568C53.286 20.9355 53.2321 20.9725 53.1697 20.9459C53.1441 20.9328 53.1215 20.9143 53.1036 20.8917C53.0857 20.8692 53.0727 20.843 53.0657 20.815C53.0525 20.7334 53.1271 20.7201 53.1905 20.7277C53.2538 20.7353 53.286 20.7913 53.2907 20.8568Z" fill="#097884"/>
<path d="M74.9771 24.7864C74.9355 24.5368 74.7748 24.4011 74.9544 24.2635C74.9733 24.2543 74.9942 24.2499 75.0152 24.2509C75.0362 24.2519 75.0565 24.2582 75.0745 24.2692C75.1879 24.4286 75.0801 24.5548 74.9771 24.7864Z" fill="#1DAAF2"/>
<path d="M91.2658 21.541C90.4509 21.5467 89.636 21.541 88.8212 21.5629C88.5376 21.5695 88.3958 21.5173 88.4043 21.1833C88.426 20.3217 88.4194 19.4591 88.4043 18.5966C88.4043 18.3394 88.4714 18.2332 88.7475 18.2398C89.515 18.2578 90.2845 18.2294 91.0512 18.2635C91.8178 18.2977 92.4606 18.5681 92.6705 19.4155C92.6705 19.4942 92.6705 19.5721 92.6705 19.6499C92.7159 20.8759 92.4824 21.1899 91.2658 21.541Z" fill="#FEFEFE"/>
<path d="M86.2688 22.2006C86.2688 22.1057 86.2688 22.0109 86.2688 21.916C86.2603 21.6702 86.2424 21.4415 86.6139 21.4557C86.9532 21.4681 87.2302 21.5231 87.2085 21.9302C87.1896 22.2813 87.373 22.7036 86.9097 22.9284C86.7538 23.0044 86.6025 23.1182 86.4239 23.0319C86.2254 22.937 86.2754 22.7406 86.2698 22.5726C86.266 22.454 86.2688 22.3268 86.2688 22.2006Z" fill="#1BAEE2"/>
<path d="M86.2868 17.5139C86.1923 16.9607 86.5411 16.9673 86.854 16.9294C87.1669 16.8914 87.216 17.0518 87.217 17.3184C87.217 17.8678 86.733 17.679 86.4787 17.7862C86.2084 17.8991 86.3265 17.5737 86.2868 17.5139Z" fill="#1EADE4"/>
<path d="M93.0685 20.3472C93.043 20.3984 93.0326 20.4573 93.0051 20.4677C92.9352 20.4933 92.8936 20.4421 92.8974 20.3776C92.9003 20.3574 92.9081 20.3383 92.9199 20.3218C92.9318 20.3053 92.9474 20.2919 92.9655 20.2827C92.9881 20.2789 93.0279 20.3216 93.0685 20.3472Z" fill="#21A7F3"/>
<path d="M98.556 20.8198C98.8396 20.5171 98.8396 20.1081 98.9341 19.7418C99.1062 19.0387 99.4701 18.5272 100.157 18.2672C100.819 18.1306 101.495 18.2406 102.163 18.2084C102.321 18.2008 102.392 18.2909 102.381 18.4437C102.319 19.2427 102.442 20.035 102.47 20.8311C102.489 21.4005 102.331 21.5295 101.767 21.502C100.787 21.4546 99.8019 21.5476 98.8226 21.4214C98.6335 21.3976 98.4747 21.3976 98.4445 21.169C98.4322 21.106 98.4359 21.041 98.4554 20.9799C98.4749 20.9189 98.5096 20.8638 98.556 20.8198Z" fill="#FEFEFE"/>
<path d="M98.5371 21.0865C98.5201 21.2924 98.5844 21.394 98.8207 21.3921C99.8898 21.3807 100.96 21.3835 102.029 21.3921C102.244 21.3921 102.342 21.3275 102.339 21.097C102.331 20.2477 102.329 19.3975 102.339 18.5482C102.339 18.2797 102.212 18.2389 101.99 18.2446C101.378 18.2588 100.761 18.2616 100.152 18.2692C100.562 18.0415 101.002 18.2104 101.433 18.161C101.792 18.1193 102.219 18.3119 102.419 17.7815C102.472 17.6373 102.792 17.5917 102.861 17.8365C102.909 18.0092 103.085 18.0377 103.127 18.1857C102.426 18.3983 102.409 18.4135 102.418 19.1574C102.418 19.5502 102.337 19.945 102.679 20.2961C102.886 20.5086 102.81 20.8654 102.779 21.1624C102.765 21.2972 102.73 21.4101 102.887 21.4718C102.901 21.6359 102.751 21.7194 102.698 21.8513C102.466 21.8713 102.191 21.7564 102.074 22.1056C102.023 22.2584 101.838 22.2499 101.696 22.211C101.507 22.1559 101.583 21.9804 101.562 21.8513C101.436 21.282 101.027 21.5667 100.711 21.5667C100.53 21.7659 100.654 22.0079 100.617 22.2309C100.401 22.267 100.491 22.6105 100.239 22.6105C100.106 22.0411 99.4446 21.4917 98.9105 21.4718C98.5437 21.4585 98.1543 21.5875 97.8177 21.3199C97.7902 21.3065 97.7597 21.3 97.7291 21.301C97.6985 21.302 97.6685 21.3105 97.6419 21.3256C97.415 21.5012 97.2836 21.3892 97.2345 21.1729C97.1796 20.9337 97.3205 20.7686 97.5502 20.7354C97.7847 20.7155 98.0203 20.7107 98.2554 20.7212C98.3887 20.8104 98.4227 20.9774 98.5371 21.0865Z" fill="#21ABE3"/>
<path d="M98.5371 21.0864C98.297 21.0684 98.2535 20.9061 98.263 20.7068C98.3745 20.7068 98.4908 20.6955 98.556 20.8179C98.5494 20.909 98.5447 20.9972 98.5371 21.0864Z" fill="#1FACE1"/>
<path d="M95.9649 23.2036C96.0708 23.2036 96.0897 23.2767 96.0859 23.3545C96.0821 23.4323 96.068 23.5442 96.0415 23.5528C95.9233 23.5727 95.9082 23.4579 95.8761 23.3763C95.8672 23.3594 95.8626 23.3406 95.8625 23.3215C95.8625 23.3025 95.867 23.2837 95.8757 23.2667C95.8844 23.2498 95.8971 23.2352 95.9126 23.2242C95.9281 23.2132 95.9461 23.2061 95.9649 23.2036Z" fill="#1DA9F4"/>
<path d="M146.437 21.3683V21.4632C146.567 21.653 146.342 21.8143 146.384 21.9974C146.411 22.1312 146.297 22.2062 146.255 22.3115C146.099 22.6413 145.901 22.9494 145.666 23.2282L145.193 23.5356C144.519 23.7516 143.804 23.8027 143.107 23.6846C142.186 23.5233 141.63 22.9729 141.399 22.0838C141.196 21.2908 141.194 20.4592 141.393 19.665C141.465 19.3421 141.609 19.0397 141.814 18.7805C142.019 18.5213 142.279 18.3121 142.576 18.1686C143.027 18.0405 143.492 17.9766 143.96 17.9788C145 17.9968 145.81 18.3868 146.241 19.3898C146.308 19.7371 146.373 20.0851 146.439 20.4336C146.497 20.7425 146.496 21.0597 146.437 21.3683Z" fill="#FEFEFE"/>
<path d="M145.108 16.5506H145.297C145.271 16.6572 145.209 16.7515 145.122 16.8174C145.034 16.8833 144.927 16.9168 144.818 16.9121C144.251 16.8827 143.683 16.988 143.126 16.8305C142.947 16.5667 143.132 16.5459 143.322 16.5459C143.92 16.5497 144.511 16.5516 145.108 16.5506Z" fill="#1CAEDE"/>
<path d="M145.19 23.5355C145.307 23.5744 145.474 23.47 145.535 23.6541C145.545 23.6854 145.477 23.7737 145.434 23.7813C145.245 23.8164 145.22 23.6693 145.194 23.5327L145.19 23.5355Z" fill="#13B3D9"/>
<path d="M146.331 24.6637C146.318 24.7909 146.279 24.8535 146.182 24.8459C146.166 24.8475 146.15 24.8448 146.136 24.8382C146.122 24.8316 146.109 24.8213 146.1 24.8084C146.091 24.7955 146.086 24.7803 146.085 24.7646C146.083 24.7489 146.086 24.733 146.093 24.7188C146.123 24.6381 146.138 24.5176 146.266 24.547C146.302 24.5556 146.32 24.6429 146.331 24.6637Z" fill="#25B2DA"/>
<path d="M147.089 24.4864H146.522C146.6 24.4168 146.701 24.3784 146.806 24.3784C146.91 24.3784 147.011 24.4168 147.089 24.4864Z" fill="#1DACE3"/>
<path d="M122.911 18.4494C123.597 18.7787 123.921 19.3537 124.002 20.0834C124.108 21.0323 124.114 21.9585 123.579 22.8039C123.498 22.9085 123.399 22.998 123.287 23.0687L123.004 23.2585C122.683 23.5849 122.239 23.4852 121.858 23.5431C121.23 23.6447 120.583 23.5868 119.944 23.565C119.881 23.5691 119.818 23.5574 119.761 23.5311C119.704 23.5047 119.654 23.4645 119.617 23.4141L119.608 23.1645C119.514 22.8903 119.565 22.6066 119.563 22.3276C119.556 21.1193 119.556 19.9114 119.563 18.7037C119.563 18.5547 119.498 18.3887 119.628 18.2568L119.61 18.272C120.426 18.1467 121.243 18.1913 122.06 18.2511C122.071 18.2603 122.084 18.2658 122.098 18.2668C122.112 18.2678 122.126 18.2643 122.138 18.2568C122.393 18.3374 122.683 18.2701 122.911 18.4494Z" fill="#FEFEFE"/>
<path d="M120.645 25.1363C120.319 25.1363 119.978 25.2046 119.669 25.1363C119.276 25.0414 118.857 24.9237 118.663 24.4901C118.606 24.2054 118.568 23.9302 118.852 23.731C118.961 23.731 119.081 23.7556 119.176 23.7196C119.515 23.5896 119.615 23.6503 119.523 24.0318C119.409 24.511 119.901 24.4113 120.085 24.4407C120.268 24.4702 120.607 24.3459 120.637 24.0128C120.65 23.86 120.579 23.7186 120.388 23.7765C120.336 23.7899 120.282 23.7928 120.229 23.7849C120.176 23.7771 120.126 23.7588 120.08 23.731C120.064 23.715 120.052 23.6956 120.045 23.6741C120.039 23.6527 120.037 23.63 120.041 23.6078C120.044 23.5856 120.053 23.5647 120.067 23.5467C120.08 23.5286 120.098 23.5141 120.118 23.5042C120.766 23.5137 121.417 23.4416 122.063 23.545C121.874 23.8667 121.712 24.1732 121.233 24.1286C120.97 24.1039 120.647 24.7226 120.645 25.1363Z" fill="#1DACE2"/>
<path d="M117.908 23.3544C117.618 23.0754 117.994 22.8211 117.937 22.5488C117.879 22.2764 117.918 21.9652 117.828 21.6767C117.785 21.5372 117.74 21.319 118.002 21.2753C118.164 21.1624 118.276 21.2507 118.38 21.3702C118.652 21.3835 119.06 21.3655 119.098 21.6283C119.171 22.1407 119.444 22.7404 118.852 23.1655C118.571 23.4028 118.184 23.1029 117.908 23.3544Z" fill="#1DACE2"/>
<path d="M117.908 20.3302C117.855 19.699 117.887 19.0636 118.002 18.4409C118.989 18.1809 119.381 18.5871 119.192 19.592C119.125 19.9497 118.877 20.0541 118.663 20.2363C118.415 20.3017 118.154 20.2543 117.908 20.3302Z" fill="#1DACE2"/>
<path d="M117.908 23.3545C117.932 23.1049 118.09 23.029 118.301 23.0964C118.48 23.1494 118.666 23.1728 118.852 23.1656C118.885 23.3554 118.699 23.5452 118.852 23.735C118.691 23.9627 118.824 24.2635 118.663 24.4941H118.001C117.822 24.1221 117.943 23.7312 117.908 23.3545Z" fill="#20ACDF"/>
<path d="M117.908 20.3302C118.124 20.0161 118.394 20.1329 118.664 20.2353C118.874 20.8597 118.808 21.1216 118.38 21.3693L118.002 21.2744C117.89 20.9688 117.904 20.651 117.908 20.3302Z" fill="#21ACDE"/>
<path d="M122.063 23.546L120.085 23.5546C120.029 23.5948 119.962 23.6165 119.893 23.6165C119.824 23.6165 119.758 23.5948 119.702 23.5546L119.619 23.4189C120.753 23.5214 121.887 23.5413 123.006 23.2595C123.062 23.3667 123.248 23.4084 123.17 23.5849C123.11 23.7244 123.013 23.6855 122.914 23.6409C122.81 23.6409 122.703 23.6409 122.63 23.546H122.063Z" fill="#2EABE5"/>
<path d="M119.631 18.2578C119.624 19.8937 119.617 21.5296 119.61 23.1655C119.49 23.0754 119.515 22.9435 119.515 22.8201C119.515 21.4284 119.515 20.0332 119.515 18.6345C119.515 18.5007 119.469 18.3451 119.631 18.2578Z" fill="#21ABE4"/>
<path d="M122.063 18.2521L119.613 18.273C119.674 18.1534 119.787 18.1506 119.896 18.1591C120.617 18.2103 121.348 18.0443 122.063 18.2521Z" fill="#21ABE4"/>
<path d="M122.911 18.4496L122.141 18.2598C122.412 18.2636 122.705 18.1839 122.911 18.4496Z" fill="#21ABE4"/>
<path d="M125.629 19.0275C125.549 19.0056 125.559 18.9402 125.565 18.8832C125.572 18.8263 125.601 18.7551 125.677 18.777C125.704 18.7836 125.728 18.851 125.73 18.8908C125.733 18.9222 125.725 18.9537 125.706 18.9791C125.687 19.0044 125.66 19.0217 125.629 19.0275Z" fill="#1BAAF3"/>
<path d="M122.63 23.5433C122.734 23.5433 122.846 23.5253 122.914 23.6382C122.885 23.6841 122.839 23.7168 122.786 23.7294C122.733 23.7419 122.677 23.7334 122.63 23.7056C122.608 23.6952 122.628 23.5993 122.63 23.5433Z" fill="#13B3DC"/>
<path d="M119.702 23.5508H120.085C120.085 23.6106 120.085 23.6694 120.08 23.7282C119.92 23.7415 119.778 23.714 119.702 23.5508Z" fill="#2AA7DF"/>
<path d="M123.287 23.0688L123.579 22.804C123.579 22.8411 123.571 22.8778 123.556 22.9116C123.541 22.9455 123.519 22.9758 123.491 23.0007C123.464 23.0255 123.431 23.0444 123.396 23.0562C123.361 23.0679 123.324 23.0722 123.287 23.0688Z" fill="#2EABE5"/>
<path d="M83.3006 24.7085C83.3147 24.7768 83.3006 24.8385 83.224 24.8432C83.0576 24.8518 82.9933 24.7113 82.93 24.5994C82.896 24.5396 82.9801 24.5045 83.0425 24.4969C83.1966 24.4826 83.2542 24.5899 83.3006 24.7085Z" fill="#24ACE3"/>
<path d="M84.1759 23.8325C84.1948 23.9749 84.1873 24.1001 83.9992 24.1096C84.07 24.0233 83.847 23.749 84.1759 23.8325Z" fill="#0DB6DC"/>
<path d="M114.885 17.0243C114.877 17.1315 114.877 17.3175 114.757 17.2824C114.317 17.1524 114.23 17.6202 113.934 17.736C113.759 17.8043 113.823 18.3053 113.994 18.4306C114.317 18.6659 114.319 18.9753 113.999 19.2049C113.777 19.3643 113.784 19.7885 114.013 19.9479C114.305 20.1519 114.312 20.5172 114.026 20.707C113.967 20.7512 113.92 20.8085 113.887 20.8744C113.854 20.9403 113.837 21.0129 113.837 21.0866C113.837 21.1602 113.854 21.2329 113.887 21.2988C113.92 21.3646 113.967 21.422 114.026 21.4661C114.254 21.6379 114.393 21.9577 114.766 21.8685C114.789 21.8628 114.876 21.9786 114.861 21.9994C114.725 22.2405 114.654 22.5441 114.492 22.7282C114.353 22.8857 114.209 22.6276 114.225 22.4435C114.243 22.1513 114.161 21.9956 113.834 22.026C113.507 22.0564 113.559 21.8002 113.559 21.6028C113.559 20.077 113.559 18.5505 113.559 17.0234C113.998 16.9473 114.447 16.9477 114.885 17.0243Z" fill="#21ABE4"/>
<path d="M115.439 21.3672V22.8855C115.332 22.932 115.345 23.1597 115.177 23.0895C115.046 23.0326 114.995 22.8703 114.988 22.7337C114.971 22.2459 114.94 21.7544 115.073 21.2743C115.233 21.1585 115.352 21.1974 115.439 21.3672Z" fill="#1BADE4"/>
<path d="M115.439 20.1367V20.9025C115.379 21.0856 115.308 21.2479 115.074 21.0866C114.935 20.8218 115.033 20.5315 115.014 20.2572C115 20.0513 115.199 19.8426 115.439 20.1367Z" fill="#1BADE4"/>
<path d="M115.439 18.3442C115.439 18.5046 115.439 18.664 115.439 18.8244L115.286 19.1613C114.877 18.9307 115.003 18.5853 115.074 18.2522C115.234 18.1307 115.352 18.1763 115.439 18.3442Z" fill="#1BADE4"/>
<path d="M115.074 16.7405C115.505 16.955 115.315 17.3545 115.358 17.6894C114.874 17.4873 115.105 17.0746 115.074 16.7405Z" fill="#1BADE4"/>
<path d="M115.439 18.3442C115.332 18.2726 115.203 18.2392 115.074 18.2493C114.837 17.8944 115.144 17.8118 115.358 17.6799C115.534 17.8868 115.426 18.1231 115.439 18.3442Z" fill="#21ABE4"/>
<path d="M114.885 17.0242H113.562C113.99 16.8711 114.457 16.8711 114.885 17.0242Z" fill="#22ACE2"/>
<path d="M115.074 21.0864C115.245 21.1215 115.343 21.0124 115.439 20.9023V21.3673C115.332 21.2957 115.203 21.2623 115.074 21.2724V21.0864Z" fill="#21ABE4"/>
<path d="M113.386 18.2446V17.6924C113.446 17.7717 113.479 17.8687 113.479 17.9685C113.479 18.0683 113.446 18.1653 113.386 18.2446Z" fill="#22ACE2"/>
<path d="M56.985 12.7638C56.5526 12.8624 56.2148 12.7267 55.9716 12.3567C55.975 12.352 55.9773 12.3465 55.9782 12.3408C55.9792 12.3351 55.9787 12.3292 55.977 12.3236C55.9752 12.3181 55.9722 12.313 55.9682 12.3089C55.9641 12.3047 55.9591 12.3016 55.9536 12.2997C55.9224 11.9202 55.9943 11.5767 56.3866 11.4078C56.8016 11.2284 57.1022 11.4258 57.3584 11.7361C57.3971 12.0692 57.5928 12.4383 57.1476 12.6613L56.985 12.7638Z" fill="#FCFCFD"/>
<path d="M57.1476 12.6612C57.3952 12.3937 57.4311 12.0777 57.3584 11.7361C57.5417 12.0207 57.5606 12.3785 57.5304 12.6669C57.486 13.0845 57.2846 12.6214 57.1476 12.6612Z" fill="#216DA0"/>
<path d="M48.4365 29.7225C48.4079 29.7414 48.3757 29.7543 48.342 29.7604C48.273 29.7604 48.2342 29.712 48.2701 29.6475C48.2843 29.6219 48.3458 29.6095 48.3836 29.6143C48.4214 29.619 48.462 29.6484 48.4365 29.7225Z" fill="#1EACE2"/>
<path d="M41.1236 14.427C41.1548 14.4545 41.2502 14.4972 41.2578 14.5532C41.2739 14.6576 41.1699 14.6585 41.0933 14.6481C41.0167 14.6376 40.9458 14.5978 40.9572 14.4991C40.9657 14.427 41.0158 14.4023 41.1236 14.427Z" fill="#22A7F3"/>
<path d="M48.0196 11.2567H48.3032C48.4526 11.4464 48.7466 11.2671 48.9006 11.5233C48.6019 11.7435 48.2597 11.6078 47.9459 11.6286C47.5895 11.6533 47.2312 11.6343 46.8729 11.6343H45.8473C45.8338 11.6225 45.823 11.6079 45.8156 11.5915C45.8082 11.5752 45.8044 11.5574 45.8044 11.5394C45.8044 11.5215 45.8082 11.5037 45.8156 11.4874C45.823 11.471 45.8338 11.4564 45.8473 11.4445C46.2755 11.1418 46.7652 11.2823 47.2303 11.2548C47.4978 11.2491 47.7568 11.2567 48.0196 11.2567Z" fill="#1BAEDF"/>
<path d="M45.8473 11.4465V11.6363C45.7272 11.6676 45.5448 11.8346 45.506 11.6182C45.4616 11.3696 45.7159 11.4816 45.8473 11.4465Z" fill="#12B5D5"/>
<path d="M117.908 16.9295C117.97 16.8346 118.033 16.7397 118.097 16.6448C119.38 16.6448 120.665 16.6448 121.95 16.6448C122.076 16.6448 122.291 16.5746 122.303 16.7615C122.32 17.012 122.079 16.919 121.949 16.92C120.602 16.9323 119.255 16.9295 117.908 16.9295Z" fill="#1DAEE3"/>
<path d="M142.702 17.7861C142.666 17.8472 142.612 17.8962 142.548 17.9273C142.485 17.9583 142.413 17.9699 142.343 17.9607C142.2 17.9541 142.094 17.8782 142.106 17.7282C142.117 17.5783 142.252 17.5878 142.361 17.5954C142.502 17.6058 142.637 17.6324 142.702 17.7861Z" fill="#1FABE2"/>
<path d="M146.712 19.7638C146.46 19.7325 146.541 19.5342 146.523 19.3843C146.777 19.4175 146.695 19.6148 146.712 19.7638Z" fill="#20A8F0"/>
<path d="M144.996 17.7966C144.939 17.8251 144.902 17.8564 144.867 17.8564C144.8 17.8564 144.754 17.8128 144.786 17.7454C144.799 17.7198 144.862 17.7027 144.899 17.7084C144.936 17.7141 144.96 17.7568 144.996 17.7966Z" fill="#20A8F1"/>
<path d="M146.252 22.3115L146.336 22.0316C146.367 21.987 146.398 21.9841 146.43 22.0316C146.485 22.0601 146.542 22.0866 146.596 22.117C146.672 22.1606 146.793 22.192 146.737 22.3068C146.688 22.4093 146.585 22.4083 146.505 22.3305C146.473 22.2963 146.429 22.2754 146.382 22.2719C146.335 22.2684 146.289 22.2825 146.252 22.3115Z" fill="#23A9EB"/>
<path d="M146.429 22.0306H146.335C146.368 21.8408 146.401 21.651 146.429 21.4612C146.455 21.4593 146.48 21.4629 146.503 21.4718C146.527 21.4807 146.548 21.4948 146.566 21.5129C146.583 21.531 146.597 21.5527 146.605 21.5766C146.613 21.6004 146.616 21.6259 146.614 21.651C146.558 21.6978 146.513 21.7558 146.482 21.8212C146.45 21.8865 146.432 21.9579 146.429 22.0306Z" fill="#2CAFDA"/>
<path d="M97.8924 23.547C97.8073 23.5309 97.7033 23.5725 97.6542 23.4606C97.6476 23.4435 97.6977 23.3799 97.727 23.3761C97.8555 23.3581 97.8726 23.4577 97.8905 23.5507L97.8924 23.547Z" fill="#1EACE2"/>
<path d="M146.437 21.3683V20.427C146.503 20.575 146.538 20.7354 146.538 20.8977C146.538 21.0599 146.503 21.2204 146.437 21.3683Z" fill="#2CAFDA"/>
<path d="M100.719 21.5589C100.986 21.3691 101.297 21.4375 101.57 21.484C101.919 21.5447 101.732 21.7183 101.57 21.8426C101.333 21.6045 101.056 21.4897 100.719 21.5589Z" fill="#1FACE1"/>
<path d="M48.8695 15.9843C48.6927 16.1997 48.3855 15.9587 48.2077 16.1741C48.014 16.1513 47.8107 16.2253 47.5347 16.0792C48.0243 15.9112 48.4545 16.0185 48.8695 15.9843Z" fill="#176E95"/>
</g>
</g>
<defs>
<clipPath id="clip0_6_522">
<rect width="180" height="40" fill="white"/>
</clipPath>
</defs>
</svg>
