<svg width="180" height="40" viewBox="0 0 180 40" fill="none" xmlns="http://www.w3.org/2000/svg">
<g clip-path="url(#clip0_6_189)">
<path d="M160 0H20C8.9543 0 0 8.9543 0 20C0 31.0457 8.9543 40 20 40H160C171.046 40 180 31.0457 180 20C180 8.9543 171.046 0 160 0Z" fill="white"/>
<mask id="mask0_6_189" style="mask-type:luminance" maskUnits="userSpaceOnUse" x="43" y="11" width="94" height="18">
<path d="M137 11H43V29H137V11Z" fill="white"/>
</mask>
<g mask="url(#mask0_6_189)">
<mask id="mask1_6_189" style="mask-type:luminance" maskUnits="userSpaceOnUse" x="43" y="11" width="94" height="18">
<path d="M137 11H43V29H137V11Z" fill="white"/>
</mask>
<g mask="url(#mask1_6_189)">
<path d="M78.818 25.0703V25.136C78.818 25.3344 78.6715 25.4501 78.4273 25.4501H75.1864C74.9419 25.4501 74.7954 25.3344 74.7954 25.136V25.0703C74.7954 24.5911 75.4141 24.393 75.3817 23.6342L75.2188 20.5628C75.1372 19.0602 74.8278 18.4491 74.0786 18.4491C73.3622 18.4491 73.02 19.0916 73.02 20.0507V23.6508C73.02 24.4104 73.7528 24.5918 73.7528 25.071V25.1368C73.7528 25.3352 73.59 25.4508 73.3622 25.4508H69.8279C69.5997 25.4508 69.4533 25.3352 69.4533 25.1368V25.071C69.4533 24.5918 70.17 24.4104 70.17 23.6508V15.9889C70.17 15.2126 69.372 15.1302 69.372 14.6661V14.6166C69.372 14.4186 69.5185 14.2534 69.7466 14.1544L72.3185 12.9984C72.6931 12.8332 72.9376 12.9655 72.9376 13.3453V18.1339C73.4099 17.6385 74.0931 17.3577 74.9243 17.3577C76.3408 17.3577 77.8399 18.1668 78.018 20.6603L78.2298 23.6327C78.2969 24.393 78.818 24.5911 78.818 25.0703Z" fill="black"/>
<path d="M86.4893 23.0722C86.4565 23.9792 85.3167 25.6153 83.1831 25.6153C80.8214 25.6153 79.1602 23.9471 79.1602 21.4373C79.1602 18.9933 81.0332 17.3584 83.1667 17.3584C85.3003 17.3584 86.2776 18.5806 86.2776 19.6207C86.2776 20.1161 86.0167 20.4464 85.6439 20.6445L82.4011 22.494C82.8245 23.1712 83.46 23.5673 84.2581 23.5673C84.9581 23.5673 85.5936 23.2374 85.8866 22.8409C86.1147 22.6112 86.5053 22.7087 86.4893 23.0722ZM81.7824 19.9015C81.7824 20.5439 81.864 21.1399 82.0265 21.6354L83.5413 20.7106C83.6738 20.6155 83.7816 20.4891 83.8553 20.3425C83.9291 20.1958 83.9666 20.0332 83.9647 19.8686C83.9647 19.3395 83.7039 18.168 82.8737 18.168C82.2073 18.1676 81.7824 18.9453 81.7824 19.9015Z" fill="black"/>
<path d="M95.7621 17.8373V17.9035C95.7621 18.3823 95.2079 18.6136 94.8821 19.3566L91.8043 26.0775C91.348 27.1013 90.4359 29.0004 88.7262 29.0004C87.1297 29.0004 86.1364 28.0427 86.1364 27.0847C86.1364 26.3912 86.5598 25.929 87.2919 25.929C88.8555 25.929 88.3508 28.1251 89.1161 28.1251C89.6211 28.1251 90.2238 27.0023 90.6473 25.9785L87.341 19.3566C86.95 18.5807 86.4289 18.3823 86.4289 17.9035V17.8373C86.4289 17.6393 86.5754 17.5237 86.8036 17.5237H90.3051C90.5168 17.5237 90.6633 17.6559 90.6633 17.854V17.9201C90.6633 18.3823 90.0445 18.4651 90.4352 19.3898L92.0964 23.3527L93.5946 19.6706C94.0509 18.5474 92.8298 18.3823 92.8298 17.9201V17.854C92.8298 17.6559 92.9927 17.5237 93.2044 17.5237H95.3865C95.6149 17.5237 95.7621 17.6393 95.7621 17.8373Z" fill="black"/>
<path d="M102.982 18.9934C102.982 19.8192 102.673 20.5455 101.728 20.5455C100.246 20.5455 100.914 18.9934 100.1 18.9934C99.5777 18.9934 99.4969 19.8521 99.4969 20.5807V23.6521C99.4969 24.4117 100.36 24.6097 100.36 25.0723V25.138C100.36 25.3364 100.197 25.4521 99.9694 25.4521H96.4678C96.2399 25.4521 96.077 25.3364 96.077 25.138V25.0723C96.077 24.6097 96.7281 24.4117 96.7281 23.6521V20.3641C96.7281 19.5879 95.9456 19.5217 95.9456 19.0414V18.9919C95.9456 18.7938 96.076 18.6453 96.3182 18.513L98.6145 17.4231C99.0383 17.2251 99.2012 17.456 99.2012 17.7863V18.9919C99.559 17.9337 100.325 17.357 101.448 17.357C102.412 17.3581 102.982 18.0686 102.982 18.9934Z" fill="black"/>
<path d="M110.573 23.0722C110.54 23.9792 109.4 25.6153 107.266 25.6153C104.905 25.6153 103.244 23.9471 103.244 21.4373C103.244 18.9933 105.117 17.3584 107.25 17.3584C109.384 17.3584 110.361 18.5806 110.361 19.6207C110.361 20.1161 110.1 20.4464 109.727 20.6445L106.486 22.494C106.91 23.1712 107.545 23.5673 108.343 23.5673C109.043 23.5673 109.678 23.2374 109.972 22.8409C110.197 22.6112 110.588 22.7087 110.573 23.0722ZM105.865 19.9015C105.865 20.5439 105.947 21.1399 106.109 21.6354L107.624 20.7106C107.757 20.6155 107.864 20.4891 107.938 20.3425C108.012 20.1958 108.049 20.0332 108.047 19.8686C108.047 19.3395 107.787 18.168 106.956 18.168C106.289 18.1676 105.865 18.9453 105.865 19.9015Z" fill="black"/>
<path d="M119.747 25.0041C119.747 25.4335 118.802 25.5491 117.906 25.5491C116.929 25.5491 116.457 25.3507 116.327 24.7555C115.984 25.2347 115.333 25.6145 114.258 25.6145C112.516 25.6145 111.18 24.805 111.18 23.1043C111.18 21.4366 112.564 20.5779 114.112 20.5779C114.795 20.5779 115.349 20.7431 115.756 20.9906V20.9411C115.561 18.9925 115.447 18.1505 114.601 18.1505C113.477 18.1505 113.934 20.3633 112.484 20.3633C111.8 20.3633 111.343 19.934 111.343 19.29C111.343 17.9359 112.939 17.3577 114.601 17.3577C116.783 17.3577 118.298 18.646 118.559 20.6936L118.917 23.6493C119.063 24.8224 119.747 24.5416 119.747 25.0041ZM116.001 23.5839L115.936 22.8243C115.821 21.8334 115.398 21.4536 114.926 21.4536C114.438 21.4536 114.095 21.8995 114.095 22.5768C114.095 23.7483 114.486 24.7729 115.154 24.7729C115.691 24.7729 116.001 24.1455 116.001 23.5839Z" fill="black"/>
<path d="M119.666 21.4702C119.666 18.8943 121.587 17.375 123.803 17.3584C125.709 17.3422 127.272 18.3327 127.272 19.8024C127.272 20.2979 126.963 20.7933 126.083 20.7601C124.422 20.6611 124.568 18.1524 123.362 18.1675C122.678 18.1842 122.222 19.0099 122.222 20.0171C122.222 22.1637 123.266 23.5839 124.876 23.5839C125.789 23.5839 126.343 23.0884 126.685 22.6263C126.897 22.3617 127.304 22.4445 127.304 22.8077C127.255 24.2438 126.131 25.6151 123.9 25.6151C121.345 25.6151 119.666 23.6334 119.666 21.4702Z" fill="black"/>
<path d="M137 25.0703V25.136C137 25.3344 136.853 25.4501 136.609 25.4501H133.368C133.124 25.4501 132.977 25.3344 132.977 25.136V25.0703C132.977 24.5911 133.596 24.393 133.564 23.6342L133.4 20.5628C133.319 19.0602 133.01 18.4491 132.261 18.4491C131.544 18.4491 131.202 19.0916 131.202 20.0507V23.6508C131.202 24.4104 131.935 24.5918 131.935 25.071V25.1368C131.935 25.3352 131.772 25.4508 131.544 25.4508H128.01C127.782 25.4508 127.635 25.3352 127.635 25.1368V25.071C127.635 24.5918 128.352 24.4104 128.352 23.6508V15.9889C128.352 15.2126 127.554 15.1302 127.554 14.6661V14.6166C127.554 14.4186 127.7 14.2534 127.928 14.1544L130.5 12.9984C130.875 12.8332 131.119 12.9655 131.119 13.3453V18.1339C131.592 17.6385 132.274 17.3577 133.106 17.3577C134.523 17.3577 136.021 18.1668 136.2 20.6603L136.411 23.6327C136.478 24.393 137 24.5911 137 25.0703Z" fill="black"/>
<path d="M65.8351 17.3774H65.828C65.0487 17.3793 64.3803 18.1756 63.9457 18.8792L63.942 18.8849C63.8902 18.9605 63.8421 19.0493 63.7929 19.1321C63.6598 19.411 63.5871 19.5931 63.2789 19.6933C62.977 19.8139 62.6937 19.9777 62.4376 20.1797C61.9824 20.5279 61.6236 20.9894 61.3958 21.5194C61.2206 22.0999 60.4084 21.8932 60.5363 21.3002C60.8143 20.3475 61.4868 19.4643 62.3512 18.9008C61.8398 17.9465 60.7879 15.6533 60.5542 12.5816C60.508 11.9667 59.7342 11.7124 59.3349 12.1697C59.2727 12.2371 59.2247 12.3167 59.1938 12.4036C59.1629 12.4904 59.1498 12.5828 59.1553 12.6749C59.2453 14.4766 59.6539 16.2472 60.3615 17.9023C60.5042 17.8944 60.6496 17.8902 60.8061 17.8868C61.357 17.8921 61.4066 18.6978 60.8598 18.7704C59.5053 18.8558 58.1451 19.3188 57.1999 20.1309C56.6072 20.7076 55.7976 19.784 56.4428 19.2515C56.5528 19.171 56.6639 19.089 56.7809 19.0115C56.5998 18.5958 56.1674 17.5097 55.8118 16.0259V16.0097C55.615 15.2482 55.4391 14.4081 55.2918 13.5113C55.2761 13.4115 55.2401 13.3162 55.1864 13.2311C55.1327 13.1461 55.0622 13.0732 54.9795 13.017C54.4454 12.6451 53.7193 13.1046 53.8214 13.7565C54.0491 15.1726 54.3354 16.3548 54.3492 16.4046C54.6664 17.5898 55.0291 18.6646 55.4241 19.5863C55.4552 19.6571 55.4719 19.7335 55.4733 19.811C55.4746 19.8884 55.4606 19.9654 55.432 20.0372C55.3891 20.1456 55.3151 20.2385 55.2197 20.3038C55.1242 20.3692 55.0116 20.404 54.8964 20.4038C54.7844 20.4044 54.6747 20.3715 54.581 20.3092C54.4874 20.2469 54.414 20.1579 54.3701 20.0534C53.7834 18.6929 53.3827 17.309 53.1501 16.3876C53.1097 16.229 53.0188 16.0883 52.8915 15.9874C52.7642 15.8865 52.6075 15.8311 52.446 15.8298C51.9968 15.8242 51.6412 16.2576 51.7281 16.7104C51.7818 16.993 51.8362 17.2822 51.8951 17.5599C52.0069 18.0716 52.1109 18.5403 52.1616 18.7371C52.194 18.8445 52.3297 19.3498 52.3681 19.5051C52.4751 19.8804 52.6081 20.2866 52.7121 20.6143L52.9824 21.3671C53.7923 23.6006 55.2188 25.6951 56.4771 26.6074L56.4854 26.6134C57.4504 27.2971 58.5354 27.6584 59.6272 27.6584C63.2133 27.5616 64.4045 24.9479 64.8455 21.262C64.9778 20.1525 65.4684 19.3569 65.8627 18.7179C66.0118 18.4817 66.1609 18.2455 66.2574 18.0323C66.2896 17.9613 66.3035 17.8831 66.2978 17.8052C66.292 17.7272 66.2669 17.652 66.2247 17.5866C66.1825 17.5212 66.1246 17.4677 66.0565 17.4311C65.9884 17.3945 65.9122 17.376 65.8351 17.3774ZM63.3877 23.2136C63.3464 23.583 63.2618 23.9461 63.1357 24.2952C62.2281 26.9566 58.6629 27.305 56.9069 25.2249C56.8249 25.3081 56.7414 25.3935 56.6647 25.4796C56.1558 26.022 55.3824 25.2287 55.9363 24.7193L55.9419 24.7143C56.4513 24.3016 56.988 23.925 57.5484 23.587C57.6331 23.536 57.7344 23.5211 57.83 23.5456C57.9255 23.5702 58.0076 23.632 58.0583 23.7178C58.1044 23.7948 58.1216 23.8861 58.1067 23.9749C58.0919 24.0638 58.046 24.1442 57.9775 24.2015C57.8436 24.3149 57.7113 24.437 57.5883 24.5522C58.3401 25.2151 59.3666 25.5439 60.3272 25.3459C61.3992 25.1474 62.1126 24.3844 62.5062 23.0213C62.543 22.9053 62.6237 22.8089 62.7306 22.7532C62.8373 22.6974 62.9617 22.6869 63.0761 22.7238C63.1757 22.7566 63.2611 22.8232 63.3179 22.9125C63.3747 23.0017 63.3994 23.1081 63.3877 23.2136Z" fill="black"/>
<path d="M49.7716 26.9361C49.5964 26.9395 49.4171 26.8004 49.3929 26.622C49.3822 26.5713 49.3818 26.5188 49.3915 26.4679C49.4012 26.4169 49.421 26.3685 49.4495 26.3253C49.478 26.2822 49.5146 26.2453 49.5574 26.2168C49.6002 26.1883 49.6483 26.1688 49.6986 26.1595L50.6069 25.9841C51.3803 25.8371 52.9757 25.5359 53.755 25.3896C53.9272 25.636 54.1058 25.8719 54.2881 26.0941C53.7032 26.1976 50.2737 26.8639 49.7716 26.9361Z" fill="black"/>
<path d="M43.3757 26.1512C43.2993 26.1506 43.2248 26.1266 43.1621 26.0824C42.8863 25.887 42.9783 25.4339 43.3138 25.3712C44.848 25.0821 51.2953 23.8689 52.6983 23.6006C52.8239 23.8504 52.9543 24.0946 53.0878 24.3296C50.804 24.7605 45.7966 25.703 43.4532 26.1437C43.4277 26.149 43.4017 26.1515 43.3757 26.1512Z" fill="black"/>
<path d="M45.9607 23.6748C45.8843 23.6741 45.8099 23.6502 45.7471 23.606C45.6637 23.5449 45.6059 23.4543 45.5853 23.352C45.5675 23.2493 45.5905 23.1436 45.6492 23.0579C45.7079 22.9723 45.7976 22.9136 45.8988 22.8948C46.85 22.7153 51.0336 21.9277 51.8962 21.761C51.9923 22.0146 52.0923 22.2648 52.1944 22.5078C51.1053 22.7118 47.1967 23.4477 46.0412 23.6653C46.0145 23.6711 45.9881 23.6746 45.9607 23.6748Z" fill="black"/>
<path d="M44.1108 22.0334C43.6452 22.0175 43.589 21.3531 44.0456 21.2545C46.0043 20.8856 49.3206 20.2549 51.2767 19.8921C51.3513 20.1509 51.4295 20.4045 51.5089 20.6479C51.1336 20.7212 44.7795 21.9128 44.1924 22.0235C44.1656 22.0296 44.1383 22.0328 44.1108 22.0334Z" fill="black"/>
<path d="M47.0542 19.493C46.5846 19.4779 46.5224 18.8094 46.9842 18.7122L50.6061 18.0297L50.7925 17.9919C50.8495 18.2516 50.9087 18.5078 50.9699 18.7568C50.8092 18.7825 47.3942 19.4307 47.1418 19.4779L47.1128 19.4866C47.0934 19.4901 47.0739 19.4923 47.0542 19.493Z" fill="black"/>
<path d="M57.8074 18.4699C57.4376 17.5864 56.5028 15.0502 56.4029 11.8118C56.4006 11.7069 56.4188 11.6026 56.4565 11.5049C56.4942 11.4072 56.5506 11.318 56.6225 11.2425C56.6944 11.1671 56.7803 11.1068 56.8753 11.0653C56.9703 11.0237 57.0725 11.0016 57.176 11.0004C57.5752 10.9928 57.9438 11.3462 57.9475 11.7562C57.9669 12.221 57.9892 12.6077 58.0165 12.9387V12.955C58.1281 14.7069 58.5183 16.4289 59.172 18.0546C58.7044 18.1458 58.2472 18.285 57.8074 18.4699Z" fill="black"/>
</g>
</g>
</g>
<defs>
<clipPath id="clip0_6_189">
<rect width="180" height="40" fill="white"/>
</clipPath>
</defs>
</svg>
