<svg width="180" height="40" viewBox="0 0 180 40" fill="none" xmlns="http://www.w3.org/2000/svg">
<g clip-path="url(#clip0_6_463)">
<path d="M160 0H20C8.9543 0 0 8.9543 0 20C0 31.0457 8.9543 40 20 40H160C171.046 40 180 31.0457 180 20C180 8.9543 171.046 0 160 0Z" fill="white"/>
<mask id="mask0_6_463" style="mask-type:luminance" maskUnits="userSpaceOnUse" x="50" y="14" width="80" height="12">
<path d="M129.5 14H50.5V26H129.5V14Z" fill="white"/>
</mask>
<g mask="url(#mask0_6_463)">
<path d="M115.771 20.3076C116.617 21.5051 117.45 22.7126 118.318 23.8951C118.645 24.3426 118.882 24.7851 118.782 25.3526C118.128 26.2551 117.517 25.8951 117.036 25.2251C116.34 24.2776 115.651 23.3251 114.935 22.3951C114.523 21.4326 114.097 21.5551 113.665 22.3826C112.917 23.3976 112.26 24.4926 111.355 25.3826C111.058 25.6776 110.686 25.9226 110.247 25.7526C109.748 25.5551 109.641 25.1351 109.788 24.6426L112.874 20.2976C113.184 19.7026 112.787 19.2826 112.468 18.8776C111.762 17.9801 111.163 17.0101 110.472 16.1076C110.06 15.5751 109.803 14.9876 110.095 14.3001C110.689 13.8476 111.135 14.0276 111.537 14.5926C112.298 15.6551 113.101 16.6851 113.852 17.7526C114.206 18.2526 114.446 18.3101 114.82 17.7526C115.569 16.6776 116.357 15.6426 117.113 14.5776C117.517 14.0101 117.971 13.8526 118.562 14.2926L118.64 14.5426C118.682 14.8217 118.664 15.1065 118.589 15.3784C118.513 15.6503 118.381 15.9031 118.201 16.1201C117.49 17.1076 116.779 18.0926 116.05 19.0676C115.758 19.4701 115.511 19.8301 115.771 20.3076Z" fill="#264FE5"/>
<path d="M120.147 15.2601L120.102 14.3351C120.823 13.7801 121.287 14.1076 121.714 14.7501C122.711 16.2501 123.709 17.7251 124.802 19.3226C125.902 17.7076 126.913 16.2276 127.916 14.7451C128.165 14.3626 128.415 13.9476 128.979 14.0826C129.677 14.2526 129.478 14.8176 129.478 15.2901C129.143 16.5901 128.268 17.6101 127.454 18.5876C125.815 20.5551 125.371 22.7451 125.683 25.1776C125.473 25.8201 124.994 25.9751 124.418 25.7751C123.842 25.5751 123.812 25.1251 123.867 24.5751C124.069 22.4976 123.687 20.6126 122.32 18.8876C121.444 17.7976 120.451 16.7076 120.147 15.2601Z" fill="#274FE6"/>
<path d="M96.6426 24.68C96.4952 24.4873 96.3006 24.3361 96.0777 24.241C95.8547 24.1459 95.611 24.1103 95.3702 24.1375C94.0479 24.1725 92.7182 24.0725 91.4034 24.1725C90.3181 24.255 90.116 23.845 90.141 22.865C90.2083 20.29 90.1584 17.715 90.1584 15.1375C90.1584 14.71 90.1085 14.295 89.6595 14.115C89.2104 13.935 88.8736 14.175 88.644 14.5675C88.2997 14.9525 88.4519 15.42 88.4494 15.85C88.4295 18.35 88.432 20.8725 88.427 23.385C88.5143 23.765 88.4145 24.165 88.4469 24.5525C88.4345 24.7375 88.4245 24.9225 88.407 25.11C88.4345 25.2714 88.5045 25.4226 88.6098 25.5478C88.7151 25.6731 88.8517 25.7679 89.0058 25.8225C91.1738 26.1275 93.3519 25.945 95.5249 25.9275C95.6895 25.9465 95.8561 25.9183 96.0054 25.8462C96.1547 25.774 96.2805 25.6609 96.3681 25.52C96.4679 25.4056 96.5436 25.2723 96.5907 25.128C96.6379 24.9837 96.6555 24.8313 96.6426 24.68Z" fill="#2650E3"/>
<path d="M64.5112 14.9126C63.6554 17.3551 62.8321 19.8051 61.9764 22.3026C61.5597 21.9051 61.4924 21.4426 61.3452 21.0276C60.6466 19.0676 59.988 17.0926 59.2844 15.1351C59.1148 14.6676 59.0748 14.0176 58.3314 14.0301C57.5879 14.0426 57.5679 14.6901 57.3908 15.1576C56.792 16.7601 56.2257 18.3726 55.6444 19.9826C55.5271 20.7751 55.2153 21.5001 54.8385 22.3651C54.4683 21.7904 54.2297 21.1407 54.14 20.4626C53.4763 18.5801 52.8327 16.6901 52.1441 14.8151C51.7773 13.8151 51.443 13.7726 50.5723 14.5651C50.4076 14.9776 50.5374 15.3951 50.6571 15.7676C51.6401 18.8343 52.6614 21.8893 53.7208 24.9326C53.903 25.4551 54.2198 25.8876 54.8884 25.8526C55.4997 25.8201 55.6943 25.3526 55.869 24.8876C56.6174 22.8576 57.2935 20.8001 58.0569 18.7726C58.1642 18.4876 58.1791 18.1776 58.3064 17.8801C58.4505 18.157 58.5354 18.461 58.5559 18.7726C59.4415 20.7926 60.0877 22.9026 60.8636 24.9651C61.0457 25.4476 61.2803 25.8726 61.899 25.8551C62.1285 25.8515 62.3504 25.7724 62.5307 25.6302C62.7109 25.4879 62.8396 25.2903 62.897 25.0676C63.9623 21.8176 65.2696 18.6376 66.0505 15.2926C66.0704 15.0426 66.0929 14.8101 66.1128 14.5701C65.2122 13.7376 64.9053 13.7851 64.5112 14.9126Z" fill="#2550E5"/>
<path d="M87.2445 24.145C85.8374 21.0625 84.4227 17.9825 83.0281 14.895C82.589 13.92 82.0551 13.7325 81.3067 14.5875C80.678 16.0025 80.0592 17.425 79.4155 18.8375C78.5174 20.7875 77.5943 22.725 76.6837 24.6675C76.6562 25.0575 76.4516 25.5125 76.9207 25.7625C77.3897 26.0125 77.7914 25.7625 78.1681 25.5125C78.4351 25.3225 78.6821 25.1075 78.9316 24.8975C79.9769 24.0281 81.2263 23.4404 82.5616 23.19C84.2132 22.855 84.8069 23.1675 85.5055 24.7725C85.5643 24.9668 85.6482 25.1525 85.755 25.325C86.1167 25.825 86.5459 26.2675 87.1796 25.7975C87.8133 25.3275 87.9131 24.71 87.2445 24.145ZM82.9757 21.395L80.4809 21.925C80.2613 22.215 79.9195 22.2125 79.4006 22.34L82.1275 16.565C82.9159 18.275 83.602 19.76 84.2955 21.26C83.8783 21.4368 83.4181 21.4856 82.9732 21.4L82.9757 21.395Z" fill="#254FE5"/>
<path d="M108.271 23.825C106.864 20.7475 105.479 17.655 104.087 14.575C103.533 13.86 102.982 13.885 102.438 14.5875C101.054 17.9175 99.4768 21.1625 97.8925 24.405C97.7628 24.8725 97.5557 25.405 98.0497 25.735C98.5911 26.08 99.0851 25.715 99.4942 25.3525C100.172 24.7437 100.927 24.2275 101.74 23.8175C104.402 22.49 105.415 22.7725 106.944 25.245C107.408 25.995 107.83 26.0225 108.59 25.36C108.635 24.8281 108.524 24.2947 108.271 23.825ZM104.122 21.3975L101.627 21.925C101.41 22.225 101.046 22.175 100.515 22.4675C101.311 20.6925 101.942 19.1225 102.718 17.625C103.124 16.835 103.598 17.5025 103.79 17.86C104.384 18.9625 104.883 20.11 105.425 21.26C104.928 21.5 104.521 21.4275 104.122 21.3975Z" fill="#2650E3"/>
<path d="M71.1501 21.3576L71.0976 21.3801C71.1308 21.3687 71.1633 21.3553 71.1949 21.3401L71.1501 21.3576Z" fill="#2550E4"/>
<path d="M74.7775 22.9601C73.5301 20.1551 72.2702 17.3626 71.0128 14.5651C70.454 13.8326 69.9101 13.9201 69.3737 14.5901C69.329 14.7878 69.2689 14.9817 69.1941 15.1701C67.8843 17.9801 66.5545 20.7801 65.2596 23.5976C64.9827 24.2001 64.4688 24.7876 64.8505 25.5401C65.4767 26.2251 65.9707 25.6926 66.4247 25.3326C67.4651 24.5126 68.5229 23.7476 69.8278 23.3751C72.0432 22.7451 72.8216 22.8976 73.7297 24.8951C73.8419 25.1618 74.0227 25.3939 74.2537 25.5676C74.7202 25.9001 75.1618 25.9751 75.4836 25.3726C75.6233 24.4626 75.1168 23.7276 74.7775 22.9601ZM71.0352 21.4026L68.5404 21.9251C68.3283 22.2301 67.9641 22.1751 67.3878 22.4901C68.3658 20.4201 69.219 18.6076 70.1845 16.5601C70.9679 18.2701 71.6565 19.7651 72.3475 21.2751C71.93 21.437 71.4761 21.4811 71.0352 21.4026Z" fill="#2550E4"/>
</g>
</g>
<defs>
<clipPath id="clip0_6_463">
<rect width="180" height="40" fill="white"/>
</clipPath>
</defs>
</svg>
