<svg width="180" height="40" viewBox="0 0 180 40" fill="none" xmlns="http://www.w3.org/2000/svg">
<g clip-path="url(#clip0_6_88)">
<path d="M160 0H20C8.9543 0 0 8.9543 0 20C0 31.0457 8.9543 40 20 40H160C171.046 40 180 31.0457 180 20C180 8.9543 171.046 0 160 0Z" fill="white"/>
<mask id="mask0_6_88" style="mask-type:luminance" maskUnits="userSpaceOnUse" x="46" y="9" width="88" height="22">
<path d="M133.5 9.5H46.5V30.5H133.5V9.5Z" fill="white"/>
</mask>
<g mask="url(#mask0_6_88)">
<path d="M63.2624 18.0858C63.6332 17.0084 64.12 15.9838 64.831 15.0626C65.5811 14.0907 66.5063 13.3192 67.7024 12.8655C68.3386 12.6243 68.9973 12.5242 69.6664 12.7208C70.4994 12.966 71.0165 13.5322 71.2787 14.2878C71.7947 15.7766 71.4611 17.1523 70.5601 18.4282C70.071 19.1209 69.3781 19.6184 68.6791 20.105C68.633 20.1372 68.5854 20.1676 68.5393 20.2001C68.5273 20.2122 68.5167 20.2256 68.5078 20.2399C69.0533 20.3455 69.5501 20.5404 69.9847 20.8661C71.0461 21.6615 71.3306 23.0567 70.6277 24.0582C70.2273 24.6294 69.6338 24.936 68.9528 25.1219C68.0449 25.3727 67.1017 25.4913 66.1558 25.4733C65.9876 25.4697 65.9427 25.525 65.9174 25.6634C65.8751 25.8934 65.8118 26.1201 65.7577 26.3482C65.7346 26.3818 65.6966 26.4111 65.7224 26.4567C65.7242 26.4623 65.7249 26.4681 65.7244 26.474C65.7239 26.4798 65.7222 26.4855 65.7193 26.4907C65.6951 26.5243 65.6602 26.5543 65.6809 26.6017C65.5078 27.2401 65.3124 27.8747 65.0122 28.469C64.6467 29.1921 64.0091 29.5949 63.1634 29.7044C62.2589 29.8219 61.4359 29.5927 60.6504 29.1932C60.0834 28.904 59.521 28.6108 58.9997 28.2557C58.9003 28.1881 58.8504 28.1972 58.7675 28.2749C58.0381 28.9557 57.2204 29.528 56.2902 29.9441C55.3236 30.378 54.3754 30.3907 53.504 29.7345C52.6445 29.0873 52.3443 27.9314 52.7362 26.8844C52.852 26.5905 53.0046 26.3106 53.1907 26.0507C52.8594 26.0868 52.5569 26.1183 52.2544 26.1497C51.1546 26.2633 50.0882 26.158 49.0855 25.6913C48.0106 25.1905 47.166 24.4685 46.7126 23.3994C46.6224 23.1876 46.5729 22.9602 46.5046 22.74V22.7038C46.5366 22.5486 46.5366 22.389 46.5046 22.2338V22.1615C46.5169 22.1507 46.5384 22.1409 46.5407 22.1283C46.6988 21.2146 47.3153 20.6535 48.1672 20.2887C49.1242 19.8787 50.1369 19.7572 51.1784 19.8346C52.8141 19.9557 54.299 20.5038 55.7083 21.2627C55.7628 21.292 55.8426 21.3809 55.8822 21.3195C55.9455 21.2215 55.8054 21.219 55.7528 21.1893C53.9324 20.1849 53.0069 18.6853 53.0844 16.7083C53.1477 15.0969 53.9531 13.825 55.3731 12.9081C55.415 12.881 55.458 12.8553 55.5002 12.8286C55.5106 12.8217 55.5206 12.8138 55.5444 12.7964C55.3236 12.5513 55.1025 12.3072 54.8841 12.0607C54.8407 12.0119 54.8004 12.0303 54.7486 12.0408C54.5386 12.0831 54.3647 12.0122 54.276 11.8549C54.2353 11.783 54.22 11.7008 54.2322 11.6202C54.2444 11.5395 54.2835 11.4646 54.3439 11.4063C54.4764 11.2848 54.6338 11.2617 54.8027 11.3282C54.9831 11.4005 55.0603 11.5451 55.0273 11.757C55.0173 11.8217 55.0131 11.8683 55.0822 11.9081C55.3701 12.073 55.6557 12.2422 55.9651 12.4222C56.0089 12.009 56.0515 11.6131 56.0918 11.2168C56.121 10.9298 56.1444 10.6423 56.1762 10.356C56.1836 10.3156 56.18 10.2741 56.1658 10.2354C56.1517 10.1967 56.1274 10.1619 56.0952 10.1344C55.959 10.0049 55.9467 9.84516 56.0419 9.68752C56.0861 9.61704 56.1529 9.56157 56.2327 9.52909C56.3125 9.49661 56.4012 9.48879 56.486 9.50675C56.5703 9.52529 56.6459 9.5692 56.7013 9.63183C56.7567 9.69446 56.789 9.7724 56.7931 9.85383C56.8035 10.0396 56.7087 10.1987 56.5217 10.2399C56.3916 10.2688 56.3881 10.3202 56.3935 10.4247C56.4288 11.0718 56.4546 11.7194 56.4841 12.3843C56.9691 12.2266 57.4756 12.1353 57.9882 12.1131C59.2853 12.0686 60.46 12.4096 61.4489 13.1941C63.0156 14.4367 63.6033 16.0315 63.2386 17.9304C63.2321 17.9665 63.2294 18.0027 63.2248 18.0388C63.2299 18.1067 63.2174 18.1747 63.1883 18.2369C63.168 18.2919 63.1522 18.3483 63.1338 18.4036C63.1196 18.4347 63.1188 18.4687 63.1042 18.5041C63.1234 18.472 63.1204 18.4376 63.1365 18.4087C63.1472 18.3599 63.1672 18.314 63.1806 18.2641C63.2052 18.208 63.2125 18.1379 63.2624 18.0858Z" fill="black"/>
<path d="M94.6521 30.4999H93.7308C93.7278 30.4951 93.7259 30.4897 93.7252 30.4842C93.7245 30.4786 93.725 30.473 93.7267 30.4676C93.7284 30.4623 93.7312 30.4573 93.735 30.453C93.7388 30.4488 93.7435 30.4453 93.7488 30.4428C94.041 30.3889 94.3415 30.3889 94.6337 30.4428C94.639 30.4453 94.6436 30.4488 94.6474 30.4531C94.6512 30.4574 94.654 30.4623 94.6558 30.4676C94.6575 30.473 94.658 30.4786 94.6574 30.4841C94.6568 30.4897 94.655 30.495 94.6521 30.4999Z" fill="#3F3F3F"/>
<path d="M46.5 22.2375C46.5594 22.3892 46.5594 22.5558 46.5 22.7075V22.2375Z" fill="#7F7F7F"/>
<path d="M93.7266 30.4699C93.7266 30.48 93.7293 30.4902 93.7312 30.4999H93.5009C93.4975 30.4958 93.4952 30.491 93.494 30.4859C93.4928 30.4809 93.4928 30.4756 93.494 30.4705C93.4952 30.4654 93.4975 30.4607 93.5008 30.4565C93.5041 30.4523 93.5083 30.4489 93.5131 30.4464C93.5895 30.4139 93.6629 30.4041 93.7266 30.4699Z" fill="#7C7C7C"/>
<path d="M94.6521 30.4999C94.6508 30.489 94.6519 30.4779 94.6552 30.4674C94.7205 30.4052 94.7938 30.4131 94.8702 30.446C94.8748 30.4487 94.8788 30.4523 94.882 30.4565C94.8851 30.4607 94.8873 30.4655 94.8884 30.4706C94.8895 30.4756 94.8895 30.4808 94.8885 30.4858C94.8874 30.4909 94.8852 30.4957 94.8821 30.4999H94.6521Z" fill="#7F7F7F"/>
<path d="M93.4978 30.47C93.4971 30.4796 93.4981 30.4893 93.5009 30.4985H93.3089C93.3093 30.4883 93.3085 30.4779 93.3066 30.4678C93.3715 30.4118 93.4352 30.4111 93.4978 30.47Z" fill="#B8B8B8"/>
<path d="M94.8821 30.4999C94.8821 30.4898 94.884 30.4797 94.8852 30.4695C94.9481 30.4117 95.0118 30.4121 95.0771 30.4695C95.0742 30.4799 95.0742 30.4907 95.0771 30.501L94.8821 30.4999Z" fill="#C4C4C4"/>
<path d="M95.0756 30.4698H94.8836L94.6533 30.4676L93.7247 30.4701H93.4943L93.3024 30.468C91.8221 30.3743 90.3994 30.0804 89.0992 29.3768C88.1011 28.8367 87.3157 28.1002 86.7874 27.1309C86.7709 27.1002 86.7491 27.072 86.7264 27.0391C85.84 28.46 84.4722 29.2496 82.8465 29.7033C81.8588 29.9768 80.8348 30.1162 79.8053 30.1173C76.826 30.1288 73.8462 30.1274 70.8669 30.1343C70.7317 30.1343 70.7014 30.114 70.7279 29.9766C71.2254 27.3844 71.7186 24.7912 72.2074 22.1973C72.6742 19.746 73.1432 17.2951 73.6144 14.8445C73.7046 14.372 73.7982 13.9002 73.8796 13.4262C73.8977 13.3231 73.941 13.3043 74.0397 13.3043C76.7768 13.3065 79.5135 13.2996 82.2503 13.3098C83.1355 13.313 84.0066 13.4396 84.8415 13.7292C85.8431 14.0766 86.9851 14.7129 87.6727 16.1624C87.7237 15.8966 87.7694 15.666 87.8117 15.4346C87.9318 14.778 88.0531 14.1214 88.1683 13.4641C88.1894 13.3434 88.2343 13.3022 88.3748 13.3022C90.8048 13.3075 93.2348 13.3075 95.6648 13.3022C95.8027 13.3022 95.8472 13.3134 95.8184 13.4667C95.4345 15.432 95.0602 17.3992 94.6825 19.3656C94.4488 20.5819 94.214 21.7979 93.978 23.0136C93.9699 23.0495 93.9638 23.0857 93.9596 23.1221C93.8901 23.9059 94.3082 24.0954 95.0345 23.9392C95.309 23.8803 95.4499 23.6767 95.537 23.4392C95.729 22.9149 95.8096 22.3668 95.9163 21.8249C96.2958 19.8952 96.6749 17.9656 97.0534 16.0362C97.2215 15.1808 97.3943 14.3257 97.5524 13.4692C97.5793 13.3206 97.6442 13.3051 97.7755 13.3051C99.7461 13.308 101.716 13.3087 103.684 13.3072H118.147C123.198 13.3072 128.249 13.3057 133.3 13.3025C133.497 13.3025 133.522 13.3387 133.487 13.5166C133.168 15.1389 132.855 16.7625 132.549 18.3873C132.528 18.4929 132.469 18.5886 132.383 18.6592C130.621 20.2652 128.86 21.8722 127.1 23.4804C127.028 23.5458 126.949 23.6048 126.874 23.6666L126.901 23.7107H127.103C128.58 23.7107 130.059 23.7107 131.535 23.7078C131.682 23.7078 131.722 23.7255 131.692 23.8813C131.296 25.9115 130.908 27.9431 130.526 29.9759C130.5 30.1173 130.43 30.1354 130.299 30.1354C126.142 30.1325 121.986 30.1317 117.829 30.1332H101.293C101.055 30.1332 101.053 30.1332 101.093 29.9217C101.233 29.1832 101.372 28.4445 101.512 27.7058C101.518 27.659 101.521 27.6119 101.521 27.5648C101.274 27.8348 101.052 28.0861 100.799 28.3114C99.6611 29.3259 98.2979 29.9271 96.7816 30.2467C96.2197 30.3615 95.6494 30.4361 95.0756 30.4698Z" fill="black"/>
<path d="M63.1603 18.2353C63.1776 18.1702 63.1741 18.0994 63.2202 18.0422L63.2621 18.0863C63.2564 18.1538 63.234 18.219 63.1968 18.2769C63.1715 18.2729 63.1699 18.2498 63.1603 18.2353Z" fill="#C6C6C6"/>
<path d="M65.7209 26.4593C65.6644 26.4032 65.6717 26.3653 65.7562 26.3508C65.7598 26.3702 65.7585 26.3902 65.7523 26.409C65.7462 26.4279 65.7354 26.4451 65.7209 26.4593Z" fill="#434240"/>
<path d="M65.6794 26.6042C65.6241 26.5464 65.641 26.511 65.7178 26.4932C65.7289 26.5377 65.7028 26.5706 65.6794 26.6042Z" fill="#464543"/>
<path d="M58.2017 21.5159C55.5229 21.5159 53.332 19.4577 53.3347 16.9442C53.3374 14.4307 55.5317 12.3472 58.2001 12.3656C61.0505 12.3858 63.1189 14.5479 63.0705 17.0237C63.0476 18.2246 62.5242 19.3688 61.6133 20.2093C60.7023 21.0497 59.4769 21.5191 58.2017 21.5159Z" fill="#F9CF15"/>
<path d="M70.9375 15.6627C70.891 16.8919 70.3981 17.9766 69.4069 18.8381C68.3025 19.7973 67.0445 20.5273 65.6191 20.9951C65.4414 21.0537 65.3504 21.0457 65.254 20.8689C64.8817 20.1896 64.3638 19.6126 63.7538 19.1107C63.644 19.0204 63.6079 18.948 63.6486 18.8088C64.0709 17.3583 64.6936 16.0022 65.7554 14.8543C66.3765 14.1822 67.114 13.6565 68.0084 13.3455C69.3674 12.8726 70.443 13.4005 70.8135 14.7172C70.8961 15.0264 70.9378 15.3439 70.9375 15.6627Z" fill="#FEFEFE"/>
<path d="M51.4798 25.6434C49.9442 25.6231 48.6613 25.0989 47.6989 23.9506C47.3945 23.5891 47.1806 23.1772 47.12 22.7141C47.0179 21.9314 47.3791 21.3041 48.1611 20.9111C49.0824 20.4458 50.0778 20.3087 51.1082 20.3821C52.7685 20.5004 54.2561 21.0915 55.6649 21.8876C55.7621 21.9422 55.787 22.0011 55.7767 22.1045C55.6896 22.8995 55.7701 23.7028 56.0135 24.4683C56.0473 24.5746 56.0246 24.6187 55.9156 24.6683C54.6165 25.259 53.2399 25.5537 51.805 25.6289C51.6963 25.6347 51.5881 25.6387 51.4798 25.6434Z" fill="#FEFEFE"/>
<path d="M66.4445 24.932C66.0552 24.932 66.0495 24.932 66.0717 24.6326C66.1485 23.6149 66.0452 22.6203 65.6495 21.6629C65.6134 21.5754 65.6472 21.5512 65.7262 21.5277C66.3617 21.3312 66.976 21.0784 67.5608 20.7728C67.7762 20.6643 68.0127 20.7366 68.2376 20.7619C68.7682 20.8234 69.2496 21.0042 69.6607 21.331C70.9218 22.3325 70.6062 23.9913 69.0511 24.5126C68.1881 24.8008 67.2921 24.9161 66.4445 24.932Z" fill="#FEFEFE"/>
<path d="M53.1451 27.8454C53.1681 27.0385 53.539 26.4224 54.1136 25.8971C54.1724 25.8508 54.2429 25.8196 54.3183 25.8067C54.9343 25.6522 55.5336 25.4436 56.1083 25.1837C56.1966 25.1433 56.2461 25.119 56.3003 25.2387C56.7529 26.2185 57.427 27.0464 58.2907 27.7359C58.3855 27.8118 58.3967 27.8516 58.3015 27.9373C57.6147 28.5566 56.8577 29.0816 55.9981 29.4673C55.372 29.7479 54.734 29.8166 54.1117 29.4699C53.448 29.1 53.1762 28.5154 53.1451 27.8454Z" fill="#FEFEFE"/>
<path d="M56.1471 23.5716C56.5605 23.6486 56.9533 23.7227 57.3506 23.7683C58.0037 23.8477 58.6642 23.8584 59.3199 23.8005C59.576 23.7762 59.5744 23.7733 59.6151 24.0127C59.6919 24.4679 59.7721 24.9227 59.8539 25.3938C60.5603 25.1327 61.2639 24.918 61.9392 24.6345C62.2166 24.5227 62.4604 24.348 62.6486 24.1258C63.011 23.6898 62.9788 23.1649 62.5588 22.7787C62.4993 22.7238 62.482 22.6988 62.5588 22.6471C63.3953 22.0665 64.0291 21.3188 64.5627 20.4894C64.5732 20.481 64.5845 20.4735 64.5965 20.467C64.6571 20.553 64.7197 20.6387 64.7788 20.7266C65.099 21.2041 65.3455 21.7221 65.5109 22.265C65.5374 22.3517 65.5354 22.4208 65.4725 22.4978C64.2928 23.9603 62.8294 25.0442 60.9142 25.5272C59.8094 25.8059 58.6877 25.862 57.5529 25.7441C57.4324 25.7315 57.311 25.6986 57.1924 25.708C56.9502 25.7246 56.8469 25.5959 56.754 25.4133C56.465 24.8337 56.25 24.2343 56.1471 23.5716Z" fill="#F9CF15"/>
<path d="M65.6514 24.9221C65.6211 25.2681 65.5508 25.5652 65.4821 25.8621C65.3731 26.3321 65.2468 26.7945 65.1136 27.2573C65.0198 27.6034 64.8041 27.9094 64.5016 28.125C63.4982 28.851 62.3826 29.1782 61.1157 28.9468C60.9157 28.9074 60.7246 28.8353 60.551 28.7338C59.9203 28.3802 59.3011 28.0107 58.723 27.5834C58.6934 27.5617 58.6654 27.5386 58.5986 27.4865C59.9265 27.467 61.1814 27.275 62.3891 26.8513C63.6041 26.4236 64.6782 25.7825 65.6514 24.9221Z" fill="#F9CF15"/>
<path d="M61.8229 22.8537C62.1822 22.8316 62.4294 22.9329 62.5561 23.2228C62.6885 23.5255 62.5922 23.7865 62.3726 24.0182C62.1634 24.2381 61.8962 24.3798 61.6086 24.4832C61.1457 24.6517 60.6789 24.8107 60.2171 24.9818C60.1019 25.0251 60.0666 25.0038 60.0474 24.8903C59.905 24.0446 59.7598 23.1993 59.6055 22.3555C59.5848 22.242 59.6236 22.2109 59.7207 22.1747C60.1625 22.0218 60.6036 21.8623 61.0439 21.7091C61.2305 21.6447 61.4232 21.6006 61.624 21.6169C62.1434 21.6574 62.3918 22.1288 62.1208 22.5496C62.0513 22.657 61.9561 22.7434 61.8229 22.8537Z" fill="#F9CF15"/>
<path d="M63.1388 18.4102C63.1665 18.4872 63.1231 18.5468 63.0916 18.6441C63.0286 18.5288 63.0586 18.4669 63.13 18.4131L63.1388 18.4102Z" fill="#CCCCCC"/>
<path d="M63.1388 18.4104L63.1296 18.4133C63.0939 18.3471 63.1565 18.2958 63.1603 18.2354L63.1968 18.277C63.1876 18.3254 63.1922 18.3796 63.1388 18.4104Z" fill="#F9F9F9"/>
<path d="M83.5133 21.3974C83.9958 21.5098 84.4449 21.6634 84.8311 21.9418C85.8515 22.6779 86.2208 23.6773 86.111 24.8483C85.9402 26.6701 84.7651 27.7367 83.0453 28.3665C81.9996 28.7494 80.9028 28.9059 79.7853 28.9088C77.3365 28.9175 74.8873 28.9088 72.4385 28.9146C72.2776 28.9146 72.2431 28.8936 72.2746 28.7309C72.7163 26.4539 73.1521 24.1762 73.5821 21.8977C73.9847 19.7786 74.3861 17.6592 74.7863 15.5396C74.842 15.2442 74.9092 14.951 74.9553 14.6545C74.9733 14.5374 75.022 14.5124 75.138 14.5135C75.6816 14.519 76.2251 14.5157 76.7684 14.5161C78.6291 14.5161 80.4898 14.5034 82.3501 14.5251C83.3559 14.537 84.3309 14.7192 85.202 15.2323C86.2427 15.8469 86.7433 16.7338 86.6462 17.8878C86.498 19.6413 85.5218 20.7683 83.7286 21.3037C83.6637 21.3229 83.5885 21.3229 83.5133 21.3974Z" fill="#F9CF15"/>
<path d="M91.8068 14.5163C92.5868 14.5163 93.3669 14.5189 94.1485 14.5138C94.2851 14.5138 94.3151 14.5362 94.2882 14.6732C93.943 16.4361 93.6025 18.2001 93.2667 19.9652C93.0828 20.9211 92.8874 21.8752 92.7181 22.8333C92.6367 23.2925 92.6594 23.7545 92.8375 24.1992C93.0371 24.6975 93.4068 25.0225 93.9611 25.1335C94.5877 25.2589 95.2069 25.239 95.7881 24.9527C96.3255 24.6877 96.628 24.2466 96.8011 23.7173C97.0438 22.9758 97.1497 22.2068 97.3002 21.4475C97.6737 19.5733 98.038 17.6976 98.4062 15.8226C98.483 15.4274 98.5647 15.033 98.6342 14.6367C98.6519 14.5348 98.6952 14.5153 98.7947 14.5153C100.348 14.5181 101.902 14.5181 103.455 14.5153C103.561 14.5153 103.596 14.5275 103.574 14.6436C103.024 17.5909 102.477 20.5388 101.934 23.4874C101.749 24.4878 101.435 25.4455 100.865 26.3168C100.005 27.635 98.7352 28.4434 97.19 28.8972C95.8848 29.2808 94.545 29.3429 93.1918 29.2489C92.1469 29.1766 91.1323 28.9735 90.1822 28.5454C88.9921 28.0096 88.0988 27.2106 87.6934 25.9961C87.4708 25.3284 87.4696 24.6447 87.5783 23.9621C87.951 21.6008 88.4289 19.2566 88.8539 16.9033C88.9863 16.1704 89.1226 15.4379 89.2509 14.704C89.275 14.5666 89.3176 14.5091 89.4873 14.5116C90.2593 14.5228 91.0328 14.5163 91.8068 14.5163Z" fill="#F9CF15"/>
<path d="M116.651 28.9124C116.86 27.8031 117.09 26.7145 117.262 25.618C117.335 25.148 117.551 24.8182 117.911 24.4972C120.112 22.5322 122.292 20.5469 124.48 18.5678C124.528 18.5294 124.579 18.4937 124.631 18.4612L124.606 18.412H124.407C122.636 18.412 120.865 18.4091 119.094 18.416C118.911 18.416 118.892 18.3733 118.922 18.2171C119.153 17.0496 119.376 15.8806 119.591 14.7101C119.619 14.5587 119.668 14.5091 119.84 14.5095C123.817 14.515 127.793 14.515 131.77 14.5095C131.944 14.5095 131.986 14.533 131.95 14.7109C131.743 15.7355 131.552 16.7637 131.355 17.7905C131.345 17.8738 131.305 17.9515 131.242 18.011C130.19 18.967 129.14 19.9246 128.09 20.8839C126.711 22.1442 125.331 23.4048 123.952 24.6657C123.879 24.7325 123.799 24.794 123.715 24.8656C123.795 24.9307 123.867 24.9061 123.93 24.9061C125.944 24.908 127.958 24.908 129.972 24.9061C130.125 24.9061 130.191 24.9061 130.153 25.0941C129.907 26.3194 129.677 27.5479 129.45 28.7764C129.425 28.9142 129.348 28.9116 129.239 28.9113C126.381 28.9098 123.524 28.9098 120.666 28.9113H116.651V28.9124Z" fill="#F9CF15"/>
<path d="M110.577 18.4085H104.826C105.011 17.4363 105.195 16.4749 105.379 15.5136C105.434 15.2243 105.499 14.9351 105.543 14.6459C105.56 14.5334 105.606 14.5012 105.713 14.5161C105.732 14.5173 105.751 14.5173 105.771 14.5161C109.748 14.5161 113.726 14.5149 117.703 14.5125C117.882 14.5125 117.922 14.5432 117.887 14.7171C117.679 15.7424 117.485 16.7699 117.29 17.7971C117.278 17.8799 117.236 17.9563 117.172 18.014C115.355 19.6713 113.539 21.3297 111.726 22.9892C111.047 23.6094 110.369 24.2297 109.691 24.8501C109.675 24.8693 109.661 24.8898 109.648 24.9112H109.869C111.877 24.9112 113.885 24.9103 115.893 24.9083C116.051 24.9083 116.108 24.9145 116.071 25.0981C115.827 26.3241 115.599 27.5527 115.374 28.7819C115.348 28.9265 115.265 28.9135 115.161 28.9135C111.81 28.9135 108.459 28.9135 105.108 28.9135C104.328 28.9135 103.548 28.9095 102.767 28.9168C102.604 28.9168 102.588 28.8806 102.616 28.736C102.847 27.5509 103.067 26.3632 103.288 25.1759C103.306 25.0517 103.368 24.937 103.464 24.8505C105.028 23.4407 106.59 22.0289 108.15 20.615C108.933 19.9068 109.716 19.1988 110.499 18.4909C110.518 18.4739 110.532 18.4562 110.577 18.4085Z" fill="#F9CF15"/>
<path d="M112.86 23.7109C113.167 23.4075 113.468 23.0912 113.79 22.7947C114.913 21.7607 116.039 20.7305 117.168 19.7042C117.239 19.6399 117.295 19.5198 117.43 19.6319C117.456 19.6525 117.517 19.6348 117.562 19.6348H121.34C121.05 19.9273 120.752 20.2534 120.426 20.5521C119.452 21.4447 118.468 22.3269 117.486 23.2134C117.43 23.2633 117.363 23.3045 117.32 23.3623C117.08 23.6856 116.744 23.7264 116.353 23.7192C115.242 23.6986 114.129 23.712 113.017 23.712L112.86 23.7109Z" fill="#FEFEFE"/>
<path d="M107.378 19.6338L103.262 23.3577C103.328 22.9987 103.383 22.6946 103.44 22.3909C103.603 21.5109 103.768 20.6309 103.929 19.7516C103.943 19.6793 103.951 19.6327 104.05 19.6331C105.141 19.6349 106.234 19.6338 107.378 19.6338Z" fill="#FEFEFE"/>
<path d="M86.8208 20.8347C86.7548 21.1937 86.6884 21.5527 86.6178 21.9345C86.4715 21.7711 86.3368 21.6174 86.1982 21.4667C86.1556 21.4204 86.1805 21.3991 86.2158 21.3654C86.4078 21.1825 86.5955 20.9967 86.7851 20.8115L86.8208 20.8347Z" fill="#FCFCFC"/>
<path d="M59.5837 16.5666C59.565 16.5666 59.5464 16.5696 59.5288 16.5753C59.4236 16.6299 59.3318 16.7586 59.2197 16.7319C59.1211 16.7084 59.0481 16.5898 58.9637 16.5149C58.9046 16.4495 58.8347 16.3935 58.7806 16.3237L58.7664 16.2875C58.728 16.2185 58.6719 16.1617 58.6331 16.0934C58.477 15.8374 58.3712 15.5571 58.3207 15.2658C58.2804 14.9448 58.313 14.636 58.4692 14.3406C58.7548 13.7983 59.2915 13.6685 59.8558 13.8572C60.0934 13.9331 60.2956 14.0845 60.4278 14.2853C60.6965 14.6732 60.7599 15.0923 60.6424 15.5384C60.6168 15.6468 60.5821 15.7531 60.5384 15.8562C60.4889 15.9513 60.4616 16.0572 60.3879 16.1411C60.271 16.2218 60.1415 16.2848 60.004 16.328C59.9559 16.3658 59.9035 16.3984 59.8478 16.4253L59.7883 16.4372C59.7157 16.4781 59.6543 16.5294 59.5837 16.5666Z" fill="#FEFEFE"/>
<path d="M60.9054 18.0353C60.8977 19.0028 60.0888 19.8791 59.0493 20.0397C58.2431 20.164 57.5448 19.9793 56.9893 19.3958C56.9389 19.3416 56.8939 19.2832 56.855 19.2211C56.7559 19.066 56.8005 18.9952 56.9912 18.9865C58.3538 18.9233 59.5456 18.4662 60.5668 17.6151C60.627 17.5649 60.6746 17.4835 60.7741 17.5143C60.8735 17.545 60.8574 17.6433 60.8727 17.7139C60.8904 17.8203 60.9013 17.9276 60.9054 18.0353Z" fill="black"/>
<path d="M54.6423 16.5337C54.4027 15.8359 54.7317 15.196 55.4265 15.0152C55.7475 14.932 56.0477 14.9899 56.3191 15.1649C56.5329 15.2968 56.717 15.4672 56.8607 15.6663C56.8734 15.7253 56.8281 15.7249 56.7878 15.73C56.6772 15.7025 56.6124 15.615 56.5279 15.5535C56.2365 15.342 55.9202 15.1887 55.5402 15.2755C55.0968 15.3771 54.7862 15.7639 54.7613 16.2133C54.757 16.2911 54.7662 16.3695 54.7436 16.4458C54.7232 16.4896 54.7083 16.5362 54.6423 16.5337Z" fill="#040506"/>
<path d="M60.3917 14.2986C60.1411 14.0039 59.8247 13.8253 59.4147 13.8202C58.9003 13.8137 58.5092 14.1431 58.394 14.6666C58.3498 14.868 58.3521 15.0705 58.3556 15.2737C58.3399 15.2986 58.3245 15.3246 58.2857 15.3098C58.2047 14.9483 58.2113 14.5925 58.3663 14.2505C58.6846 13.5502 59.5468 13.3726 60.1518 13.8792C60.2808 13.9876 60.4006 14.1022 60.4727 14.253C60.4758 14.3148 60.4451 14.3235 60.3917 14.2986Z" fill="#050607"/>
<path d="M60.3917 14.2987C60.4086 14.3004 60.4256 14.2967 60.44 14.2884C60.4545 14.28 60.4656 14.2673 60.4716 14.2524C60.7787 14.6837 60.791 15.1494 60.6509 15.6321C60.5791 15.6321 60.604 15.5901 60.6148 15.5551C60.705 15.1104 60.6451 14.6895 60.3917 14.2987Z" fill="#151414"/>
<path d="M56.784 15.7066C56.7994 15.7076 56.8148 15.7045 56.8284 15.6976C56.842 15.6907 56.8532 15.6802 56.8607 15.6675C57.1604 16.0073 57.3446 16.4242 57.3894 16.8639C57.3775 16.8906 57.3621 16.9127 57.3249 16.9C57.2792 16.8678 57.2769 16.8187 57.2684 16.772C57.2072 16.4419 57.0635 16.1303 56.8492 15.8627C56.8135 15.8186 56.7579 15.7763 56.784 15.7066Z" fill="#1D1C1B"/>
<path d="M58.2846 15.3091L58.3544 15.2729C58.4145 15.5614 58.519 15.8401 58.6646 16.1001C58.685 16.1363 58.6646 16.1421 58.6301 16.1363C58.4615 15.8821 58.3268 15.6124 58.2846 15.3091Z" fill="#1F1E1F"/>
<path d="M54.6423 16.5338L54.7114 16.4648C54.8549 16.63 54.8983 16.8397 54.9947 17.0259C54.9924 17.0394 54.9859 17.0519 54.9761 17.0618C54.9662 17.0718 54.9535 17.0788 54.9394 17.0819C54.7994 16.9216 54.698 16.7346 54.6423 16.5338Z" fill="#1E1D1D"/>
<path d="M56.8684 18.8564C56.7083 18.9384 56.6765 19.0697 56.6964 19.2425C56.5993 19.155 56.5782 19.0729 56.6197 18.9775C56.6611 18.882 56.7429 18.835 56.8684 18.8564Z" fill="#2D2B24"/>
<path d="M60.9618 17.5599C60.8466 17.4366 60.7146 17.411 60.528 17.4601C60.6363 17.3441 60.7303 17.3177 60.8416 17.356C60.9215 17.3821 60.9925 17.4236 60.9618 17.5599Z" fill="#1D1C17"/>
<path d="M55.2868 17.4373C55.1801 17.3707 55.0887 17.2847 55.0181 17.1842C55.0204 17.1714 55.0272 17.1598 55.0375 17.1513C55.0477 17.1427 55.0608 17.1377 55.0745 17.1372C55.1338 17.159 55.1876 17.1921 55.2326 17.2345C55.2776 17.2769 55.3128 17.3276 55.3359 17.3834C55.3353 17.3962 55.3301 17.4085 55.3212 17.4183C55.3123 17.428 55.3002 17.4347 55.2868 17.4373Z" fill="#2F2C2A"/>
<path d="M57.402 16.9985C57.4494 17.13 57.4486 17.2727 57.3997 17.4038C57.3907 17.4098 57.3795 17.4122 57.3686 17.4105C57.3577 17.4088 57.3479 17.4031 57.3414 17.3947C57.2865 17.2841 57.298 17.1709 57.3279 17.0574C57.3342 17.0426 57.3442 17.0295 57.3571 17.0192C57.3701 17.0089 57.3855 17.0018 57.402 16.9985Z" fill="#463E2F"/>
<path d="M55.7413 17.6763C55.6189 17.6763 55.5336 17.604 55.4415 17.5429C55.4338 17.51 55.4549 17.4985 55.4833 17.4919C55.5908 17.5107 55.6895 17.5455 55.7582 17.6319C55.7597 17.64 55.7589 17.6484 55.756 17.6562C55.753 17.664 55.748 17.6709 55.7413 17.6763Z" fill="#191816"/>
<path d="M55.7413 17.6763L55.7444 17.6626C55.8699 17.5989 55.9636 17.6651 56.0573 17.7305C56.0695 17.7667 56.0484 17.7808 56.0189 17.7916C55.9244 17.7566 55.8089 17.7674 55.7413 17.6763Z" fill="#2F2D29"/>
<path d="M60.6148 15.5552L60.6509 15.6322C60.6232 15.7211 60.6082 15.8148 60.5457 15.8911C60.5373 15.8874 60.5299 15.8821 60.524 15.8754C60.5182 15.8687 60.514 15.8608 60.5119 15.8524C60.5464 15.7533 60.5807 15.6542 60.6148 15.5552Z" fill="#383532"/>
<path d="M60.5119 15.8523L60.5457 15.8909C60.5092 15.9831 60.4942 16.0876 60.386 16.1393C60.3967 16.0312 60.4731 15.9492 60.5119 15.8523Z" fill="#2A2828"/>
<path d="M56.9367 17.5739C56.8546 17.6238 56.7594 17.631 56.668 17.6495C56.6613 17.6429 56.6565 17.6347 56.6542 17.6258C56.6519 17.6169 56.6522 17.6076 56.655 17.5989C56.7279 17.5226 56.8193 17.5088 56.9206 17.5287C56.925 17.5305 56.9289 17.5332 56.9321 17.5365C56.9353 17.5398 56.9378 17.5437 56.9393 17.5479C56.9408 17.5522 56.9414 17.5567 56.9409 17.5612C56.9405 17.5657 56.9391 17.57 56.9367 17.5739Z" fill="#141414"/>
<path d="M57.3644 17.4028C57.3761 17.4035 57.388 17.4035 57.3997 17.4028C57.3928 17.5955 57.2177 17.4936 57.1279 17.5406C57.1228 17.5338 57.1199 17.5259 57.1194 17.5176C57.1189 17.5094 57.121 17.5011 57.1252 17.4939C57.1878 17.4252 57.2834 17.431 57.3644 17.4028Z" fill="#131315"/>
<path d="M55.4845 17.5083L55.4415 17.5444L55.2879 17.4388L55.3332 17.4027C55.4181 17.3918 55.476 17.4182 55.4845 17.5083Z" fill="#2E2B26"/>
<path d="M58.7775 16.322C58.8846 16.3466 58.9222 16.4305 58.9606 16.5133C58.8543 16.4887 58.8105 16.4102 58.7775 16.322Z" fill="#36332E"/>
<path d="M56.4768 17.6904C56.4088 17.7351 56.3267 17.7569 56.2438 17.7522C56.2402 17.7445 56.2388 17.736 56.2397 17.7275C56.2405 17.7191 56.2437 17.7111 56.2488 17.7041C56.3137 17.6506 56.3847 17.6173 56.4738 17.6455C56.4781 17.6491 56.4814 17.6537 56.4832 17.6589C56.4851 17.664 56.4856 17.6695 56.4845 17.6748C56.4822 17.6853 56.4795 17.6904 56.4768 17.6904Z" fill="#151516"/>
<path d="M58.6301 16.139L58.6646 16.1028C58.7141 16.1563 58.7633 16.2113 58.7644 16.2876C58.6761 16.2724 58.6662 16.195 58.6301 16.139Z" fill="#413D3A"/>
<path d="M56.2438 17.737V17.7522C56.1774 17.81 56.1002 17.8114 56.0185 17.7916L56.0569 17.7616C56.1125 17.7015 56.1717 17.6712 56.2438 17.737Z" fill="#0D0D0E"/>
<path d="M59.5836 16.5668C59.6243 16.4854 59.7076 16.4627 59.7879 16.4355C59.7579 16.5346 59.6681 16.5483 59.5836 16.5668Z" fill="#2A261F"/>
<path d="M56.4769 17.6905C56.4769 17.6814 56.4769 17.6724 56.4769 17.6634C56.5202 17.5708 56.5866 17.5661 56.6688 17.6185V17.6496C56.6051 17.6684 56.5467 17.7035 56.4769 17.6905Z" fill="#121314"/>
<path d="M57.1268 17.5111C57.1268 17.5212 57.1268 17.5314 57.1268 17.5415C57.0634 17.5545 57.0055 17.595 56.9348 17.574C56.9348 17.5679 56.9348 17.5614 56.9348 17.5552C56.9797 17.4616 57.0465 17.4583 57.1268 17.5111Z" fill="#0F0F11"/>
<path d="M55.0584 17.1449L55.02 17.185L54.9394 17.0819L54.9778 17.0422C55.033 17.0566 55.068 17.0845 55.0584 17.1449Z" fill="#1F1D16"/>
<path d="M59.8455 16.4234C59.8577 16.394 59.8792 16.3689 59.9072 16.3514C59.9352 16.334 59.9682 16.3252 60.0017 16.3262C59.9925 16.4194 59.9192 16.4216 59.8455 16.4234Z" fill="#4B453A"/>
<path d="M57.402 16.9984L57.3636 17.0415C57.3528 17.0334 57.3438 17.0233 57.3374 17.0118C57.331 17.0002 57.3273 16.9876 57.3265 16.9746C57.3257 16.9616 57.3279 16.9486 57.3328 16.9364C57.3378 16.9243 57.3454 16.9132 57.3552 16.9041L57.3897 16.864C57.3955 16.9088 57.3978 16.9536 57.402 16.9984Z" fill="#08090B"/>
<path d="M61.3311 23.4072C61.4044 23.4155 61.4816 23.4278 61.5188 23.5189C61.5572 23.6155 61.5135 23.6867 61.4474 23.7435C61.3119 23.8595 61.1311 23.8939 60.9676 23.9604C60.9556 23.9659 60.9419 23.9669 60.9292 23.9633C60.8666 23.938 60.8835 23.8812 60.8835 23.8378C60.8835 23.7377 60.7683 23.6137 60.8869 23.5432C61.0204 23.4632 61.1732 23.4164 61.3311 23.4072Z" fill="#010101"/>
<path d="M61.2808 22.6328C61.2821 22.6629 61.2751 22.6928 61.2606 22.7196C61.2461 22.7465 61.2245 22.7694 61.1979 22.7861C61.1413 22.8244 61.0807 22.8571 61.0171 22.8837C60.7368 22.9922 60.6574 22.9405 60.6658 22.652C60.6658 22.5862 60.9568 22.4647 61.1042 22.4676C61.2244 22.4697 61.2835 22.5251 61.2808 22.6328Z" fill="#030302"/>
<path d="M79.0195 23.0802C79.3703 23.0878 79.773 23.0589 80.1711 23.133C80.7297 23.2372 81.0633 23.5307 81.1067 23.9715C81.1562 24.4704 80.8855 24.8616 80.3581 25.0644C79.9661 25.2148 79.5519 25.2426 79.1381 25.2528C78.6974 25.2636 78.2552 25.2499 77.8156 25.2586C77.6755 25.2615 77.6644 25.2181 77.6866 25.1063C77.811 24.4758 77.9312 23.8446 78.0471 23.2126C78.0655 23.1132 78.1047 23.0727 78.221 23.077C78.4709 23.0871 78.72 23.0802 79.0195 23.0802Z" fill="black"/>
<path d="M79.5393 20.1481C79.2901 20.1481 79.0402 20.1438 78.7922 20.1481C78.6771 20.151 78.6218 20.1384 78.6467 20.0035C78.7561 19.42 78.8563 18.8346 78.9561 18.2489C78.9673 18.1831 78.9918 18.1513 79.0632 18.1535C79.6368 18.1694 80.2149 18.1083 80.7838 18.1961C81.3769 18.2872 81.676 18.5548 81.6929 18.9847C81.7151 19.5425 81.4057 19.9247 80.8149 20.0693C80.3953 20.1741 79.9681 20.1441 79.5393 20.1481Z" fill="black"/>
<path d="M58.8927 15.3639C58.895 15.0746 59.1153 14.8418 59.3825 14.8508C59.7042 14.862 60.0009 15.1849 59.9967 15.519C59.9925 15.8035 59.7664 16.0363 59.4977 16.0302C59.1756 16.0222 58.8927 15.7092 58.8927 15.3639Z" fill="#0D0D0F"/>
<path d="M60.6451 17.8459C60.7987 18.4381 60.3537 19.3004 59.5188 19.6728C58.6773 20.0481 57.6512 19.8572 57.1302 19.1988C58.4623 19.1023 59.632 18.6539 60.6451 17.8459Z" fill="#FEFEFE"/>
<path d="M57.3544 16.904C57.3571 16.9499 57.3602 16.9954 57.3629 17.0413C57.3629 17.1617 57.3629 17.2825 57.3629 17.4029C57.3318 17.5316 57.187 17.439 57.1264 17.5114C57.0588 17.503 56.9904 17.5188 56.9344 17.5555C56.8404 17.5533 56.7476 17.5751 56.6657 17.6187C56.5981 17.6121 56.5303 17.628 56.4738 17.6636C56.3935 17.6787 56.3091 17.6816 56.2434 17.7359L56.0553 17.7605C55.9544 17.7182 55.858 17.6632 55.7425 17.6614C55.6741 17.5826 55.5713 17.5558 55.4826 17.507L55.329 17.3985L55.0553 17.1433C55.0281 17.1071 55.0008 17.0746 54.9732 17.0406C54.857 16.8602 54.7679 16.6655 54.7083 16.4621C54.6745 16.1064 54.762 15.7843 55.0154 15.5131C55.296 15.2148 55.7037 15.1288 56.111 15.2705C56.3736 15.362 56.5816 15.5236 56.7793 15.7043C57.1007 16.0522 57.2638 16.4629 57.3544 16.904Z" fill="#FEFEFE"/>
<path d="M59.5806 15.3157C59.7061 15.3519 59.7833 15.4773 59.7748 15.6371C59.7679 15.7752 59.7023 15.8837 59.5576 15.9188C59.3368 15.9726 59.0811 15.7608 59.1011 15.55C59.1115 15.4415 59.2412 15.5286 59.2769 15.4592C59.2786 15.4345 59.2864 15.4105 59.2997 15.3891C59.3131 15.3678 59.3316 15.3497 59.3537 15.3363C59.4301 15.3381 59.5103 15.3735 59.5806 15.3157Z" fill="#030405"/>
<path d="M59.3587 15.3573C59.3587 15.4101 59.3092 15.4296 59.2769 15.4596C59.2385 15.4607 59.2 15.4593 59.1618 15.4556C59.0631 15.4404 59.0209 15.3736 59.0197 15.2897C59.0197 15.2213 59.0508 15.1534 59.128 15.1357C59.2236 15.1136 59.3222 15.1107 59.3583 15.23C59.376 15.272 59.3959 15.3143 59.3587 15.3573Z" fill="#F8F8F8"/>
<path d="M59.3587 15.3573V15.23C59.4097 15.311 59.536 15.2213 59.5813 15.3161C59.541 15.4939 59.447 15.4108 59.3587 15.3573Z" fill="#D8D7D9"/>
<path d="M56.1912 16.0681C56.3667 16.0681 56.5797 16.2181 56.6815 16.4513C56.7874 16.695 56.7506 16.9506 56.5828 17.1021C56.5264 17.1557 56.4555 17.1939 56.3778 17.2125C56.3001 17.2311 56.2185 17.2294 56.1417 17.2077C55.7655 17.1115 55.5425 16.6531 55.7144 16.3248C55.7981 16.165 55.9325 16.0619 56.1912 16.0681Z" fill="#0E0D0F"/>
<path d="M56.4335 16.5714C56.4768 16.5229 56.5179 16.4333 56.5686 16.567C56.5813 16.6007 56.6051 16.6303 56.6162 16.6643C56.6406 16.7388 56.6382 16.8189 56.6094 16.892C56.5805 16.9651 56.5267 17.0272 56.4565 17.0685C56.3091 17.1593 56.1997 17.0703 56.1026 16.9922C55.9728 16.8877 55.9214 16.7547 56.0285 16.6025C56.1594 16.5475 56.2887 16.4687 56.4335 16.5714Z" fill="#030405"/>
<path d="M56.4335 16.5713C56.2937 16.5293 56.1647 16.6219 56.0285 16.6023C55.9279 16.5159 55.8749 16.4071 55.9928 16.316C56.1106 16.2249 56.2143 16.2697 56.2914 16.4042C56.3244 16.4613 56.4918 16.4306 56.4335 16.5713Z" fill="#FBFBFB"/>
</g>
</g>
<defs>
<clipPath id="clip0_6_88">
<rect width="180" height="40" fill="white"/>
</clipPath>
</defs>
</svg>
