<svg width="180" height="40" viewBox="0 0 180 40" fill="none" xmlns="http://www.w3.org/2000/svg">
<g clip-path="url(#clip0_6_176)">
<path d="M160 0H20C8.9543 0 0 8.9543 0 20C0 31.0457 8.9543 40 20 40H160C171.046 40 180 31.0457 180 20C180 8.9543 171.046 0 160 0Z" fill="white"/>
<mask id="mask0_6_176" style="mask-type:luminance" maskUnits="userSpaceOnUse" x="29" y="14" width="122" height="12">
<path d="M151 14H29V26H151V14Z" fill="white"/>
</mask>
<g mask="url(#mask0_6_176)">
<path d="M61.4208 14.0189L55.1855 22.7906C54.4878 23.7713 53.5542 24.5731 52.4652 25.1269C51.3762 25.6806 50.1645 25.9698 48.9344 25.9693H46.2626L52.5132 17.1901C53.2108 16.2093 54.1443 15.4074 55.2331 14.8536C56.322 14.2997 57.5337 14.0104 58.7637 14.0107L61.4208 14.0189Z" fill="#FD9966"/>
<path d="M52.7993 14.0189L46.564 22.7906C45.8642 23.7737 44.9276 24.577 43.8351 25.131C42.7426 25.685 41.5272 25.9729 40.2939 25.9699H37.6216L43.8721 17.1906C44.572 16.2071 45.509 15.4036 46.602 14.8496C47.6949 14.2956 48.9109 14.0078 50.1446 14.0113L52.7993 14.0189Z" fill="#FD9966"/>
<path d="M44.1777 14.0189L37.9424 22.7906C37.2427 23.7737 36.3061 24.5771 35.2136 25.1311C34.1211 25.685 32.9057 25.973 31.6724 25.9699H29L35.2506 17.1906C35.9505 16.2072 36.8875 15.4037 37.9805 14.8497C39.0734 14.2957 40.2894 14.0079 41.523 14.0113L44.1777 14.0189Z" fill="#FD9966"/>
<path d="M61.4208 14.0188L55.1855 22.7904C54.4879 23.7711 53.5545 24.573 52.4656 25.1269C51.3767 25.6807 50.165 25.97 48.935 25.9698H46.2626C54.4243 25.9768 56.2988 14.0188 61.4208 14.0188Z" fill="#CE6E4D"/>
<path d="M52.7993 14.0188L46.564 22.7904C45.8664 23.7711 44.9329 24.573 43.844 25.1269C42.7552 25.6807 41.5435 25.97 40.3134 25.9698H37.6411C45.8027 25.9768 47.6772 14.0188 52.7993 14.0188Z" fill="#CE6E4D"/>
<path d="M44.1777 14.0188L37.9424 22.7904C37.2448 23.7711 36.3114 24.573 35.2225 25.1269C34.1336 25.6807 32.9219 25.97 31.6919 25.9698H29.0195C37.1812 25.9768 39.0556 14.0188 44.1777 14.0188Z" fill="#CE6E4D"/>
<path d="M89.8097 26L85.8051 21.068H82.9754V26H80.4982L80.5141 14H88.156C91.048 14 91.6244 16.2192 91.6244 17.5207C91.6329 18.4028 91.3347 19.262 90.7777 19.9601C90.2641 20.5263 89.5492 20.8847 88.7752 20.964L89.3943 21.7034L92.8236 26.0018L89.8097 26ZM82.9754 19.2356H87.5997C88.033 19.1924 88.4328 18.9903 88.7169 18.6707C89.0011 18.3511 89.1481 17.9384 89.1277 17.5172C89.1561 17.308 89.1392 17.0954 89.0782 16.8928C89.0172 16.6903 88.9134 16.5022 88.7733 16.3406C88.6333 16.179 88.46 16.0473 88.2646 15.9539C88.0692 15.8605 87.8558 15.8075 87.6381 15.7981H82.9754V19.2356ZM143.279 25.9965V22.0583L138.037 14H140.928L143.417 18.0156L144.534 19.9353L145.651 17.9967L148.108 14H151L145.754 21.9974V25.9959L143.279 25.9965ZM118.636 25.9965V14H121.112V25.9965H118.636ZM103.226 25.9965L103.218 14H111.168C114.182 14 114.742 16.3975 114.742 17.699C114.742 19.0005 114.104 21.4193 111.129 21.4193H105.705V25.9982L103.226 25.9965ZM105.705 19.5922H110.639C111.713 19.5922 112.269 18.5884 112.269 17.6955C112.266 16.7205 111.788 15.7981 110.655 15.7981H105.705V19.5922ZM96.2994 25.9965L96.2993 14H98.7759V25.9965H96.2994ZM64.4232 25.9965V14H70.2663C75.988 14 76.562 17.9795 76.6071 19.9979C76.6498 21.8953 76.1136 25.9965 70.1644 25.9965H64.4232ZM66.9083 24.1948H70.1724C73.1033 24.1948 74.1769 22.3547 74.1373 19.9944C74.0866 17.578 73.1381 15.7987 70.0815 15.7987H66.9095L66.9083 24.1948ZM125.174 25.9929L125.159 14H135.487V15.8212H127.652V19.4783H134.483V21.2729H127.652V25.9923L125.174 25.9929Z" fill="black"/>
</g>
</g>
<defs>
<clipPath id="clip0_6_176">
<rect width="180" height="40" fill="white"/>
</clipPath>
</defs>
</svg>
