<svg width="180" height="40" viewBox="0 0 180 40" fill="none" xmlns="http://www.w3.org/2000/svg">
<g clip-path="url(#clip0_6_495)">
<path d="M160 0H20C8.9543 0 0 8.9543 0 20C0 31.0457 8.9543 40 20 40H160C171.046 40 180 31.0457 180 20C180 8.9543 171.046 0 160 0Z" fill="white"/>
<mask id="mask0_6_495" style="mask-type:luminance" maskUnits="userSpaceOnUse" x="36" y="13" width="108" height="14">
<path d="M144 13.5H36V26.5H144V13.5Z" fill="white"/>
</mask>
<g mask="url(#mask0_6_495)">
<path d="M36 17.8159C36 15.4323 37.9552 13.5 40.367 13.5H44.734C47.1458 13.5 49.1009 15.4323 49.1009 17.8159V22.1318C49.1009 24.5154 47.1458 26.4477 44.734 26.4477H40.367C37.9552 26.4477 36 24.5154 36 22.1318V17.8159Z" fill="#4083FF"/>
<path d="M42.7521 21.016C42.7203 21.016 42.6876 21.0118 42.6558 21.0019C41.4762 20.6583 40.6527 19.5687 40.6527 18.3524V16.983C40.6527 16.6974 40.4181 16.4655 40.1291 16.4655C39.8401 16.4655 39.6055 16.6974 39.6055 16.983V19.0198C39.6055 19.2061 39.4531 19.3567 39.2646 19.3567C39.0761 19.3567 38.9236 19.2061 38.9236 19.0198V16.983C38.9236 16.3256 39.4648 15.7908 40.13 15.7908C40.7951 15.7908 41.3363 16.3256 41.3363 16.983V18.3533C41.3363 19.2731 41.9588 20.0961 42.8501 20.3561C43.0311 20.4091 43.1341 20.5962 43.0813 20.775C43.0361 20.9207 42.8996 21.016 42.7521 21.016Z" fill="white"/>
<path d="M40.1291 24.1406C39.4639 24.1406 38.9227 23.6057 38.9227 22.9483V21.5781C38.9227 20.7369 39.3039 19.952 39.9682 19.4238C40.1148 19.307 40.3301 19.3302 40.4482 19.4751C40.5664 19.62 40.5429 19.8328 40.3963 19.9495C39.8937 20.3486 39.6063 20.9422 39.6063 21.5781V22.9483C39.6063 23.234 39.8409 23.4658 40.1299 23.4658C40.4189 23.4658 40.6535 23.234 40.6535 22.9483V20.9108C40.6535 20.7245 40.806 20.5738 40.9944 20.5738C41.1829 20.5738 41.3354 20.7245 41.3354 20.9108V22.9483C41.3354 23.6057 40.7942 24.1406 40.1291 24.1406Z" fill="white"/>
<path d="M45.0357 24.1405C44.3706 24.1405 43.8294 23.6057 43.8294 22.9483V21.578C43.8294 20.659 43.2069 19.8352 42.3156 19.5752C42.1346 19.5222 42.0315 19.3351 42.0852 19.1563C42.1388 18.9774 42.3281 18.8756 42.5091 18.9286C43.6886 19.2722 44.5121 20.3618 44.5121 21.578V22.9483C44.5121 23.2339 44.7467 23.4658 45.0357 23.4658C45.3247 23.4658 45.5593 23.2339 45.5593 22.9483V20.8627C45.5593 20.6764 45.7118 20.5257 45.9003 20.5257C46.0888 20.5257 46.2412 20.6764 46.2412 20.8627V22.9483C46.2421 23.6057 45.7009 24.1405 45.0357 24.1405Z" fill="white"/>
<path d="M44.9831 20.5813C44.8834 20.5813 44.7845 20.5383 44.7167 20.4555C44.5985 20.3106 44.622 20.0978 44.7686 19.9811C45.2704 19.582 45.5586 18.9884 45.5586 18.3525V16.9831C45.5586 16.6974 45.324 16.4656 45.035 16.4656C44.746 16.4656 44.5114 16.6974 44.5114 16.9831V19.0198C44.5114 19.2061 44.3589 19.3568 44.1704 19.3568C43.9819 19.3568 43.8295 19.2061 43.8295 19.0198V16.9831C43.8295 16.3257 44.3707 15.7908 45.0358 15.7908C45.701 15.7908 46.2422 16.3257 46.2422 16.9831V18.3533C46.2422 19.1945 45.861 19.9802 45.1967 20.5076C45.1338 20.5565 45.0585 20.5813 44.9831 20.5813Z" fill="white"/>
<mask id="mask1_6_495" style="mask-type:luminance" maskUnits="userSpaceOnUse" x="53" y="14" width="88" height="12">
<path d="M140.808 14.3633H53.4679V25.8136H140.808V14.3633Z" fill="white"/>
</mask>
<g mask="url(#mask1_6_495)">
<path d="M59.4422 17.766C59.0504 17.4399 58.4814 17.2756 57.7447 17.2756C57.4072 17.2756 57.0869 17.3304 56.8012 17.4399C56.5154 17.547 56.2518 17.6913 56.0177 17.8681C55.8157 18.0174 55.6383 18.1792 55.4905 18.351V15.3988C55.4881 15.1075 55.392 14.8611 55.2023 14.662C55.0101 14.4628 54.7662 14.3633 54.478 14.3633C54.1873 14.3633 53.9459 14.4628 53.7537 14.662C53.564 14.8611 53.4679 15.1075 53.4679 15.3988V24.6287C53.4679 24.92 53.564 25.1689 53.7537 25.3656C53.9434 25.5647 54.1873 25.6643 54.478 25.6643C54.7662 25.6643 55.0101 25.5647 55.2023 25.3656C55.392 25.1689 55.4881 24.92 55.4881 24.6287V20.8053C55.4881 20.4992 55.5497 20.2179 55.6753 19.9739C55.796 19.7325 55.9832 19.5358 56.2271 19.389C56.4735 19.2421 56.7741 19.1674 57.1264 19.1674C57.4811 19.1674 57.7546 19.2396 57.9394 19.3815C58.1266 19.5259 58.2522 19.7126 58.3237 19.954C58.3976 20.2054 58.437 20.4917 58.437 20.8078V24.6313C58.437 24.9225 58.5331 25.1714 58.7228 25.3681C58.9125 25.5672 59.1563 25.6668 59.4471 25.6668C59.7353 25.6668 59.9792 25.5672 60.1715 25.3681C60.3611 25.1714 60.4572 24.9225 60.4572 24.6313V20.8053C60.4572 20.1706 60.3856 19.5831 60.2453 19.0629C60.0999 18.5277 59.829 18.0921 59.4422 17.766Z" fill="#081131"/>
<path d="M68.1215 17.425C67.8307 17.425 67.5893 17.5245 67.3971 17.7237C67.2074 17.9203 67.1114 18.1693 67.1114 18.4606V22.2542C67.1114 22.8267 66.9881 23.2522 66.7442 23.5211C66.5028 23.7874 66.1258 23.9219 65.6234 23.9219C65.1305 23.9219 64.7561 23.7874 64.5171 23.5211C64.2731 23.2522 64.1499 22.8267 64.1499 22.2542V18.4606C64.1499 18.1693 64.0539 17.9228 63.8642 17.7237C63.672 17.5245 63.4306 17.425 63.1398 17.425C62.8493 17.425 62.6079 17.5245 62.4157 17.7237C62.226 17.9203 62.1298 18.1693 62.1298 18.4606V22.2542C62.1298 23.337 62.433 24.2106 63.0291 24.8478C63.6254 25.49 64.4998 25.8137 65.6234 25.8137C66.7468 25.8137 67.6237 25.49 68.2248 24.8478C68.826 24.2106 69.1315 23.337 69.1315 22.2542V18.4606C69.1315 18.1693 69.0353 17.9228 68.8456 17.7237C68.6536 17.527 68.4097 17.425 68.1215 17.425Z" fill="#081131"/>
<path d="M81.7477 17.7659C81.3559 17.4399 80.7868 17.2756 80.0502 17.2756C79.5992 17.2756 79.1829 17.3727 78.8183 17.5668C78.4588 17.756 78.1459 17.99 77.892 18.2638C77.7319 18.4356 77.5964 18.6023 77.4879 18.7641C77.3476 18.4281 77.1579 18.1344 76.9165 17.8879C76.5198 17.4822 75.9039 17.2756 75.0835 17.2756C74.7459 17.2756 74.4258 17.3304 74.1399 17.4399C73.8542 17.5469 73.5907 17.6913 73.3565 17.868C73.152 18.0199 72.9748 18.1841 72.8243 18.3559C72.8047 18.1095 72.7087 17.8979 72.5435 17.7236C72.3515 17.5245 72.1101 17.4249 71.8193 17.4249C71.5285 17.4249 71.2872 17.5245 71.0949 17.7236C70.9052 17.9203 70.8092 18.1692 70.8092 18.4604V24.6287C70.8092 24.9199 70.9052 25.1689 71.0949 25.3655C71.2846 25.5646 71.5285 25.6642 71.8193 25.6642C72.1075 25.6642 72.3515 25.5646 72.5435 25.3655C72.7332 25.1689 72.8294 24.9199 72.8294 24.6287V20.8053C72.8294 20.4991 72.891 20.2178 73.0165 19.9739C73.1372 19.7324 73.3246 19.5358 73.5685 19.3889C73.8148 19.2421 74.1155 19.1674 74.4676 19.1674C74.8223 19.1674 75.0958 19.2396 75.2806 19.3815C75.4678 19.5258 75.5935 19.7125 75.6649 19.954C75.7389 20.2054 75.7784 20.4916 75.7784 20.8078V24.6312C75.7784 24.9224 75.8744 25.1714 76.0641 25.368C76.2538 25.5671 76.4977 25.6667 76.7885 25.6667C77.0767 25.6667 77.3204 25.5671 77.5126 25.368C77.7023 25.1714 77.7985 24.9224 77.7985 24.6312V20.8053C77.7985 20.4991 77.8599 20.2178 77.9857 19.9739C78.1064 19.7324 78.2935 19.5358 78.5375 19.3889C78.7839 19.2421 79.0844 19.1674 79.4368 19.1674C79.7915 19.1674 80.0649 19.2396 80.2498 19.3815C80.4369 19.5258 80.5627 19.7125 80.634 19.954C80.7079 20.2054 80.7473 20.4916 80.7473 20.8078V24.6312C80.7473 24.9224 80.8435 25.1714 81.0332 25.368C81.2229 25.5671 81.4669 25.6667 81.7574 25.6667C82.0456 25.6667 82.2895 25.5671 82.4818 25.368C82.6715 25.1714 82.7675 24.9224 82.7675 24.6312V20.8053C82.7675 20.1705 82.6962 19.5856 82.5556 19.0628C82.4054 18.5277 82.1345 18.092 81.7477 17.7659Z" fill="#081131"/>
<path d="M90.9588 17.2756C90.6706 17.2756 90.4269 17.3751 90.2347 17.5743C90.0992 17.7162 90.0104 17.8805 89.9735 18.0796C89.9365 18.0497 89.8971 18.0174 89.8576 17.9875C89.5867 17.7809 89.2664 17.6091 88.9018 17.4772C88.5348 17.3428 88.1282 17.2756 87.6923 17.2756C87.0122 17.2756 86.3815 17.4598 85.8224 17.8257C85.2655 18.1891 84.8146 18.6969 84.4871 19.3366C84.1595 19.9739 83.9919 20.7206 83.9919 21.552C83.9919 22.376 84.1569 23.1153 84.4871 23.7525C84.8171 24.3922 85.2704 24.9 85.8397 25.2635C86.4088 25.6269 87.0517 25.8136 87.7537 25.8136C88.1407 25.8136 88.5076 25.7489 88.8401 25.6194C89.1678 25.4925 89.4611 25.3332 89.7051 25.1465C89.8059 25.0693 89.8996 24.9921 89.9859 24.9125C90.0277 25.0842 90.114 25.2361 90.237 25.3655C90.4269 25.5646 90.6706 25.6642 90.9614 25.6642C91.2496 25.6642 91.4935 25.5646 91.6858 25.3655C91.8755 25.1689 91.9715 24.9199 91.9715 24.6287V18.3111C91.9715 18.0099 91.8755 17.7585 91.6832 17.5668C91.491 17.3727 91.2471 17.2756 90.9588 17.2756ZM90.0228 21.552C90.0228 21.9976 89.934 22.4083 89.7616 22.7668C89.5892 23.1227 89.3478 23.409 89.0423 23.6131C88.7393 23.8172 88.3795 23.9218 87.9731 23.9218C87.5765 23.9218 87.2218 23.8172 86.9185 23.6131C86.6132 23.4065 86.3716 23.1227 86.1992 22.7668C86.0268 22.4083 85.9382 22.0001 85.9382 21.552C85.9382 21.094 86.0268 20.6808 86.1992 20.3224C86.3716 19.9664 86.6132 19.6802 86.9185 19.476C87.2218 19.2719 87.5765 19.1674 87.9731 19.1674C88.3795 19.1674 88.7393 19.2719 89.0423 19.476C89.3478 19.6826 89.5892 19.9664 89.7616 20.3224C89.934 20.6808 90.0228 21.0965 90.0228 21.552Z" fill="#081131"/>
<path d="M99.7343 17.7659C99.3353 17.4399 98.7489 17.2756 97.995 17.2756C97.6477 17.2756 97.32 17.3304 97.0218 17.4399C96.7262 17.5469 96.4576 17.6913 96.2213 17.868C96.0092 18.0248 95.8221 18.1966 95.6596 18.3733C95.6423 18.1194 95.5461 17.9004 95.3762 17.7236C95.184 17.5245 94.9426 17.4249 94.6518 17.4249C94.3636 17.4249 94.1197 17.5245 93.9277 17.7236C93.738 17.9203 93.6418 18.1692 93.6418 18.4604V24.6287C93.6418 24.9199 93.738 25.1689 93.9277 25.3655C94.1174 25.5646 94.3613 25.6642 94.6518 25.6642C94.9401 25.6642 95.184 25.5646 95.3762 25.3655C95.5659 25.1689 95.6619 24.9199 95.6619 24.6287V20.8053C95.6619 20.4991 95.7284 20.2203 95.8615 19.9764C95.9922 19.7349 96.1867 19.5358 96.4355 19.3889C96.6868 19.2421 97.0022 19.1674 97.3717 19.1674C97.7462 19.1674 98.0368 19.2396 98.2315 19.3815C98.4286 19.5258 98.5615 19.7125 98.6379 19.954C98.7168 20.2054 98.7586 20.4916 98.7586 20.8053V24.6287C98.7586 24.9199 98.8548 25.1689 99.0445 25.3655C99.2342 25.5646 99.4782 25.6642 99.7687 25.6642C100.057 25.6642 100.301 25.5646 100.493 25.3655C100.683 25.1689 100.779 24.9199 100.779 24.6287V20.8053C100.779 20.1705 100.705 19.5831 100.56 19.0603C100.409 18.5252 100.133 18.0896 99.7343 17.7659Z" fill="#081131"/>
<path d="M103.627 14.3633C103.338 14.3633 103.092 14.4628 102.897 14.662C102.703 14.8586 102.602 15.1075 102.602 15.3988V24.6287C102.602 24.92 102.698 25.1689 102.888 25.3656C103.077 25.5647 103.316 25.6643 103.597 25.6643C103.886 25.6643 104.132 25.5647 104.326 25.3656C104.521 25.1689 104.622 24.92 104.622 24.6287V15.3988C104.622 15.1075 104.529 14.8611 104.344 14.6645C104.159 14.4653 103.917 14.3633 103.627 14.3633Z" fill="#081131"/>
<path d="M107.352 17.425C107.064 17.425 106.82 17.5245 106.628 17.7237C106.438 17.9203 106.342 18.1693 106.342 18.4606V24.6288C106.342 24.92 106.438 25.169 106.628 25.3657C106.817 25.5647 107.061 25.6644 107.352 25.6644C107.64 25.6644 107.884 25.5647 108.076 25.3657C108.266 25.169 108.362 24.92 108.362 24.6288V18.4606C108.362 18.1693 108.266 17.9228 108.076 17.7237C107.884 17.527 107.64 17.425 107.352 17.425Z" fill="#081131"/>
<path d="M107.352 14.677C107.007 14.677 106.756 14.7342 106.581 14.8562C106.393 14.9856 106.297 15.2171 106.297 15.5482V15.832C106.297 16.1506 106.384 16.3796 106.551 16.5115C106.714 16.6409 106.97 16.7032 107.337 16.7032C107.702 16.7032 107.963 16.6434 108.133 16.5239C108.313 16.3945 108.406 16.163 108.406 15.832V15.5482C108.406 15.2296 108.32 15.003 108.153 14.8686C107.99 14.7392 107.729 14.677 107.352 14.677Z" fill="#4083FF"/>
<path d="M116.024 17.7659C115.625 17.4399 115.038 17.2756 114.284 17.2756C113.937 17.2756 113.609 17.3304 113.311 17.4399C113.016 17.5469 112.747 17.6913 112.511 17.868C112.299 18.0248 112.111 18.1966 111.949 18.3733C111.932 18.1194 111.835 17.9004 111.666 17.7236C111.473 17.5245 111.232 17.4249 110.941 17.4249C110.653 17.4249 110.409 17.5245 110.217 17.7236C110.027 17.9203 109.931 18.1692 109.931 18.4604V24.6287C109.931 24.9199 110.027 25.1689 110.217 25.3655C110.407 25.5646 110.65 25.6642 110.941 25.6642C111.229 25.6642 111.473 25.5646 111.666 25.3655C111.855 25.1689 111.951 24.9199 111.951 24.6287V20.8053C111.951 20.4991 112.018 20.2203 112.151 19.9764C112.281 19.7349 112.476 19.5358 112.725 19.3889C112.976 19.2421 113.292 19.1674 113.661 19.1674C114.036 19.1674 114.326 19.2396 114.521 19.3815C114.718 19.5258 114.851 19.7125 114.927 19.954C115.006 20.2054 115.048 20.4916 115.048 20.8053V24.6287C115.048 24.9199 115.144 25.1689 115.334 25.3655C115.524 25.5646 115.767 25.6642 116.058 25.6642C116.346 25.6642 116.59 25.5646 116.782 25.3655C116.972 25.1689 117.068 24.9199 117.068 24.6287V20.8053C117.068 20.1705 116.994 19.5831 116.849 19.0603C116.699 18.5252 116.423 18.0896 116.024 17.7659Z" fill="#081131"/>
<path d="M123.035 21.1364L125.171 19.15C125.435 18.9185 125.568 18.6596 125.568 18.3833C125.568 18.1742 125.472 17.9602 125.285 17.7486C125.092 17.532 124.863 17.4225 124.602 17.4225C124.324 17.4225 124.075 17.5295 123.865 17.7411L120.912 20.6211V15.3988C120.912 15.1075 120.816 14.8611 120.626 14.662C120.434 14.4628 120.192 14.3633 119.901 14.3633C119.611 14.3633 119.369 14.4628 119.177 14.662C118.988 14.8586 118.891 15.1075 118.891 15.3988V24.6287C118.891 24.92 118.988 25.1689 119.177 25.3656C119.367 25.5647 119.611 25.6643 119.901 25.6643C120.19 25.6643 120.434 25.5647 120.626 25.3656C120.816 25.1689 120.912 24.92 120.912 24.6287V23.1128L121.51 22.5577L124.082 25.3108C124.282 25.5373 124.533 25.6518 124.824 25.6518C125.048 25.6518 125.277 25.5597 125.499 25.378C125.73 25.1888 125.849 24.9424 125.849 24.6462C125.849 24.3649 125.743 24.111 125.536 23.8895L123.035 21.1364Z" fill="#081131"/>
<path d="M133.013 18.4854C132.658 18.112 132.244 17.8133 131.786 17.5992C131.323 17.3827 130.825 17.2732 130.308 17.2732C129.64 17.2732 128.997 17.4499 128.398 17.7984C127.8 18.1469 127.309 18.6522 126.942 19.3019C126.573 19.9491 126.386 20.7431 126.386 21.6567C126.386 22.4408 126.558 23.1552 126.896 23.7775C127.236 24.4023 127.728 24.9051 128.361 25.266C128.992 25.6294 129.746 25.8136 130.603 25.8136C131.108 25.8136 131.604 25.729 132.079 25.5597C132.555 25.3905 132.931 25.1913 133.193 24.9648C133.498 24.7209 133.653 24.4421 133.653 24.1359C133.653 23.9044 133.569 23.7003 133.404 23.5261C133.121 23.2298 132.69 23.1726 132.214 23.4141C132.104 23.4738 131.98 23.5485 131.845 23.6356C131.722 23.7128 131.557 23.78 131.352 23.8372C131.148 23.8945 130.864 23.9219 130.512 23.9219C130.14 23.9219 129.785 23.8297 129.455 23.6455C129.128 23.4638 128.854 23.1925 128.645 22.839C128.551 22.6797 128.477 22.4955 128.423 22.2889H133.143C133.409 22.2889 133.643 22.2043 133.843 22.035C134.047 21.8633 134.156 21.6367 134.168 21.358C134.168 20.8053 134.062 20.2776 133.855 19.7848C133.651 19.2969 133.365 18.8588 133.013 18.4854ZM132.03 20.5465H128.435C128.453 20.4793 128.467 20.4195 128.487 20.3672C128.588 20.0685 128.728 19.8271 128.901 19.6529C129.073 19.4786 129.28 19.3542 129.514 19.2795C130.005 19.1276 130.616 19.1052 131.116 19.3542C131.37 19.4786 131.584 19.6529 131.754 19.8644C131.916 20.071 132.01 20.3001 132.03 20.5465Z" fill="#081131"/>
<path d="M140.458 17.5594C140.234 17.3727 139.955 17.2756 139.632 17.2756C139.376 17.2756 139.12 17.3079 138.864 17.3677C138.608 17.4299 138.364 17.527 138.137 17.6564C137.91 17.7859 137.706 17.9502 137.524 18.1418C137.482 18.1841 137.445 18.2314 137.405 18.2812C137.373 18.0672 137.282 17.878 137.132 17.7236C136.94 17.5245 136.698 17.4249 136.408 17.4249C136.119 17.4249 135.876 17.5245 135.683 17.7236C135.494 17.9203 135.398 18.1692 135.398 18.4604V24.6287C135.398 24.9199 135.494 25.1689 135.683 25.3655C135.873 25.5646 136.117 25.6642 136.408 25.6642C136.696 25.6642 136.94 25.5646 137.132 25.3655C137.322 25.1689 137.418 24.9199 137.418 24.6287V21.089C137.418 20.7455 137.462 20.4468 137.551 20.1979C137.639 19.949 137.755 19.7399 137.898 19.5731C138.039 19.4088 138.194 19.2869 138.359 19.2097C138.709 19.0454 139.063 19.0703 139.32 19.1873C139.487 19.2645 139.677 19.3043 139.881 19.3043C140.108 19.3043 140.317 19.2222 140.507 19.0579C140.702 18.8886 140.803 18.6198 140.803 18.2538C140.808 17.985 140.689 17.751 140.458 17.5594Z" fill="#081131"/>
</g>
</g>
</g>
<defs>
<clipPath id="clip0_6_495">
<rect width="180" height="40" fill="white"/>
</clipPath>
</defs>
</svg>
