<svg width="180" height="40" viewBox="0 0 180 40" fill="none" xmlns="http://www.w3.org/2000/svg">
<g clip-path="url(#clip0_6_74)">
<path d="M160 0H20C8.9543 0 0 8.9543 0 20C0 31.0457 8.9543 40 20 40H160C171.046 40 180 31.0457 180 20C180 8.9543 171.046 0 160 0Z" fill="white"/>
<mask id="mask0_6_74" style="mask-type:luminance" maskUnits="userSpaceOnUse" x="33" y="8" width="114" height="24">
<path d="M146.5 8.5H33.5V31.5H146.5V8.5Z" fill="white"/>
</mask>
<g mask="url(#mask0_6_74)">
<path d="M33.5 19.5752C34.682 17.3456 36.046 15.3013 38.5251 14.1502C39.0045 13.9287 39.2684 13.2315 39.5843 12.7304C40.3282 11.5337 41.3757 10.5448 42.6254 9.85953C43.8751 9.17425 45.2846 8.8157 46.7177 8.81862C48.1508 8.82154 49.5588 9.18582 50.8055 9.8762C52.0523 10.5666 53.0955 11.5597 53.8343 12.7594C54.3242 13.5781 55.0268 14.2558 55.8711 14.7239C57.4494 15.5973 58.6846 16.9599 59.3814 18.5961C60.0781 20.2324 60.1966 22.0489 59.7179 23.7583C58.7887 27.1426 55.6295 29.5137 51.8012 29.5936C48.5974 29.6626 45.3936 29.6408 42.1897 29.6154C38.1273 29.5864 35.4401 27.7998 33.9349 24.2195C33.8234 23.958 33.868 23.6131 33.5 23.4932V19.5752ZM50.3294 13.6672C47.5159 11.2125 43.8845 11.681 42.3495 14.6004C41.6995 15.8815 40.6292 16.9131 39.3092 17.5308C38.3838 18.0126 37.6486 18.7814 37.2193 19.7162C36.79 20.651 36.6911 21.6986 36.938 22.6943C37.1845 23.7232 37.7716 24.6439 38.6083 25.3135C39.4449 25.9832 40.4843 26.3645 41.5653 26.3982C42.3087 26.4381 43.052 26.3982 43.7954 26.3982C47.9507 26.3982 49.1177 25.534 50.0729 21.6776C50.2922 20.7844 50.7903 20.3087 51.712 20.3014C51.9138 20.2853 52.1167 20.3103 52.3081 20.3748C52.4995 20.4392 52.6751 20.5417 52.8239 20.6758C52.9727 20.8099 53.0914 20.9727 53.1725 21.1539C53.2537 21.3351 53.2955 21.5307 53.2954 21.7285C53.3027 22.5554 53.238 23.3814 53.1021 24.1977C53.0501 24.7351 52.9422 25.3306 53.5109 25.6501C54.1985 26.0133 54.6668 25.4867 55.1091 25.0946C55.8364 24.4091 56.3326 23.5235 56.5318 22.5556C56.731 21.5878 56.6237 20.5836 56.2241 19.6768C55.8006 18.7703 55.1039 18.0116 54.2272 17.5022C53.3505 16.9929 52.3356 16.7571 51.3181 16.8264C50.3046 16.917 49.3417 17.2999 48.5516 17.9264C47.7614 18.5529 47.1796 19.3947 46.8803 20.345C46.0663 23.2499 45.6054 23.5513 42.5094 23.2027C41.5988 23.101 40.9855 22.7416 40.8814 21.8156C40.7774 20.8897 41.2532 20.3341 42.1452 20.1089C42.8105 19.9383 43.5166 19.8221 43.7879 19.1176C44.8992 16.1909 47.0773 14.466 50.3294 13.6527V13.6672Z" fill="#0783FE"/>
<path d="M104.233 8.5C104.683 9.95248 104.426 11.4486 104.441 12.9228C104.482 16.7828 104.415 20.6427 104.479 24.5027C104.479 25.7046 104.021 26.006 102.847 25.9987C101.672 25.9915 101.193 25.7772 101.208 24.5462C101.282 19.2011 101.26 13.8597 101.271 8.51454L104.233 8.5Z" fill="#465166"/>
<path d="M80.1451 19.1249C80.7918 18.3587 81.1858 18.0355 81.4013 17.6215C83.0962 14.3825 85.8317 13.4275 89.4481 13.8778C90.697 14.0339 91.2879 14.3934 91.6782 15.4937C92.3992 17.4945 93.254 19.4517 94.2576 21.939C95.1124 19.4517 95.8112 17.4291 96.4876 15.4029C96.5815 15.0948 96.7418 14.8099 96.9576 14.5673C97.1735 14.3247 97.4399 14.13 97.7391 13.9962C98.0383 13.8625 98.3633 13.7927 98.6923 13.7917C99.0214 13.7907 99.3468 13.8584 99.6468 13.9903C100.327 14.2554 100.167 14.6875 99.9925 15.1523C98.0783 20.2796 96.1754 25.4105 94.2427 30.5341C93.6815 32.0301 92.2765 31.3874 91.3771 31.2349C90.2361 31.0424 90.9645 30.0439 91.2321 29.5282C92.6407 26.8194 92.4438 24.2884 90.9311 21.6268C89.7009 19.448 88.8608 17.0841 87.731 14.535C86.2926 16.2562 85.0103 17.8249 83.676 19.3536C83.1445 19.9637 83.5645 20.3159 83.9101 20.7262C85.0252 22.0589 86.1774 23.3879 87.3036 24.7205C87.9912 25.5376 87.8722 25.9116 86.6828 25.9769C85.2816 26.0568 84.2298 25.7663 83.401 24.5462C82.5722 23.3261 81.4497 22.1714 80.1228 20.5882C80.1228 22.2513 80.0448 23.4169 80.1414 24.5826C80.2529 25.8971 79.517 26.0096 78.4465 25.9915C77.469 25.9733 76.8186 25.9261 76.8372 24.6842C76.8966 19.9273 76.8966 15.1717 76.8372 10.4173C76.8372 9.08824 77.64 9.23346 78.5246 9.20441C79.5021 9.16809 80.1786 9.25526 80.1451 10.4971C80.0931 13.2024 80.1451 15.9185 80.1451 19.1249Z" fill="#434E63"/>
<path d="M70.8792 26.3148C69.11 26.2603 67.6494 26.0134 66.5381 24.9385C66.0735 24.4846 65.1071 23.8492 65.9508 23.2246C66.6086 22.7453 67.4375 21.4961 68.6009 22.6618C68.9443 23.0095 69.3762 23.262 69.8522 23.3935C70.3282 23.5249 70.8314 23.5305 71.3104 23.4098C71.8084 23.319 72.2693 23.0721 72.2916 22.5056C72.3101 22.0263 71.9385 21.7794 71.5111 21.6269C70.4667 21.2638 69.3999 20.9914 68.3741 20.6065C66.8874 20.0437 65.9173 19.0632 65.9471 17.3965C65.9768 15.7298 66.8874 14.6078 68.4782 14.0449C70.4555 13.3477 72.3659 13.5003 74.0533 14.7712C74.5327 15.1343 75.4806 15.6354 74.8524 16.2745C74.2243 16.9136 73.3954 17.8468 72.1949 17.0298C72.0588 16.9107 71.912 16.8037 71.7564 16.7102C70.8606 16.3181 69.8013 16.0421 69.3888 17.1206C68.9762 18.199 70.1804 18.239 70.8755 18.5041C71.4441 18.7219 72.0685 18.8054 72.6483 18.9943C74.6703 19.6551 75.6849 20.8934 75.6217 22.5928C75.5586 24.2922 74.4622 25.4977 72.4328 26.0279C71.8456 26.184 71.2323 26.253 70.8792 26.3148Z" fill="#424E63"/>
<path d="M50.3295 13.6527C47.0773 14.466 44.8918 16.1945 43.7805 19.0995C43.5092 19.8039 42.8031 19.9201 42.1378 20.0908C41.2495 20.3159 40.7737 20.886 40.874 21.7975C40.9744 22.7089 41.5914 23.0829 42.502 23.1845C45.598 23.5477 46.0589 23.2426 46.8729 20.3268C47.1722 19.3766 47.754 18.5347 48.5442 17.9082C49.3343 17.2817 50.2972 16.8988 51.3107 16.8082C52.3282 16.7389 53.3431 16.9747 54.2198 17.4841C55.0965 17.9934 55.7932 18.7521 56.2167 19.6587C56.6163 20.5655 56.7236 21.5697 56.5244 22.5375C56.3252 23.5054 55.829 24.391 55.1017 25.0764C54.6594 25.4686 54.1911 26.006 53.5035 25.632C52.9348 25.3197 53.0427 24.7242 53.0947 24.1795C53.2306 23.3633 53.2953 22.5372 53.288 21.7103C53.2881 21.5125 53.2463 21.3169 53.1651 21.1357C53.084 20.9545 52.9653 20.7917 52.8165 20.6576C52.6677 20.5236 52.4921 20.421 52.3007 20.3566C52.1093 20.2921 51.9064 20.2672 51.7046 20.2832C50.7829 20.2832 50.2848 20.7662 50.0655 21.6595C49.1103 25.5267 47.9433 26.38 43.788 26.38C43.0446 26.38 42.3013 26.4091 41.5579 26.38C40.4769 26.3463 39.4375 25.965 38.6009 25.2954C37.7642 24.6257 37.1771 23.7051 36.9306 22.6762C36.6837 21.6805 36.7827 20.6328 37.212 19.698C37.6413 18.7633 38.3764 17.9945 39.3018 17.5126C40.6218 16.895 41.6922 15.8634 42.3422 14.5823C43.8847 11.6664 47.501 11.198 50.3295 13.6527Z" fill="#F8FBFE"/>
<path d="M146.444 24.3467C146.463 19.7241 146.418 15.1016 146.481 10.4791C146.481 9.22272 145.831 9.17917 144.868 9.1937C143.906 9.20822 143.133 9.14646 143.196 10.4319C143.27 11.8844 143.214 13.3369 143.214 14.9201C142.988 14.8681 142.766 14.7964 142.553 14.7058C139.687 13.0572 136.788 13.4131 134.748 15.6717C133.741 16.8367 133.174 18.3044 133.143 19.8289C133.112 21.3534 133.618 22.842 134.577 24.0453C136.558 26.4273 139.382 26.9502 142.304 25.3852C142.776 25.1346 142.936 24.9567 143.374 25.5486C143.987 26.3765 145.084 26.0061 145.931 25.8572C146.779 25.7084 146.441 24.8877 146.444 24.3467ZM139.888 23.3444C139.43 23.3673 138.971 23.297 138.542 23.138C138.113 22.9791 137.723 22.7349 137.395 22.421C137.067 22.1071 136.81 21.7301 136.639 21.3141C136.468 20.898 136.387 20.4519 136.402 20.0038C136.376 18.0175 137.766 16.6558 139.814 16.6521C141.862 16.6485 143.159 17.9122 143.196 19.8367C143.233 21.8484 141.85 23.3154 139.888 23.3444Z" fill="#414C62"/>
<path d="M132.358 20.0035C132.358 18.5801 132.388 17.153 132.358 15.7296C132.339 15.1268 132.689 14.2553 131.774 14.0629C130.927 13.8813 129.771 13.5037 129.236 14.3969C128.793 15.1232 128.57 14.7601 128.188 14.5495C125.24 13.028 122.419 13.5255 120.449 15.9184C118.48 18.3114 118.591 21.9607 120.676 24.321C122.534 26.4416 125.441 26.8628 128.188 25.385C128.537 25.1998 128.767 24.6333 129.213 25.4939C129.708 26.4489 130.901 25.9805 131.737 25.8933C132.692 25.7953 132.339 24.8729 132.354 24.2774C132.388 22.8431 132.358 21.4306 132.358 20.0035ZM125.668 23.3297C123.676 23.3297 122.278 21.9244 122.293 19.9128C122.308 17.9011 123.709 16.6047 125.783 16.6447C126.225 16.6365 126.663 16.7164 127.073 16.8796C127.482 17.0428 127.852 17.2858 128.162 17.5937C128.472 17.9017 128.714 18.2681 128.873 18.6706C129.033 19.073 129.107 19.5031 129.091 19.9345C129.095 21.9317 127.693 23.3224 125.668 23.3297Z" fill="#424D62"/>
<path d="M110.139 21.3001C111.306 21.2783 112.477 21.3001 113.648 21.3001C114.638 21.2467 115.631 21.2467 116.621 21.3001C118.071 21.4598 118.42 20.857 118.346 19.5716C118.29 18.1637 117.739 16.8175 116.787 15.7594C115.835 14.7013 114.538 13.9959 113.116 13.7617C109.912 13.2787 107.062 14.7857 105.965 17.5381C104.795 20.4794 105.772 23.6531 108.34 25.2435C110.909 26.834 115.004 26.5907 116.926 24.6444C117.246 24.3212 117.807 23.9182 117.156 23.5006C116.313 22.9704 115.618 22.0154 114.272 22.9414C113.569 23.3862 112.734 23.5917 111.899 23.5261C111.064 23.4604 110.274 23.1273 109.652 22.5782C109.366 22.2914 108.931 21.9863 109.165 21.5216C109.336 21.133 109.797 21.3037 110.139 21.3001ZM109.046 18.5767C108.805 18.0066 109.333 17.5744 109.73 17.2404C110.142 16.8761 110.64 16.6187 111.18 16.4918C111.719 16.3649 112.283 16.3726 112.819 16.5141C113.934 16.7865 114.993 17.4292 114.852 18.4677C114.752 19.2375 113.488 18.6892 112.756 18.8308C112.632 18.8443 112.508 18.8443 112.384 18.8308C112.261 18.8308 112.139 18.8308 112.012 18.8308C111.737 18.8308 111.459 18.8308 111.184 18.8308C110.908 18.8376 110.633 18.8279 110.358 18.8018C109.916 18.7873 109.281 19.125 109.046 18.5767Z" fill="#424E63"/>
</g>
</g>
<defs>
<clipPath id="clip0_6_74">
<rect width="180" height="40" fill="white"/>
</clipPath>
</defs>
</svg>
