<svg width="220" height="35" viewBox="0 0 220 35" fill="none" xmlns="http://www.w3.org/2000/svg">
<rect width="220" height="35" rx="17.5" fill="#0075FF"/>
<path d="M28.4716 14.5625C28.4186 14.0663 28.1951 13.6799 27.8011 13.4034C27.411 13.1269 26.9034 12.9886 26.2784 12.9886C25.839 12.9886 25.4621 13.0549 25.1477 13.1875C24.8333 13.3201 24.5928 13.5 24.4261 13.7273C24.2595 13.9545 24.1742 14.214 24.1705 14.5057C24.1705 14.7481 24.2254 14.9583 24.3352 15.1364C24.4489 15.3144 24.6023 15.4659 24.7955 15.5909C24.9886 15.7121 25.2027 15.8144 25.4375 15.8977C25.6723 15.9811 25.9091 16.0511 26.1477 16.108L27.2386 16.3807C27.678 16.483 28.1004 16.6212 28.5057 16.7955C28.9148 16.9697 29.2803 17.1894 29.6023 17.4545C29.928 17.7197 30.1856 18.0398 30.375 18.4148C30.5644 18.7898 30.6591 19.2292 30.6591 19.733C30.6591 20.4148 30.4848 21.0152 30.1364 21.5341C29.7879 22.0492 29.2841 22.4527 28.625 22.7443C27.9697 23.0322 27.1761 23.1761 26.2443 23.1761C25.339 23.1761 24.553 23.036 23.8864 22.7557C23.2235 22.4754 22.7045 22.0663 22.3295 21.5284C21.9583 20.9905 21.7576 20.3352 21.7273 19.5625H23.8011C23.8314 19.9678 23.9564 20.3049 24.1761 20.5739C24.3958 20.8428 24.6818 21.0436 25.0341 21.1761C25.3902 21.3087 25.7879 21.375 26.2273 21.375C26.6856 21.375 27.0871 21.3068 27.4318 21.1705C27.7803 21.0303 28.053 20.8371 28.25 20.5909C28.447 20.3409 28.5473 20.0492 28.5511 19.7159C28.5473 19.4129 28.4583 19.1629 28.2841 18.9659C28.1098 18.7652 27.8655 18.5985 27.5511 18.4659C27.2405 18.3295 26.8769 18.2083 26.4602 18.1023L25.1364 17.7614C24.178 17.5152 23.4205 17.142 22.8636 16.642C22.3106 16.1383 22.0341 15.4697 22.0341 14.6364C22.0341 13.9508 22.2197 13.3504 22.5909 12.8352C22.9659 12.3201 23.4754 11.9205 24.1193 11.6364C24.7633 11.3485 25.4924 11.2045 26.3068 11.2045C27.1326 11.2045 27.8561 11.3485 28.4773 11.6364C29.1023 11.9205 29.5928 12.3163 29.9489 12.8239C30.3049 13.3277 30.4886 13.9072 30.5 14.5625H28.4716ZM36.3111 23.1705C35.4361 23.1705 34.6804 22.9886 34.044 22.625C33.4115 22.2576 32.9247 21.7386 32.5838 21.0682C32.2429 20.3939 32.0724 19.6004 32.0724 18.6875C32.0724 17.7898 32.2429 17.0019 32.5838 16.3239C32.9285 15.642 33.4096 15.1117 34.027 14.733C34.6444 14.3504 35.3698 14.1591 36.2031 14.1591C36.741 14.1591 37.2486 14.2462 37.7259 14.4205C38.2069 14.5909 38.6312 14.8561 38.9986 15.2159C39.3698 15.5758 39.6615 16.0341 39.8736 16.5909C40.0857 17.1439 40.1918 17.803 40.1918 18.5682V19.1989H33.0384V17.8125H38.2202C38.2164 17.4186 38.1312 17.0682 37.9645 16.7614C37.7978 16.4508 37.5649 16.2064 37.2656 16.0284C36.9702 15.8504 36.6255 15.7614 36.2315 15.7614C35.8111 15.7614 35.4418 15.8636 35.1236 16.0682C34.8054 16.2689 34.5573 16.5341 34.3793 16.8636C34.205 17.1894 34.116 17.5473 34.1122 17.9375V19.1477C34.1122 19.6553 34.205 20.0909 34.3906 20.4545C34.5762 20.8144 34.8357 21.0909 35.169 21.2841C35.5024 21.4735 35.8925 21.5682 36.3395 21.5682C36.6387 21.5682 36.9096 21.5265 37.152 21.4432C37.3944 21.3561 37.6046 21.2292 37.7827 21.0625C37.9607 20.8958 38.0952 20.6894 38.1861 20.4432L40.1065 20.6591C39.9853 21.1667 39.7543 21.6098 39.4134 21.9886C39.0762 22.3636 38.6444 22.6553 38.1179 22.8636C37.5914 23.0682 36.9891 23.1705 36.3111 23.1705ZM45.7955 23.1705C44.9205 23.1705 44.1648 22.9886 43.5284 22.625C42.8958 22.2576 42.4091 21.7386 42.0682 21.0682C41.7273 20.3939 41.5568 19.6004 41.5568 18.6875C41.5568 17.7898 41.7273 17.0019 42.0682 16.3239C42.4129 15.642 42.8939 15.1117 43.5114 14.733C44.1288 14.3504 44.8542 14.1591 45.6875 14.1591C46.2254 14.1591 46.733 14.2462 47.2102 14.4205C47.6913 14.5909 48.1155 14.8561 48.483 15.2159C48.8542 15.5758 49.1458 16.0341 49.358 16.5909C49.5701 17.1439 49.6761 17.803 49.6761 18.5682V19.1989H42.5227V17.8125H47.7045C47.7008 17.4186 47.6155 17.0682 47.4489 16.7614C47.2822 16.4508 47.0492 16.2064 46.75 16.0284C46.4545 15.8504 46.1098 15.7614 45.7159 15.7614C45.2955 15.7614 44.9261 15.8636 44.608 16.0682C44.2898 16.2689 44.0417 16.5341 43.8636 16.8636C43.6894 17.1894 43.6004 17.5473 43.5966 17.9375V19.1477C43.5966 19.6553 43.6894 20.0909 43.875 20.4545C44.0606 20.8144 44.3201 21.0909 44.6534 21.2841C44.9867 21.4735 45.3769 21.5682 45.8239 21.5682C46.1231 21.5682 46.3939 21.5265 46.6364 21.4432C46.8788 21.3561 47.089 21.2292 47.267 21.0625C47.4451 20.8958 47.5795 20.6894 47.6705 20.4432L49.5909 20.6591C49.4697 21.1667 49.2386 21.6098 48.8977 21.9886C48.5606 22.3636 48.1288 22.6553 47.6023 22.8636C47.0758 23.0682 46.4735 23.1705 45.7955 23.1705ZM57.8963 23.1761C57.3433 23.1761 56.8452 23.0777 56.402 22.8807C55.9626 22.6799 55.6141 22.3845 55.3565 21.9943C55.1027 21.6042 54.9759 21.1231 54.9759 20.5511C54.9759 20.0587 55.0668 19.6515 55.2486 19.3295C55.4304 19.0076 55.6785 18.75 55.9929 18.5568C56.3073 18.3636 56.6615 18.2178 57.0554 18.1193C57.4531 18.017 57.8641 17.9432 58.2884 17.8977C58.7997 17.8447 59.2145 17.7973 59.5327 17.7557C59.8509 17.7102 60.0819 17.642 60.2259 17.5511C60.3736 17.4564 60.4474 17.3106 60.4474 17.1136V17.0795C60.4474 16.6515 60.3205 16.3201 60.0668 16.0852C59.813 15.8504 59.4474 15.733 58.9702 15.733C58.4664 15.733 58.0668 15.8428 57.7713 16.0625C57.4796 16.2822 57.2827 16.5417 57.1804 16.8409L55.2599 16.5682C55.4115 16.0379 55.6615 15.5947 56.0099 15.2386C56.3584 14.8788 56.7846 14.6098 57.2884 14.4318C57.7921 14.25 58.349 14.1591 58.9588 14.1591C59.3793 14.1591 59.7978 14.2083 60.2145 14.3068C60.6312 14.4053 61.0118 14.5682 61.3565 14.7955C61.7012 15.0189 61.9777 15.3239 62.1861 15.7102C62.3982 16.0966 62.5043 16.5795 62.5043 17.1591V23H60.527V21.8011H60.4588C60.3338 22.0436 60.1577 22.2708 59.9304 22.483C59.7069 22.6913 59.4247 22.8598 59.0838 22.9886C58.7467 23.1136 58.3509 23.1761 57.8963 23.1761ZM58.4304 21.6648C58.8433 21.6648 59.2012 21.5833 59.5043 21.4205C59.8073 21.2538 60.0402 21.0341 60.2031 20.7614C60.3698 20.4886 60.4531 20.1913 60.4531 19.8693V18.8409C60.3887 18.8939 60.2789 18.9432 60.1236 18.9886C59.9721 19.0341 59.8016 19.0739 59.6122 19.108C59.4228 19.142 59.2353 19.1723 59.0497 19.1989C58.8641 19.2254 58.7031 19.2481 58.5668 19.267C58.2599 19.3087 57.9853 19.3769 57.7429 19.4716C57.5005 19.5663 57.3092 19.6989 57.169 19.8693C57.0289 20.036 56.9588 20.2519 56.9588 20.517C56.9588 20.8958 57.0971 21.1818 57.3736 21.375C57.6501 21.5682 58.0024 21.6648 58.4304 21.6648ZM66.6293 11.3636V23H64.5724V11.3636H66.6293ZM70.8011 11.3636V23H68.7443V11.3636H70.8011ZM79.3963 23.1761C78.8433 23.1761 78.3452 23.0777 77.902 22.8807C77.4626 22.6799 77.1141 22.3845 76.8565 21.9943C76.6027 21.6042 76.4759 21.1231 76.4759 20.5511C76.4759 20.0587 76.5668 19.6515 76.7486 19.3295C76.9304 19.0076 77.1785 18.75 77.4929 18.5568C77.8073 18.3636 78.1615 18.2178 78.5554 18.1193C78.9531 18.017 79.3641 17.9432 79.7884 17.8977C80.2997 17.8447 80.7145 17.7973 81.0327 17.7557C81.3509 17.7102 81.5819 17.642 81.7259 17.5511C81.8736 17.4564 81.9474 17.3106 81.9474 17.1136V17.0795C81.9474 16.6515 81.8205 16.3201 81.5668 16.0852C81.313 15.8504 80.9474 15.733 80.4702 15.733C79.9664 15.733 79.5668 15.8428 79.2713 16.0625C78.9796 16.2822 78.7827 16.5417 78.6804 16.8409L76.7599 16.5682C76.9115 16.0379 77.1615 15.5947 77.5099 15.2386C77.8584 14.8788 78.2846 14.6098 78.7884 14.4318C79.2921 14.25 79.849 14.1591 80.4588 14.1591C80.8793 14.1591 81.2978 14.2083 81.7145 14.3068C82.1312 14.4053 82.5118 14.5682 82.8565 14.7955C83.2012 15.0189 83.4777 15.3239 83.6861 15.7102C83.8982 16.0966 84.0043 16.5795 84.0043 17.1591V23H82.027V21.8011H81.9588C81.8338 22.0436 81.6577 22.2708 81.4304 22.483C81.2069 22.6913 80.9247 22.8598 80.5838 22.9886C80.2467 23.1136 79.8509 23.1761 79.3963 23.1761ZM79.9304 21.6648C80.3433 21.6648 80.7012 21.5833 81.0043 21.4205C81.3073 21.2538 81.5402 21.0341 81.7031 20.7614C81.8698 20.4886 81.9531 20.1913 81.9531 19.8693V18.8409C81.8887 18.8939 81.7789 18.9432 81.6236 18.9886C81.4721 19.0341 81.3016 19.0739 81.1122 19.108C80.9228 19.142 80.7353 19.1723 80.5497 19.1989C80.3641 19.2254 80.2031 19.2481 80.0668 19.267C79.7599 19.3087 79.4853 19.3769 79.2429 19.4716C79.0005 19.5663 78.8092 19.6989 78.669 19.8693C78.5289 20.036 78.4588 20.2519 78.4588 20.517C78.4588 20.8958 78.5971 21.1818 78.8736 21.375C79.1501 21.5682 79.5024 21.6648 79.9304 21.6648ZM88.1293 17.8864V23H86.0724V14.2727H88.0384V15.7557H88.1406C88.3414 15.267 88.6615 14.8788 89.1009 14.5909C89.544 14.303 90.0914 14.1591 90.7429 14.1591C91.3452 14.1591 91.8698 14.2879 92.3168 14.5455C92.7675 14.803 93.116 15.1761 93.3622 15.6648C93.6122 16.1534 93.7353 16.7462 93.7315 17.4432V23H91.6747V17.7614C91.6747 17.178 91.5232 16.7216 91.2202 16.392C90.9209 16.0625 90.5062 15.8977 89.9759 15.8977C89.616 15.8977 89.2959 15.9773 89.0156 16.1364C88.7391 16.2917 88.5213 16.517 88.3622 16.8125C88.2069 17.108 88.1293 17.4659 88.1293 17.8864ZM99.0611 23.1534C98.3755 23.1534 97.7618 22.9773 97.2202 22.625C96.6785 22.2727 96.2505 21.7614 95.9361 21.0909C95.6217 20.4205 95.4645 19.6061 95.4645 18.6477C95.4645 17.678 95.6236 16.8598 95.9418 16.1932C96.2637 15.5227 96.6974 15.017 97.2429 14.6761C97.7884 14.3314 98.3963 14.1591 99.0668 14.1591C99.5781 14.1591 99.9986 14.2462 100.328 14.4205C100.658 14.5909 100.919 14.7973 101.112 15.0398C101.305 15.2784 101.455 15.5038 101.561 15.7159H101.646V11.3636H103.709V23H101.686V21.625H101.561C101.455 21.8371 101.302 22.0625 101.101 22.3011C100.9 22.536 100.635 22.7367 100.305 22.9034C99.9759 23.0701 99.5611 23.1534 99.0611 23.1534ZM99.6349 21.4659C100.071 21.4659 100.442 21.3485 100.749 21.1136C101.055 20.875 101.288 20.5436 101.447 20.1193C101.607 19.6951 101.686 19.2008 101.686 18.6364C101.686 18.072 101.607 17.5814 101.447 17.1648C101.292 16.7481 101.061 16.4242 100.754 16.1932C100.451 15.9621 100.078 15.8466 99.6349 15.8466C99.1766 15.8466 98.794 15.9659 98.4872 16.2045C98.1804 16.4432 97.9493 16.7727 97.794 17.1932C97.6387 17.6136 97.5611 18.0947 97.5611 18.6364C97.5611 19.1818 97.6387 19.6686 97.794 20.0966C97.9531 20.5208 98.1861 20.8561 98.4929 21.1023C98.8035 21.3447 99.1842 21.4659 99.6349 21.4659ZM113.676 23.1705C112.805 23.1705 112.057 22.9792 111.432 22.5966C110.811 22.214 110.331 21.6856 109.994 21.0114C109.661 20.3333 109.494 19.553 109.494 18.6705C109.494 17.7841 109.665 17.0019 110.006 16.3239C110.347 15.642 110.828 15.1117 111.449 14.733C112.074 14.3504 112.813 14.1591 113.665 14.1591C114.373 14.1591 115 14.2898 115.545 14.5511C116.095 14.8087 116.532 15.1742 116.858 15.6477C117.184 16.1174 117.369 16.6667 117.415 17.2955H115.449C115.369 16.875 115.18 16.5246 114.881 16.2443C114.585 15.9602 114.189 15.8182 113.693 15.8182C113.273 15.8182 112.903 15.9318 112.585 16.1591C112.267 16.3826 112.019 16.7045 111.841 17.125C111.667 17.5455 111.58 18.0492 111.58 18.6364C111.58 19.2311 111.667 19.7424 111.841 20.1705C112.015 20.5947 112.259 20.9223 112.574 21.1534C112.892 21.3807 113.265 21.4943 113.693 21.4943C113.996 21.4943 114.267 21.4375 114.506 21.3239C114.748 21.2064 114.951 21.0379 115.114 20.8182C115.277 20.5985 115.388 20.3314 115.449 20.017H117.415C117.366 20.6345 117.184 21.1818 116.869 21.6591C116.555 22.1326 116.127 22.5038 115.585 22.7727C115.044 23.0379 114.407 23.1705 113.676 23.1705ZM122.911 23.1705C122.058 23.1705 121.32 22.983 120.695 22.608C120.07 22.233 119.585 21.7083 119.24 21.0341C118.899 20.3598 118.729 19.572 118.729 18.6705C118.729 17.7689 118.899 16.9792 119.24 16.3011C119.585 15.6231 120.07 15.0966 120.695 14.7216C121.32 14.3466 122.058 14.1591 122.911 14.1591C123.763 14.1591 124.501 14.3466 125.126 14.7216C125.751 15.0966 126.234 15.6231 126.575 16.3011C126.92 16.9792 127.092 17.7689 127.092 18.6705C127.092 19.572 126.92 20.3598 126.575 21.0341C126.234 21.7083 125.751 22.233 125.126 22.608C124.501 22.983 123.763 23.1705 122.911 23.1705ZM122.922 21.5227C123.384 21.5227 123.77 21.3958 124.081 21.142C124.392 20.8845 124.623 20.5398 124.774 20.108C124.929 19.6761 125.007 19.1951 125.007 18.6648C125.007 18.1307 124.929 17.6477 124.774 17.2159C124.623 16.7803 124.392 16.4337 124.081 16.1761C123.77 15.9186 123.384 15.7898 122.922 15.7898C122.448 15.7898 122.054 15.9186 121.74 16.1761C121.429 16.4337 121.196 16.7803 121.041 17.2159C120.89 17.6477 120.814 18.1307 120.814 18.6648C120.814 19.1951 120.89 19.6761 121.041 20.108C121.196 20.5398 121.429 20.8845 121.74 21.142C122.054 21.3958 122.448 21.5227 122.922 21.5227ZM128.838 23V14.2727H130.804V15.7557H130.906C131.088 15.2557 131.389 14.8655 131.81 14.5852C132.23 14.3011 132.732 14.1591 133.315 14.1591C133.906 14.1591 134.404 14.303 134.81 14.5909C135.219 14.875 135.507 15.2633 135.673 15.7557H135.764C135.957 15.2708 136.283 14.8845 136.741 14.5966C137.204 14.3049 137.751 14.1591 138.384 14.1591C139.187 14.1591 139.842 14.4129 140.349 14.9205C140.857 15.428 141.111 16.1686 141.111 17.142V23H139.048V17.4602C139.048 16.9186 138.904 16.5227 138.616 16.2727C138.329 16.0189 137.976 15.892 137.56 15.892C137.063 15.892 136.675 16.0473 136.395 16.358C136.118 16.6648 135.98 17.0644 135.98 17.5568V23H133.963V17.375C133.963 16.9242 133.827 16.5644 133.554 16.2955C133.285 16.0265 132.933 15.892 132.497 15.892C132.202 15.892 131.933 15.9678 131.69 16.1193C131.448 16.267 131.255 16.4773 131.111 16.75C130.967 17.0189 130.895 17.3333 130.895 17.6932V23H128.838ZM143.197 26.2727V14.2727H145.22V15.7159H145.339C145.446 15.5038 145.595 15.2784 145.788 15.0398C145.982 14.7973 146.243 14.5909 146.572 14.4205C146.902 14.2462 147.322 14.1591 147.834 14.1591C148.508 14.1591 149.116 14.3314 149.658 14.6761C150.203 15.017 150.635 15.5227 150.953 16.1932C151.275 16.8598 151.436 17.678 151.436 18.6477C151.436 19.6061 151.279 20.4205 150.964 21.0909C150.65 21.7614 150.222 22.2727 149.68 22.625C149.139 22.9773 148.525 23.1534 147.839 23.1534C147.339 23.1534 146.925 23.0701 146.595 22.9034C146.266 22.7367 146 22.536 145.8 22.3011C145.603 22.0625 145.449 21.8371 145.339 21.625H145.254V26.2727H143.197ZM145.214 18.6364C145.214 19.2008 145.294 19.6951 145.453 20.1193C145.616 20.5436 145.849 20.875 146.152 21.1136C146.459 21.3485 146.83 21.4659 147.266 21.4659C147.72 21.4659 148.101 21.3447 148.408 21.1023C148.714 20.8561 148.946 20.5208 149.101 20.0966C149.26 19.6686 149.339 19.1818 149.339 18.6364C149.339 18.0947 149.262 17.6136 149.107 17.1932C148.951 16.7727 148.72 16.4432 148.413 16.2045C148.107 15.9659 147.724 15.8466 147.266 15.8466C146.826 15.8466 146.453 15.9621 146.146 16.1932C145.839 16.4242 145.607 16.7481 145.447 17.1648C145.292 17.5814 145.214 18.072 145.214 18.6364ZM155.709 23.1761C155.156 23.1761 154.658 23.0777 154.214 22.8807C153.775 22.6799 153.427 22.3845 153.169 21.9943C152.915 21.6042 152.788 21.1231 152.788 20.5511C152.788 20.0587 152.879 19.6515 153.061 19.3295C153.243 19.0076 153.491 18.75 153.805 18.5568C154.12 18.3636 154.474 18.2178 154.868 18.1193C155.266 18.017 155.677 17.9432 156.101 17.8977C156.612 17.8447 157.027 17.7973 157.345 17.7557C157.663 17.7102 157.894 17.642 158.038 17.5511C158.186 17.4564 158.26 17.3106 158.26 17.1136V17.0795C158.26 16.6515 158.133 16.3201 157.879 16.0852C157.625 15.8504 157.26 15.733 156.783 15.733C156.279 15.733 155.879 15.8428 155.584 16.0625C155.292 16.2822 155.095 16.5417 154.993 16.8409L153.072 16.5682C153.224 16.0379 153.474 15.5947 153.822 15.2386C154.171 14.8788 154.597 14.6098 155.101 14.4318C155.605 14.25 156.161 14.1591 156.771 14.1591C157.192 14.1591 157.61 14.2083 158.027 14.3068C158.444 14.4053 158.824 14.5682 159.169 14.7955C159.514 15.0189 159.79 15.3239 159.999 15.7102C160.211 16.0966 160.317 16.5795 160.317 17.1591V23H158.339V21.8011H158.271C158.146 22.0436 157.97 22.2708 157.743 22.483C157.519 22.6913 157.237 22.8598 156.896 22.9886C156.559 23.1136 156.163 23.1761 155.709 23.1761ZM156.243 21.6648C156.656 21.6648 157.014 21.5833 157.317 21.4205C157.62 21.2538 157.853 21.0341 158.016 20.7614C158.182 20.4886 158.266 20.1913 158.266 19.8693V18.8409C158.201 18.8939 158.091 18.9432 157.936 18.9886C157.785 19.0341 157.614 19.0739 157.425 19.108C157.235 19.142 157.048 19.1723 156.862 19.1989C156.677 19.2254 156.516 19.2481 156.379 19.267C156.072 19.3087 155.798 19.3769 155.555 19.4716C155.313 19.5663 155.122 19.6989 154.982 19.8693C154.841 20.036 154.771 20.2519 154.771 20.517C154.771 20.8958 154.91 21.1818 155.186 21.375C155.463 21.5682 155.815 21.6648 156.243 21.6648ZM162.385 23V14.2727H164.379V15.7273H164.47C164.629 15.2235 164.902 14.8352 165.288 14.5625C165.679 14.286 166.124 14.1477 166.624 14.1477C166.737 14.1477 166.864 14.1534 167.004 14.1648C167.148 14.1723 167.268 14.1856 167.362 14.2045V16.0966C167.275 16.0663 167.137 16.0398 166.947 16.017C166.762 15.9905 166.582 15.9773 166.408 15.9773C166.033 15.9773 165.696 16.0587 165.396 16.2216C165.101 16.3807 164.868 16.6023 164.697 16.8864C164.527 17.1705 164.442 17.4981 164.442 17.8693V23H162.385ZM172.233 23.1705C171.358 23.1705 170.602 22.9886 169.966 22.625C169.333 22.2576 168.847 21.7386 168.506 21.0682C168.165 20.3939 167.994 19.6004 167.994 18.6875C167.994 17.7898 168.165 17.0019 168.506 16.3239C168.85 15.642 169.331 15.1117 169.949 14.733C170.566 14.3504 171.292 14.1591 172.125 14.1591C172.663 14.1591 173.17 14.2462 173.648 14.4205C174.129 14.5909 174.553 14.8561 174.92 15.2159C175.292 15.5758 175.583 16.0341 175.795 16.5909C176.008 17.1439 176.114 17.803 176.114 18.5682V19.1989H168.96V17.8125H174.142C174.138 17.4186 174.053 17.0682 173.886 16.7614C173.72 16.4508 173.487 16.2064 173.188 16.0284C172.892 15.8504 172.547 15.7614 172.153 15.7614C171.733 15.7614 171.364 15.8636 171.045 16.0682C170.727 16.2689 170.479 16.5341 170.301 16.8636C170.127 17.1894 170.038 17.5473 170.034 17.9375V19.1477C170.034 19.6553 170.127 20.0909 170.312 20.4545C170.498 20.8144 170.758 21.0909 171.091 21.2841C171.424 21.4735 171.814 21.5682 172.261 21.5682C172.561 21.5682 172.831 21.5265 173.074 21.4432C173.316 21.3561 173.527 21.2292 173.705 21.0625C173.883 20.8958 174.017 20.6894 174.108 20.4432L176.028 20.6591C175.907 21.1667 175.676 21.6098 175.335 21.9886C174.998 22.3636 174.566 22.6553 174.04 22.8636C173.513 23.0682 172.911 23.1705 172.233 23.1705Z" fill="white"/>
<path d="M199 17.5L194 14.6132V20.3868L199 17.5ZM182 17.5V18H194.5V17.5V17H182V17.5Z" fill="white"/>
</svg>
