<svg width="20" height="15" viewBox="0 0 20 15" fill="none" xmlns="http://www.w3.org/2000/svg">
<g clip-path="url(#clip0_3_63)">
<path d="M4.54547 14.9262V7.23887L2.14898 5.05781L0 3.84747V13.5696C0 14.3202 0.611328 14.9262 1.36367 14.9262H4.54547Z" fill="#4285F4"/>
<path d="M15.4545 14.9262H18.6363C19.3909 14.9262 20 14.3179 20 13.5696V3.84753L17.5659 5.23383L15.4545 7.23886V14.9262Z" fill="#34A853"/>
<path d="M4.54545 7.23886L4.21936 4.2352L4.54545 1.36041L9.99999 5.43015L15.4545 1.36041L15.8193 4.08L15.4545 7.23886L9.99999 11.3086L4.54545 7.23886Z" fill="#EA4335"/>
<path d="M15.4545 1.36039V7.23884L20 3.84744V2.03865C20 0.361064 18.075 -0.595283 16.7273 0.410805L15.4545 1.36039Z" fill="#FBBC04"/>
<path d="M0 3.84747L2.09055 5.40732L4.54547 7.23887V1.36043L3.27266 0.410841C1.92266 -0.595325 0 0.3611 0 2.03861V3.84747Z" fill="#C5221F"/>
</g>
<defs>
<clipPath id="clip0_3_63">
<rect width="20" height="15" fill="white"/>
</clipPath>
</defs>
</svg>
