<svg width="53" height="34" viewBox="0 0 53 34" fill="none" xmlns="http://www.w3.org/2000/svg">
<path d="M42.7366 23.6678C42.412 23.6678 42.0916 23.5312 41.8609 23.2706C41.4381 22.7879 41.4893 22.0532 41.972 21.6303C43.8002 20.0328 45.4106 17.0854 44.6246 14.3901C44.1804 12.8609 42.9331 11.4342 41.2031 10.4817C34.2192 6.62447 25.1379 11.2719 21.0373 18.0337C20.7041 18.5847 19.9865 18.7599 19.4397 18.4267C18.8887 18.0935 18.7135 17.3759 19.0467 16.8291C23.707 9.14467 34.1722 3.94622 42.3265 8.44414C44.6203 9.71278 46.2307 11.5923 46.8543 13.7366C47.9308 17.4314 45.9445 21.2416 43.5012 23.3817C43.2791 23.5739 43.0057 23.6678 42.7366 23.6678Z" fill="#0075FF"/>
<path d="M48.2426 8.20493C50.3752 8.20493 52.1041 6.47609 52.1041 4.34347C52.1041 2.21084 50.3752 0.48201 48.2426 0.48201C46.11 0.48201 44.3811 2.21084 44.3811 4.34347C44.3811 6.47609 46.11 8.20493 48.2426 8.20493Z" fill="#0075FF"/>
<path d="M16.3727 27.2218C14.1131 27.2218 11.8706 26.7049 9.78178 25.5516C7.48798 24.2872 5.87761 22.4035 5.25397 20.2592C4.17754 16.5643 6.1638 12.7541 8.60712 10.6141C9.0898 10.1912 9.8245 10.2424 10.2474 10.7251C10.6703 11.2078 10.619 11.9425 10.1363 12.3654C8.30811 13.9629 6.69774 16.9103 7.4837 19.6056C7.92794 21.1348 9.17523 22.5615 10.9052 23.5141C17.8891 27.3713 26.9704 22.7238 31.0711 15.962C31.4042 15.411 32.1176 15.2359 32.6686 15.569C33.2196 15.9022 33.3948 16.6198 33.0616 17.1666C29.5974 22.8776 22.921 27.2218 16.3727 27.2218Z" fill="#0075FF"/>
<path d="M3.86146 33.518C5.99408 33.518 7.72292 31.7892 7.72292 29.6565C7.72292 27.5239 5.99408 25.7951 3.86146 25.7951C1.72883 25.7951 0 27.5239 0 29.6565C0 31.7892 1.72883 33.518 3.86146 33.518Z" fill="#0075FF"/>
</svg>
