<svg width="14" height="14" viewBox="0 0 14 14" fill="none" xmlns="http://www.w3.org/2000/svg">
<path d="M13.7819 0.0859375C13.9537 0.210938 14.024 0.377604 13.9928 0.585938L11.9928 12.5859C11.9668 12.737 11.8835 12.8542 11.7428 12.9375C11.6699 12.9792 11.5892 13 11.5006 13C11.4434 13 11.3809 12.987 11.3132 12.9609L7.77416 11.5156L5.88357 13.8203C5.78982 13.9401 5.66222 14 5.50076 14C5.43306 14 5.37577 13.9896 5.32889 13.9688C5.22993 13.9323 5.15051 13.8711 5.09061 13.7852C5.03072 13.6992 5.00077 13.6042 5.00077 13.5V10.7734L11.7506 2.5L3.39924 9.72656L0.313362 8.46094C0.120657 8.38802 0.0164927 8.24479 0.000868039 8.03125C-0.00954843 7.82292 0.0737833 7.66927 0.250863 7.57031L13.2506 0.0703125C13.3287 0.0234375 13.4121 0 13.5006 0C13.6048 0 13.6985 0.0286458 13.7819 0.0859375Z" fill="#0075FF"/>
</svg>
