<svg width="71" height="72" viewBox="0 0 71 72" fill="none" xmlns="http://www.w3.org/2000/svg">
<path d="M42.6973 1.25C43.9855 1.25021 45.2042 2.19843 45.2422 3.58008H45.2432L45.8486 10.4121C48.3391 11.38 50.5881 12.7196 52.6211 14.2949L58.8594 11.3779C59.9625 10.8221 61.3087 11.1516 62.0508 12.1377L62.1924 12.3457L62.1973 12.3545L62.2031 12.3633L69.3994 24.8896H69.3984C70.1349 26.0417 69.6455 27.4908 68.6016 28.2041L62.9756 32.125C63.3563 34.7506 63.3288 37.3421 62.9736 39.8721L68.6025 43.7949H68.6016C69.6456 44.508 70.1344 45.9573 69.3984 47.1094L69.3994 47.1104L62.2031 59.6367L62.1904 59.6592L62.1758 59.6807C61.4694 60.7345 60.0307 61.137 58.8633 60.5508V60.5527L52.6211 57.666C50.5805 59.2444 48.3316 60.5569 45.8486 61.5762L45.2432 68.2783C45.2074 69.7182 44.0382 70.7498 42.6973 70.75H28.3027C27.6281 70.7499 26.9802 70.4835 26.502 70.0078C26.0395 69.5479 25.7743 68.9285 25.7568 68.2783L25.1504 61.5762C22.6675 60.5569 20.4185 59.2444 18.3779 57.666L12.1367 60.5527L12.1357 60.5508C10.9685 61.1364 9.53045 60.7343 8.82422 59.6807L8.80957 59.6592L8.79688 59.6367L1.60059 47.1104L1.60156 47.1094C0.865746 45.9575 1.35387 44.5082 2.39746 43.7949L8.02539 39.8721C7.67025 37.3422 7.64273 34.7505 8.02344 32.125L2.39746 28.2051V28.2041C1.35397 27.4906 0.865212 26.0415 1.60156 24.8896H1.60059L8.79688 12.3633L8.80273 12.3545L8.80762 12.3457C9.50852 11.2004 10.9625 10.7853 12.1396 11.3779H12.1406L18.3779 14.2949C20.4109 12.7196 22.66 11.3801 25.1504 10.4121L25.7568 3.58008C25.7948 2.19841 27.0145 1.25021 28.3027 1.25H42.6973ZM30.3096 13.5566L30.2607 14.0889L29.7422 14.2168C25.6796 15.2183 22.1997 17.3606 19.4434 20.1367L19.0771 20.5059L18.6035 20.292L11.9141 17.2773L7.38379 25.0439L13.3682 29.2295L13.8018 29.5332L13.6611 30.043C12.5464 34.0968 12.6165 38.1461 13.6602 41.8828L13.8018 42.3906L13.3721 42.6953L7.38184 46.9512L11.9131 54.7197L18.6006 51.6729L19.0723 51.458L19.4404 51.8242C22.0203 54.3901 25.2425 56.3779 28.9961 57.502L29.7539 57.7148L30.2627 57.8486L30.3096 58.373L30.9678 65.6709H40.0322L40.6904 58.373L40.7373 57.8486L41.2461 57.7148C45.3248 56.64 48.8078 54.5611 51.5596 51.8242L51.9277 51.458L52.3994 51.6729L59.0869 54.7207L63.6172 46.9512L57.6279 42.6953L57.1982 42.3906L57.3398 41.8828C58.3835 38.1461 58.4536 34.0968 57.3389 30.043L57.1982 29.5332L57.6318 29.2295L63.6152 25.0439L59.085 17.2773L52.3965 20.292L51.9229 20.5059L51.5566 20.1367C48.8003 17.3606 45.3204 15.2183 41.2578 14.2168L40.7393 14.0889L40.6904 13.5566L40.0332 6.3291H30.9668L30.3096 13.5566ZM35.5 22.7236C39.0378 22.7236 42.4317 24.1211 44.9346 26.6104C47.4376 29.0998 48.8447 32.4776 48.8447 36C48.8447 39.5224 47.4376 42.9002 44.9346 45.3896C42.4317 47.8789 39.0378 49.2764 35.5 49.2764C31.9622 49.2764 28.5683 47.8789 26.0654 45.3896C23.5624 42.9002 22.1553 39.5224 22.1553 36C22.1553 32.4776 23.5624 29.0998 26.0654 26.6104C28.5683 24.1211 31.9622 22.7236 35.5 22.7236ZM35.5 27.8027C33.3117 27.8027 31.2141 28.6674 29.668 30.2051C28.122 31.7427 27.2539 33.8272 27.2539 36C27.2539 38.1728 28.122 40.2573 29.668 41.7949C31.2141 43.3326 33.3117 44.1973 35.5 44.1973C37.6882 44.1973 39.7859 43.3326 41.332 41.7949C42.878 40.2573 43.7461 38.1728 43.7461 36C43.7461 33.8272 42.878 31.7427 41.332 30.2051C39.7859 28.6674 37.6883 27.8027 35.5 27.8027Z" fill="#0075FF" stroke="#0075FF" stroke-width="1.5"/>
</svg>
