<svg width="105" height="78" viewBox="0 0 105 78" fill="none" xmlns="http://www.w3.org/2000/svg">
<mask id="path-1-outside-1_114_112" maskUnits="userSpaceOnUse" x="0.5" y="0" width="104" height="78" fill="black">
<rect fill="white" x="0.5" width="104" height="78"/>
<path d="M90.9546 26.25V15.2C90.9546 9.56875 87.1945 5 82.5629 5H13.8916C9.25573 5 5.5 9.56875 5.5 15.2V62.8C5.5 68.4313 9.26 73 13.8916 73H82.5629C87.1988 73 90.9546 68.4313 90.9546 62.8V51.75M86.6818 39H86.7245H86.6818ZM72.1545 26.25H92.6636C94.4768 26.25 96.2156 26.9664 97.4977 28.2417C98.7797 29.5169 99.5 31.2465 99.5 33.05V44.95C99.5 46.7535 98.7797 48.4831 97.4977 49.7583C96.2156 51.0336 94.4768 51.75 92.6636 51.75H72.1545C70.3414 51.75 68.6026 51.0336 67.3205 49.7583C66.0384 48.4831 65.3182 46.7535 65.3182 44.95V33.05C65.3182 31.2465 66.0384 29.5169 67.3205 28.2417C68.6026 26.9664 70.3414 26.25 72.1545 26.25Z"/>
</mask>
<path d="M85.9546 26.25C85.9546 29.0114 88.1931 31.25 90.9546 31.25C93.716 31.25 95.9546 29.0114 95.9546 26.25H90.9546H85.9546ZM95.9546 51.75C95.9546 48.9886 93.716 46.75 90.9546 46.75C88.1931 46.75 85.9546 48.9886 85.9546 51.75H90.9546H95.9546ZM86.6818 34C83.9204 34 81.6818 36.2386 81.6818 39C81.6818 41.7614 83.9204 44 86.6818 44V39V34ZM86.7245 44C89.486 44 91.7245 41.7614 91.7245 39C91.7245 36.2386 89.486 34 86.7245 34V39V44ZM72.1545 26.25V21.25V26.25ZM92.6636 26.25V21.25V26.25ZM72.1545 51.75V46.75V51.75ZM90.9546 26.25H95.9546V15.2H90.9546H85.9546V26.25H90.9546ZM90.9546 15.2H95.9546C95.9546 7.76383 90.824 0 82.5629 0V5V10C83.5651 10 85.9546 11.3737 85.9546 15.2H90.9546ZM82.5629 5V0H13.8916V5V10H82.5629V5ZM13.8916 5V0C5.62481 0 0.5 7.76561 0.5 15.2H5.5H10.5C10.5 11.3719 12.8866 10 13.8916 10V5ZM5.5 15.2H0.5V62.8H5.5H10.5V15.2H5.5ZM5.5 62.8H0.5C0.5 70.2362 5.63055 78 13.8916 78V73V68C12.8895 68 10.5 66.6263 10.5 62.8H5.5ZM13.8916 73V78H82.5629V73V68H13.8916V73ZM82.5629 73V78C90.8297 78 95.9546 70.2344 95.9546 62.8H90.9546H85.9546C85.9546 66.6281 83.5679 68 82.5629 68V73ZM90.9546 62.8H95.9546V51.75H90.9546H85.9546V62.8H90.9546ZM86.6818 39V44H86.7245V39V34H86.6818V39ZM72.1545 26.25V31.25H92.6636V26.25V21.25H72.1545V26.25ZM92.6636 26.25V31.25C93.1593 31.25 93.6292 31.4461 93.9716 31.7866L97.4977 28.2417L101.024 24.6967C98.802 22.4868 95.7943 21.25 92.6636 21.25V26.25ZM97.4977 28.2417L93.9716 31.7866C94.313 32.1263 94.5 32.5812 94.5 33.05H99.5H104.5C104.5 29.9118 103.246 26.9076 101.024 24.6967L97.4977 28.2417ZM99.5 33.05H94.5V44.95H99.5H104.5V33.05H99.5ZM99.5 44.95H94.5C94.5 45.4188 94.313 45.8737 93.9716 46.2134L97.4977 49.7583L101.024 53.3033C103.246 51.0924 104.5 48.0882 104.5 44.95H99.5ZM97.4977 49.7583L93.9716 46.2134C93.6292 46.5539 93.1593 46.75 92.6636 46.75V51.75V56.75C95.7943 56.75 98.802 55.5132 101.024 53.3033L97.4977 49.7583ZM92.6636 51.75V46.75H72.1545V51.75V56.75H92.6636V51.75ZM72.1545 51.75V46.75C71.6589 46.75 71.189 46.5539 70.8466 46.2134L67.3205 49.7583L63.7944 53.3033C66.0162 55.5132 69.0239 56.75 72.1545 56.75V51.75ZM67.3205 49.7583L70.8466 46.2134C70.5051 45.8737 70.3182 45.4188 70.3182 44.95H65.3182H60.3182C60.3182 48.0882 61.5717 51.0924 63.7944 53.3033L67.3205 49.7583ZM65.3182 44.95H70.3182V33.05H65.3182H60.3182V44.95H65.3182ZM65.3182 33.05H70.3182C70.3182 32.5812 70.5051 32.1263 70.8466 31.7866L67.3205 28.2417L63.7944 24.6967C61.5717 26.9076 60.3182 29.9118 60.3182 33.05H65.3182ZM67.3205 28.2417L70.8466 31.7866C71.189 31.4461 71.6589 31.25 72.1545 31.25V26.25V21.25C69.0239 21.25 66.0162 22.4868 63.7944 24.6967L67.3205 28.2417Z" fill="#0075FF" mask="url(#path-1-outside-1_114_112)"/>
</svg>
