<svg width="16" height="16" viewBox="0 0 16 16" fill="none" xmlns="http://www.w3.org/2000/svg">
<path d="M13.6 2.32504C12.8656 1.58537 11.9916 0.998959 11.0287 0.599836C10.0659 0.200714 9.03331 -0.00316445 7.991 3.71292e-05C3.622 3.71292e-05 0.066 3.55604 0.066 7.92804C0.066 9.32504 0.432 10.691 1.125 11.891L0 16L4.203 14.897C5.3645 15.5311 6.66668 15.8633 7.99 15.863H7.993C12.362 15.863 15.921 12.307 15.921 7.93504C15.9229 6.89318 15.7188 5.86123 15.3203 4.8986C14.9218 3.93597 14.3368 3.06167 13.599 2.32604L13.6 2.32504ZM7.993 14.525C6.81227 14.5244 5.65332 14.207 4.637 13.606L4.396 13.462L1.902 14.115L2.568 11.684L2.412 11.434C1.74991 10.3847 1.39996 9.16875 1.403 7.92804C1.40538 6.18021 2.10097 4.50469 3.33715 3.26907C4.57334 2.03345 6.24917 1.33862 7.997 1.33704C9.756 1.33704 11.413 2.02504 12.656 3.26804C13.2696 3.87909 13.7559 4.60575 14.0868 5.40597C14.4178 6.20619 14.5868 7.06409 14.584 7.93004C14.581 11.567 11.625 14.525 7.993 14.525ZM11.606 9.58804C11.409 9.48804 10.434 9.01004 10.253 8.94404C10.072 8.87804 9.94 8.84404 9.806 9.04404C9.675 9.24104 9.294 9.68804 9.178 9.82204C9.062 9.95304 8.947 9.97204 8.75 9.87204C8.553 9.77204 7.912 9.56304 7.156 8.88804C6.568 8.36304 6.169 7.71304 6.053 7.51604C5.937 7.31904 6.04 7.21004 6.141 7.11304C6.232 7.02504 6.338 6.88204 6.438 6.76604C6.538 6.65004 6.569 6.56904 6.635 6.43504C6.701 6.30404 6.669 6.18804 6.619 6.08804C6.569 5.98804 6.172 5.01304 6.01 4.61604C5.851 4.22804 5.685 4.28204 5.563 4.27504C5.447 4.26904 5.316 4.26904 5.185 4.26904C5.054 4.26904 4.838 4.31904 4.657 4.51604C4.476 4.71304 3.963 5.19404 3.963 6.16904C3.963 7.14404 4.672 8.08504 4.772 8.21904C4.872 8.35004 6.169 10.353 8.156 11.21C8.628 11.413 8.997 11.535 9.284 11.629C9.759 11.779 10.19 11.757 10.531 11.707C10.912 11.651 11.703 11.229 11.869 10.766C12.035 10.303 12.035 9.90704 11.985 9.82504C11.938 9.73704 11.807 9.68804 11.607 9.58704L11.606 9.58804Z" fill="#34A853"/>
</svg>
