<svg width="69" height="68" viewBox="0 0 69 68" fill="none" xmlns="http://www.w3.org/2000/svg">
<path fill-rule="evenodd" clip-rule="evenodd" d="M31.1 6.8C29.7605 6.8 28.4342 7.06383 27.1966 7.57643C25.9591 8.08903 24.8347 8.84035 23.8875 9.78751C22.9404 10.7347 22.189 11.8591 21.6764 13.0966C21.1638 14.3342 20.9 15.6605 20.9 17C20.9 18.3395 21.1638 19.6658 21.6764 20.9034C22.189 22.1409 22.9404 23.2653 23.8875 24.2125C24.8347 25.1596 25.9591 25.911 27.1966 26.4236C28.4342 26.9362 29.7605 27.2 31.1 27.2C33.8052 27.2 36.3996 26.1254 38.3125 24.2125C40.2254 22.2996 41.3 19.7052 41.3 17C41.3 14.2948 40.2254 11.7004 38.3125 9.78751C36.3996 7.87464 33.8052 6.8 31.1 6.8ZM14.1 17C14.1 12.4913 15.8911 8.1673 19.0792 4.97918C22.2673 1.79107 26.5913 0 31.1 0C35.6087 0 39.9327 1.79107 43.1208 4.97918C46.3089 8.1673 48.1 12.4913 48.1 17C48.1 21.5087 46.3089 25.8327 43.1208 29.0208C39.9327 32.2089 35.6087 34 31.1 34C26.5913 34 22.2673 32.2089 19.0792 29.0208C15.8911 25.8327 14.1 21.5087 14.1 17ZM8.7042 53.0434C7.606 54.4374 7.3 55.4914 7.3 56.1C7.3 56.5148 7.4258 56.9534 8.167 57.5484C9.0136 58.2284 10.4858 58.9322 12.7366 59.5272C17.2178 60.7172 23.6574 61.2 31.1 61.2C31.8548 61.2 32.6005 61.1943 33.3372 61.183C34.2389 61.1708 35.1086 61.5174 35.7548 62.1464C36.401 62.7754 36.7709 63.6354 36.7831 64.5371C36.7953 65.4388 36.4487 66.3085 35.8197 66.9547C35.1907 67.6009 34.3307 67.9708 33.429 67.983C32.6583 67.9943 31.882 68 31.1 68C23.5214 68 16.361 67.524 10.9958 66.1028C8.3268 65.3956 5.8142 64.3824 3.9102 62.8524C1.894 61.234 0.5 58.973 0.5 56.1C0.5 53.4242 1.7172 50.9218 3.3696 48.8274C5.0492 46.7024 7.3714 44.7474 10.0948 43.0814C15.545 39.763 22.957 37.4 31.1 37.4C32.6209 37.4 34.1124 37.4793 35.5744 37.638C36.4712 37.7331 37.2934 38.1806 37.8603 38.882C38.4271 39.5834 38.6921 40.4812 38.597 41.378C38.5019 42.2748 38.0544 43.097 37.353 43.6639C36.6516 44.2307 35.7538 44.4957 34.857 44.4006C33.6307 44.2669 32.3784 44.2 31.1 44.2C24.2218 44.2 18.0338 46.206 13.6376 48.8886C11.4378 50.2282 9.7752 51.6834 8.7042 53.0434ZM55.9744 40.9734C55.277 40.7411 54.523 40.7411 53.8256 40.9734L43.6256 44.3734C42.9483 44.599 42.3592 45.032 41.9418 45.6112C41.5244 46.1903 41.2998 46.8861 41.3 47.6V53.2814C41.2995 56.9181 42.6402 60.4273 45.0653 63.1373C47.4905 65.8473 50.8299 67.5677 54.4444 67.9694C54.7504 68.0034 55.0541 68.0034 55.3556 67.9694C58.9701 67.5677 62.3095 65.8473 64.7346 63.1373C67.1598 60.4273 68.5005 56.9181 68.5 53.2814V47.6C68.5002 46.8861 68.2756 46.1903 67.8582 45.6112C67.4408 45.032 66.8517 44.599 66.1744 44.3734L55.9744 40.9734ZM48.1 53.2814V50.0514L54.9 47.7836L61.7 50.0514V53.2814C61.7 57.2492 58.793 60.5914 54.9 61.1728C53.0095 60.8909 51.283 59.9395 50.035 58.4917C48.7869 57.044 48.1003 55.1962 48.1 53.2848V53.2814Z" fill="#0075FF"/>
</svg>
